<?xml version="1.0" encoding="UTF-8" standalone="no"?>
<!-- Created with Inkscape (http://www.inkscape.org/) -->

<svg
   width="210mm"
   height="297mm"
   viewBox="0 0 210 297"
   version="1.1"
   id="svg5"
   inkscape:version="1.2.1 (9c6d41e410, 2022-07-14)"
   sodipodi:docname="Finish.svg"
   inkscape:export-filename="..\Assets\Sprites\tilmap1.png"
   inkscape:export-xdpi="107.95049"
   inkscape:export-ydpi="107.95049"
   xml:space="preserve"
   xmlns:inkscape="http://www.inkscape.org/namespaces/inkscape"
   xmlns:sodipodi="http://sodipodi.sourceforge.net/DTD/sodipodi-0.dtd"
   xmlns="http://www.w3.org/2000/svg"
   xmlns:svg="http://www.w3.org/2000/svg"><sodipodi:namedview
     id="namedview7"
     pagecolor="#ffffff"
     bordercolor="#000000"
     borderopacity="0.25"
     inkscape:showpageshadow="2"
     inkscape:pageopacity="0.0"
     inkscape:pagecheckerboard="0"
     inkscape:deskcolor="#d1d1d1"
     inkscape:document-units="mm"
     showgrid="false"
     inkscape:zoom="0.8409652"
     inkscape:cx="720.60057"
     inkscape:cy="349.00374"
     inkscape:window-width="1440"
     inkscape:window-height="830"
     inkscape:window-x="-6"
     inkscape:window-y="-6"
     inkscape:window-maximized="1"
     inkscape:current-layer="g4189" /><defs
     id="defs2" /><g
     inkscape:label="Livello 1"
     inkscape:groupmode="layer"
     id="layer1"><g
       id="g3291"
       transform="matrix(1,0,0,1.0055032,0,-9.1557477)"><g
         id="g4189"
         transform="translate(229.41547,310.20521)"><path
           style="fill:#000000;fill-opacity:1;stroke:#000000;stroke-width:0.884569;stroke-miterlimit:0.6;stroke-opacity:1"
           d="m -90.983268,-274.9727 -14.315142,5.47569 17.461329,5.1628 c -4.712377,-5.67159 -3.150845,-7.70344 -3.146187,-10.63849 z"
           id="path2067"
           sodipodi:nodetypes="cccc" /><path
           style="fill:#ffffff;fill-opacity:1;stroke:#000000;stroke-width:0.884569;stroke-miterlimit:0.6;stroke-opacity:1"
           d="m -91.140576,-273.56466 c -1.644849,2.96054 0.01951,7.31283 2.988878,8.60466 l -14.472452,-4.69345 z"
           id="path2069"
           sodipodi:nodetypes="cccc" /><path
           style="fill:#000000;fill-opacity:1;stroke:#000000;stroke-width:0.906483;stroke-miterlimit:0.6;stroke-opacity:1"
           d="m -104.7279,-206.64268 16.03358,-2.98975 -17.44941,-7.84935 c 3.94757,6.27171 1.94322,7.9905 1.41583,10.8391 z"
           id="path2124"
           sodipodi:nodetypes="cccc" /><path
           style="fill:#ffffff;fill-opacity:1;stroke:#000000;stroke-width:0.912591;stroke-miterlimit:0.6;stroke-opacity:1"
           d="m -104.3099,-208.00623 c 2.2567,-2.64279 1.28091,-7.20048 -1.61196,-8.96105 l 14.384865,7.00336 z"
           id="path2126"
           sodipodi:nodetypes="cccc" /><ellipse
           style="fill:#000000;fill-opacity:1;stroke:#000000;stroke-width:0.884569;stroke-miterlimit:0.6;stroke-opacity:1"
           id="path2180"
           cx="-129.99599"
           cy="-242.979"
           rx="3.9327328"
           ry="3.6765366" /><path
           style="fill:#000000;fill-opacity:1;stroke:#000000;stroke-width:0.884569;stroke-miterlimit:0.6;stroke-opacity:1"
           d="m -74.465789,-233.82677 0.15731,1.87738 c 0,0 5.95218,-0.19551 8.80932,-0.93869 3.090788,-0.80395 5.614993,-3.70314 8.809324,-3.75476 3.602407,-0.0582 10.067797,3.9112 10.067797,3.9112 v -1.72093 c 0,0 -6.623725,-5.11719 -10.539724,-5.16279 -3.988001,-0.0464 -7.018976,3.9186 -10.854347,5.00635 -2.08279,0.5907 -6.44968,0.78224 -6.44968,0.78224 z"
           id="path2236"
           sodipodi:nodetypes="ccssccssc" /><path
           style="fill:#000000;fill-opacity:1;stroke:#000000;stroke-width:0.884569;stroke-miterlimit:0.6;stroke-opacity:1"
           d="m -96.331783,-167.96202 -0.471929,14.39325 1.258475,0.78224 1.415782,-8.91755 1.887713,-0.78225 -0.786546,-1.56448 h -0.943856 l 0.157308,-4.06765 z"
           id="path2238" /><path
           style="fill:#000000;fill-opacity:1;stroke:#000000;stroke-width:0.884569;stroke-miterlimit:0.6;stroke-opacity:1"
           d="m -134.40064,-180.47789 c 0.25575,-1.62743 1.00966,-3.42826 -1.57309,-4.06765 0,0 -3.79918,1.31758 -2.35964,4.69344 0.5449,0.8525 1.15835,1.44725 2.04502,1.87738 3.03689,1.47322 5.14373,1.24166 6.7643,-0.15644 l 13.05667,-11.26429 -2.98887,0.46935 -11.6409,9.85625 c -1.15557,0.41327 -2.34023,0.76869 -3.93273,0.31289 -0.43505,-0.22407 -0.47936,-0.0595 -1.7304,-1.09514 -1.98588,-1.88214 0.19851,-2.9968 1.10116,-2.81606 1.04738,0.20972 1.05699,1.27951 1.25848,2.19027 z"
           id="path2240"
           sodipodi:nodetypes="cccsscccccsc" /></g></g></g></svg>
