<?xml version="1.0" encoding="UTF-8" standalone="no"?>
<!-- Created with Inkscape (http://www.inkscape.org/) -->

<svg
   width="210mm"
   height="297mm"
   viewBox="0 0 210 297"
   version="1.1"
   id="svg5"
   inkscape:version="1.2.1 (9c6d41e410, 2022-07-14)"
   sodipodi:docname="Paesaggio2.0.svg"
   inkscape:export-filename="..\Assets\Sprites\Paesaggio2.0.png"
   inkscape:export-xdpi="96"
   inkscape:export-ydpi="96"
   xmlns:inkscape="http://www.inkscape.org/namespaces/inkscape"
   xmlns:sodipodi="http://sodipodi.sourceforge.net/DTD/sodipodi-0.dtd"
   xmlns:xlink="http://www.w3.org/1999/xlink"
   xmlns="http://www.w3.org/2000/svg"
   xmlns:svg="http://www.w3.org/2000/svg">
  <sodipodi:namedview
     id="namedview7"
     pagecolor="#ffffff"
     bordercolor="#000000"
     borderopacity="0.25"
     inkscape:showpageshadow="2"
     inkscape:pageopacity="0.0"
     inkscape:pagecheckerboard="0"
     inkscape:deskcolor="#d1d1d1"
     inkscape:document-units="mm"
     showgrid="false"
     inkscape:zoom="0.037165762"
     inkscape:cx="-511.2232"
     inkscape:cy="3914.8935"
     inkscape:window-width="1440"
     inkscape:window-height="830"
     inkscape:window-x="-6"
     inkscape:window-y="-6"
     inkscape:window-maximized="1"
     inkscape:current-layer="g8349" />
  <defs
     id="defs2">
    <linearGradient
       inkscape:collect="always"
       id="linearGradient14025">
      <stop
         style="stop-color:#d4a960;stop-opacity:1;"
         offset="0"
         id="stop14021" />
      <stop
         style="stop-color:#b15611;stop-opacity:1"
         offset="1"
         id="stop14023" />
    </linearGradient>
    <linearGradient
       inkscape:collect="always"
       id="linearGradient14016">
      <stop
         style="stop-color:#d4a960;stop-opacity:1;"
         offset="0"
         id="stop14012" />
      <stop
         style="stop-color:#aa4400;stop-opacity:1"
         offset="1"
         id="stop14014" />
    </linearGradient>
    <linearGradient
       inkscape:collect="always"
       id="linearGradient6831">
      <stop
         style="stop-color:#f2f2f2;stop-opacity:1;"
         offset="0"
         id="stop6827" />
      <stop
         style="stop-color:#999999;stop-opacity:1"
         offset="1"
         id="stop6829" />
    </linearGradient>
    <linearGradient
       inkscape:collect="always"
       id="linearGradient3795">
      <stop
         style="stop-color:#62b2dc;stop-opacity:1;"
         offset="0"
         id="stop3791" />
      <stop
         style="stop-color:#ffffff;stop-opacity:1"
         offset="1"
         id="stop3793" />
    </linearGradient>
    <linearGradient
       inkscape:collect="always"
       xlink:href="#linearGradient3795"
       id="linearGradient3797"
       x1="-37.754238"
       y1="-118.29661"
       x2="-32.720337"
       y2="509.68219"
       gradientUnits="userSpaceOnUse"
       gradientTransform="matrix(1.0827651,0,0,1.007754,-148.21579,-6.9642974)" />
    <linearGradient
       inkscape:collect="always"
       xlink:href="#linearGradient6831"
       id="linearGradient6833"
       x1="-391.38559"
       y1="-64.81144"
       x2="-252.95338"
       y2="-45.934322"
       gradientUnits="userSpaceOnUse"
       gradientTransform="matrix(0.74459279,0.00139597,0.0019279,1.0763222,-234.88206,8.1076093)" />
    <linearGradient
       inkscape:collect="always"
       xlink:href="#linearGradient6831"
       id="linearGradient7563"
       gradientUnits="userSpaceOnUse"
       x1="-391.38559"
       y1="-64.81144"
       x2="-252.95338"
       y2="-45.934322"
       gradientTransform="matrix(0.66807486,-1.8296978e-4,-3.3900131e-4,0.83793592,-222.92637,8.30077)" />
    <linearGradient
       inkscape:collect="always"
       xlink:href="#linearGradient6831"
       id="linearGradient8293"
       gradientUnits="userSpaceOnUse"
       x1="-391.38559"
       y1="-64.81144"
       x2="-252.95338"
       y2="-45.934322"
       gradientTransform="matrix(0.55031284,-0.07066153,-0.05555491,-0.69874086,71.299341,-134.61429)" />
    <linearGradient
       inkscape:collect="always"
       xlink:href="#linearGradient6831"
       id="linearGradient8297"
       gradientUnits="userSpaceOnUse"
       gradientTransform="matrix(-0.51502734,-5.1284973e-5,-9.7513212e-5,-0.7258757,-37.964438,-4.0852502)"
       x1="-391.38559"
       y1="-64.81144"
       x2="-252.95338"
       y2="-45.934322" />
    <linearGradient
       inkscape:collect="always"
       xlink:href="#linearGradient6831"
       id="linearGradient8301"
       gradientUnits="userSpaceOnUse"
       gradientTransform="matrix(0.36943648,-1.1901642e-4,3.431155e-4,-0.71216047,-432.2091,-3.4471203)"
       x1="-391.38559"
       y1="-64.81144"
       x2="-252.95338"
       y2="-45.934322" />
    <linearGradient
       inkscape:collect="always"
       xlink:href="#linearGradient6831"
       id="linearGradient8305"
       gradientUnits="userSpaceOnUse"
       gradientTransform="matrix(0.36943646,-1.1901641e-4,-3.2176489e-4,0.66784576,197.89574,-21.681776)"
       x1="-391.38559"
       y1="-64.81144"
       x2="-252.95338"
       y2="-45.934322" />
    <linearGradient
       inkscape:collect="always"
       xlink:href="#linearGradient6831"
       id="linearGradient8309"
       gradientUnits="userSpaceOnUse"
       gradientTransform="matrix(0.38008909,5.0017301e-5,1.13437e-4,0.64371116,231.29798,99.548539)"
       x1="-391.38559"
       y1="-64.81144"
       x2="-252.95338"
       y2="-45.934322" />
    <linearGradient
       inkscape:collect="always"
       xlink:href="#linearGradient6831"
       id="linearGradient8320"
       gradientUnits="userSpaceOnUse"
       gradientTransform="matrix(0.50594652,-1.391076e-4,-2.4071991e-4,0.59253646,-13.494881,119.86345)"
       x1="-391.38559"
       y1="-64.81144"
       x2="-252.95338"
       y2="-45.934322" />
    <linearGradient
       inkscape:collect="always"
       xlink:href="#linearGradient6831"
       id="linearGradient8337"
       gradientUnits="userSpaceOnUse"
       gradientTransform="matrix(-0.49712045,1.6015067e-4,3.431155e-4,-0.71216047,-514.05215,8.9449868)"
       x1="-391.38559"
       y1="-64.81144"
       x2="-252.95338"
       y2="-45.934322" />
    <linearGradient
       inkscape:collect="always"
       xlink:href="#linearGradient14016"
       id="linearGradient14018"
       x1="-2813.9492"
       y1="302.03391"
       x2="-402.71185"
       y2="1122.0386"
       gradientUnits="userSpaceOnUse"
       gradientTransform="matrix(0.99686368,0,0,0.55238695,30.940526,287.40648)" />
    <linearGradient
       inkscape:collect="always"
       xlink:href="#linearGradient14025"
       id="linearGradient14027"
       x1="-256.72882"
       y1="1545.4067"
       x2="-2360.8982"
       y2="1746.7627"
       gradientUnits="userSpaceOnUse"
       gradientTransform="matrix(0.99686374,0,0,1,-1293.8247,-1092.356)" />
    <linearGradient
       inkscape:collect="always"
       xlink:href="#linearGradient6831"
       id="linearGradient1146"
       gradientUnits="userSpaceOnUse"
       gradientTransform="matrix(0.36943646,-1.1901641e-4,-3.2176489e-4,0.66784576,99.422682,79.252853)"
       x1="-391.38559"
       y1="-64.81144"
       x2="-252.95338"
       y2="-45.934322" />
    <linearGradient
       inkscape:collect="always"
       xlink:href="#linearGradient6831"
       id="linearGradient1150"
       gradientUnits="userSpaceOnUse"
       gradientTransform="matrix(0.66807486,-1.8296978e-4,-3.3900131e-4,0.83793592,-2.6007013,114.37906)"
       x1="-391.38559"
       y1="-64.81144"
       x2="-252.95338"
       y2="-45.934322" />
    <linearGradient
       inkscape:collect="always"
       xlink:href="#linearGradient6831"
       id="linearGradient1154"
       gradientUnits="userSpaceOnUse"
       gradientTransform="matrix(0.74459279,0.00139597,0.0019279,1.0763222,375.86397,-12.837116)"
       x1="-391.38559"
       y1="-64.81144"
       x2="-252.95338"
       y2="-45.934322" />
    <linearGradient
       inkscape:collect="always"
       xlink:href="#linearGradient6831"
       id="linearGradient1158"
       gradientUnits="userSpaceOnUse"
       gradientTransform="matrix(0.36943646,-1.1901641e-4,-3.2176489e-4,0.66784576,-117.06169,-21.437279)"
       x1="-391.38559"
       y1="-64.81144"
       x2="-252.95338"
       y2="-45.934322" />
    <linearGradient
       inkscape:collect="always"
       xlink:href="#linearGradient6831"
       id="linearGradient1162"
       gradientUnits="userSpaceOnUse"
       gradientTransform="matrix(0.74459279,0.00139597,0.0019279,1.0763222,69.821425,-8.3066824)"
       x1="-391.38559"
       y1="-64.81144"
       x2="-252.95338"
       y2="-45.934322" />
  </defs>
  <g
     inkscape:label="Livello 1"
     inkscape:groupmode="layer"
     id="layer1">
    <g
       id="g34590"
       inkscape:export-filename="paesaggio1.png"
       inkscape:export-xdpi="96"
       inkscape:export-ydpi="96"
       transform="matrix(1.779426,0,0,1.2195853,77.545539,-614.67314)"
       style="opacity:1;stroke-width:1.29071;stroke-dasharray:none">
      <g
         id="g34677"
         inkscape:export-filename="paesaggioo.png"
         inkscape:export-xdpi="96"
         inkscape:export-ydpi="96"
         transform="matrix(0.99998727,0,0,1.0424278,-201.10695,145.46019)"
         style="stroke-width:1.29071;stroke-dasharray:none">
        <g
           id="g8349"
           transform="matrix(-2.7688362,0.02180236,0.01609113,5.1810957,27.009137,720.59653)"
           style="stroke-width:0.586696;stroke-dasharray:none">
          <rect
             style="fill:url(#linearGradient3797);fill-opacity:1;stroke:#6f5010;stroke-width:0.610457;stroke-miterlimit:1.4;stroke-dasharray:none"
             id="rect234"
             width="846.88605"
             height="402.67331"
             x="-613.90045"
             y="-137.27992"
             ry="0"
             transform="matrix(0.99999996,-2.9153034e-4,-4.3258512e-4,0.99999991,0,0)" />
          <path
             id="path4577"
             style="fill:url(#linearGradient6833);fill-opacity:1;stroke:#6f5010;stroke-width:0.525222;stroke-miterlimit:1.4;stroke-dasharray:none"
             d="m -471.33214,-91.543406 a 21.196874,16.471305 0.42757504 0 0 -16.34045,5.964676 26.448205,17.836693 0.28265318 0 0 -14.79637,-3.077958 26.448205,17.836693 0.28265318 0 0 -26.41583,17.787351 26.448205,17.836693 0.28265318 0 0 2.6388,7.728383 21.196874,16.471305 0.42757504 0 0 -7.95227,12.853961 21.196874,16.471305 0.42757504 0 0 21.22621,16.511194 21.196874,16.471305 0.42757504 0 0 13.02045,-3.463538 26.76814,18.777994 0.31094525 0 0 20.57625,6.805343 26.76814,18.777994 0.31094525 0 0 25.65136,-13.443726 21.196874,16.471305 0.42757504 0 0 1.64195,0.05703 21.196874,16.471305 0.42757504 0 0 21.1672,-16.431714 21.196874,16.471305 0.42757504 0 0 -19.30335,-16.439731 21.196874,16.471305 0.42757504 0 0 -21.11395,-14.851271 z" />
          <path
             id="path7561"
             style="fill:url(#linearGradient7563);fill-opacity:1;stroke:#6f5010;stroke-width:0.431874;stroke-miterlimit:1.4;stroke-dasharray:none"
             d="m -434.88702,-68.876402 a 12.823397,19.018356 89.951903 0 0 -14.67275,4.671492 13.886328,23.730089 89.964065 0 0 -13.26996,-2.371023 13.886328,23.730089 89.964065 0 0 -23.73549,13.892872 13.886328,23.730089 89.964065 0 0 2.35277,6.012208 12.823397,19.018356 89.951903 0 0 -7.15979,10.020637 12.823397,19.018356 89.951903 0 0 19.01325,12.818111 12.823397,19.018356 89.951903 0 0 11.68911,-2.718641 14.619167,24.017122 89.961428 0 0 18.44873,5.263013 14.619167,24.017122 89.961428 0 0 23.04124,-10.509964 12.823397,19.018356 89.951903 0 0 1.4731,0.04161 12.823397,19.018356 89.951903 0 0 19.02363,-12.828528 12.823397,19.018356 89.951903 0 0 -17.28812,-12.765755 12.823397,19.018356 89.951903 0 0 -18.91572,-11.526021 z" />
          <path
             id="path8291"
             style="fill:url(#linearGradient8293);fill-opacity:1;stroke:#6f5010;stroke-width:0.32268;stroke-miterlimit:1.4;stroke-dasharray:none"
             d="m -98.203925,-47.786973 a 10.703758,15.810326 80.329156 0 1 -12.394265,-2.340407 11.595341,19.71988 81.215133 0 1 -10.77421,3.383834 11.595341,19.71988 81.215133 0 1 -20.46766,-9.069728 11.595341,19.71988 81.215133 0 1 1.54141,-5.263125 10.703758,15.810326 80.329156 0 1 -6.55862,-7.597555 10.703758,15.810326 80.329156 0 1 14.81585,-12.70471 10.703758,15.810326 80.329156 0 1 9.80778,1.028136 12.206285,19.960028 81.023201 0 1 14.84925,-6.344479 12.206285,19.960028 81.023201 0 1 19.672632,6.32222 10.703758,15.810326 80.329156 0 1 1.210672,-0.190833 10.703758,15.810326 80.329156 0 1 16.516216,8.681596 10.703758,15.810326 80.329156 0 1 -13.398297,12.47819 10.703758,15.810326 80.329156 0 1 -14.820758,11.616861 z" />
          <path
             id="path8295"
             style="fill:url(#linearGradient8297);fill-opacity:1;stroke:#6f5010;stroke-width:0.338334;stroke-miterlimit:1.4;stroke-dasharray:none"
             d="m 125.47179,62.8373 a 14.661488,11.108479 0.02376826 0 0 11.3094,-4.042148 18.293824,12.02926 0.01591516 0 0 10.231,2.058104 18.293824,12.02926 0.01591516 0 0 18.29205,-12.027475 18.293824,12.02926 0.01591516 0 0 -1.81636,-5.208912 14.661488,11.108479 0.02376826 0 0 5.51528,-8.678293 14.661488,11.108479 0.02376826 0 0 -14.66304,-11.109871 14.661488,11.108479 0.02376826 0 0 -9.01011,2.351402 18.515101,12.664094 0.01748761 0 0 -14.22462,-4.56497 18.515101,12.664094 0.01748761 0 0 -17.75829,9.097195 14.661488,11.108479 0.02376826 0 0 -1.13565,-0.0365 14.661488,11.108479 0.02376826 0 0 -14.660051,11.106953 14.661488,11.108479 0.02376826 0 0 13.333081,11.063973 14.661488,11.108479 0.02376826 0 0 14.58731,9.990545 z" />
          <path
             id="path8299"
             style="fill:url(#linearGradient8301);fill-opacity:1;stroke:#6f5010;stroke-width:0.610458;stroke-miterlimit:1.4;stroke-dasharray:none"
             d="m -549.46943,62.232753 a 10.516846,10.898637 0.65077888 0 1 -8.11087,-3.964263 11.801953,13.12244 89.786598 0 1 -7.33961,2.020581 11.801953,13.12244 89.786598 0 1 -13.11663,-11.797781 11.801953,13.12244 89.786598 0 1 1.30486,-5.110732 10.516846,10.898637 0.65077888 0 1 -3.95292,-8.513584 10.516846,10.898637 0.65077888 0 1 10.5222,-10.901908 10.516846,10.898637 0.65077888 0 1 6.4622,2.305769 12.42478,13.281177 89.658519 0 1 10.20523,-4.48061 12.42478,13.281177 89.658519 0 1 12.73485,8.922935 10.516846,10.898637 0.65077888 0 1 0.81464,-0.03597 10.516846,10.898637 0.65077888 0 1 10.51167,10.895134 10.516846,10.898637 0.65077888 0 1 -9.56818,10.856701 10.516846,10.898637 0.65077888 0 1 -10.46744,9.803724 z" />
          <path
             id="path8303"
             style="fill:url(#linearGradient8305);fill-opacity:1;stroke:#6f5010;stroke-width:0.610458;stroke-miterlimit:1.4;stroke-dasharray:none"
             d="m 80.696676,-83.201489 a 10.220358,10.516953 89.199144 0 0 -8.114578,3.722647 11.067574,13.122431 89.868029 0 0 -7.33773,-1.890269 11.067574,13.122431 89.868029 0 0 -13.127645,11.071849 11.067574,13.122431 89.868029 0 0 1.300098,4.791904 10.220358,10.516953 89.199144 0 0 -3.960869,7.986287 10.220358,10.516953 89.199144 0 0 10.512011,10.216964 10.220358,10.516953 89.199144 0 0 6.464362,-2.166322 11.651654,13.28116 89.827618 0 0 10.201051,4.195429 11.651654,13.28116 89.827618 0 0 12.743181,-8.375649 10.220358,10.516953 89.199144 0 0 0.81461,0.03323 A 10.220358,10.516953 89.199144 0 0 100.713,-63.83916 10.220358,10.516953 89.199144 0 0 91.154963,-74.014327 10.220358,10.516953 89.199144 0 0 80.696676,-83.201473 Z" />
          <path
             id="path8307"
             style="fill:url(#linearGradient8309);fill-opacity:1;stroke:#6f5010;stroke-width:0.348604;stroke-miterlimit:1.4;stroke-dasharray:none"
             d="m 110.67852,40.199747 a 10.82015,9.8510689 0.09297927 0 0 -8.34609,3.584502 13.500804,10.667625 0.03684972 0 0 -7.550565,-1.825231 13.500804,10.667625 0.03684972 0 0 -13.498814,10.665884 13.500804,10.667625 0.03684972 0 0 1.340777,4.619316 10.82015,9.8510689 0.09297927 0 0 -4.069763,7.695915 10.82015,9.8510689 0.09297927 0 0 10.82193,9.852435 10.82015,9.8510689 0.09297927 0 0 6.64932,-2.085155 13.664106,11.2306 0.04425827 0 0 10.497985,4.048365 13.664106,11.2306 0.04425827 0 0 13.10505,-8.06729 10.82015,9.8510689 0.09297927 0 0 0.83812,0.03239 10.82015,9.8510689 0.09297927 0 0 10.81843,-9.849586 10.82015,9.8510689 0.09297927 0 0 -9.8404,-9.811722 10.82015,9.8510689 0.09297927 0 0 -10.76598,-8.859809 z" />
          <path
             id="path8318"
             style="fill:url(#linearGradient8320);fill-opacity:1;stroke:#6f5010;stroke-width:0.489625;stroke-miterlimit:1.4;stroke-dasharray:none"
             d="m -174.01844,65.291623 a 9.0679126,14.402983 89.958617 0 0 -11.11187,3.3036 9.8195518,17.971274 89.967634 0 0 -10.04965,-1.676446 9.8195518,17.971274 89.967634 0 0 -17.9751,9.824525 9.8195518,17.971274 89.967634 0 0 1.78191,4.251426 9.0679126,14.402983 89.958617 0 0 -5.42205,7.086078 9.0679126,14.402983 89.958617 0 0 14.39935,9.063898 9.0679126,14.402983 89.958617 0 0 8.85235,-1.922628 10.337771,18.188649 89.965622 0 0 13.97169,3.721411 10.337771,18.188649 89.965622 0 0 17.44938,-7.43233 9.0679126,14.402983 89.958617 0 0 1.11562,0.0294 9.0679126,14.402983 89.958617 0 0 14.40671,-9.071819 9.0679126,14.402983 89.958617 0 0 -13.09287,-9.026899 9.0679126,14.402983 89.958617 0 0 -14.32547,-8.150214 z" />
          <path
             id="path8335"
             style="fill:url(#linearGradient8337);fill-opacity:1;stroke:#6f5010;stroke-width:0.610458;stroke-miterlimit:1.4;stroke-dasharray:none"
             d="m -356.33872,74.53628 a 10.898581,14.151734 89.914402 0 0 10.91863,-3.970394 11.801966,17.657775 89.94435 0 0 9.87402,2.015037 11.801966,17.657775 89.94435 0 0 17.66332,-11.807697 11.801966,17.657775 89.94435 0 0 -1.75008,-5.109749 10.898581,14.151734 89.914402 0 0 5.32874,-8.516572 10.898581,14.151734 89.914402 0 0 -14.14653,-10.893961 10.898581,14.151734 89.914402 0 0 -8.69827,2.310653 12.424805,17.871359 89.938447 0 0 -13.72728,-4.4729 12.424805,17.871359 89.938447 0 0 -17.14633,8.932562 10.898581,14.151734 89.914402 0 0 -1.09615,-0.03536 10.898581,14.151734 89.914402 0 0 -14.15703,10.90308 10.898581,14.151734 89.914402 0 0 12.86286,10.849475 10.898581,14.151734 89.914402 0 0 14.0741,9.795817 z" />
          <path
             id="path1144"
             style="fill:url(#linearGradient1146);fill-opacity:1;stroke:#6f5010;stroke-width:0.610458;stroke-miterlimit:1.4;stroke-dasharray:none"
             d="m -17.776376,17.733144 a 10.220358,10.516953 89.199144 0 0 -8.114579,3.722647 11.067574,13.122431 89.868029 0 0 -7.337729,-1.890269 11.067574,13.122431 89.868029 0 0 -13.127645,11.071849 11.067574,13.122431 89.868029 0 0 1.300098,4.791905 10.220358,10.516953 89.199144 0 0 -3.960869,7.986286 10.220358,10.516953 89.199144 0 0 10.512011,10.216964 10.220358,10.516953 89.199144 0 0 6.464361,-2.166322 11.651654,13.28116 89.827618 0 0 10.201052,4.195429 11.651654,13.28116 89.827618 0 0 12.7431779,-8.375649 10.220358,10.516953 89.199144 0 0 0.8146095,0.03323 A 10.220358,10.516953 89.199144 0 0 2.2399484,37.095478 10.220358,10.516953 89.199144 0 0 -7.318093,26.920311 10.220358,10.516953 89.199144 0 0 -17.776376,17.733165 Z" />
          <path
             id="path1148"
             style="fill:url(#linearGradient1150);fill-opacity:1;stroke:#6f5010;stroke-width:0.431874;stroke-miterlimit:1.4;stroke-dasharray:none"
             d="m -214.56136,37.201882 a 12.823397,19.018356 89.951903 0 0 -14.67275,4.671499 13.886328,23.730089 89.964065 0 0 -13.26996,-2.371027 13.886328,23.730089 89.964065 0 0 -23.73549,13.892869 13.886328,23.730089 89.964065 0 0 2.35278,6.012211 12.823397,19.018356 89.951903 0 0 -7.15979,10.020638 12.823397,19.018356 89.951903 0 0 19.01324,12.818111 12.823397,19.018356 89.951903 0 0 11.68911,-2.718642 14.619167,24.017122 89.961428 0 0 18.44873,5.263014 14.619167,24.017122 89.961428 0 0 23.04124,-10.509965 12.823397,19.018356 89.951903 0 0 1.4731,0.04161 12.823397,19.018356 89.951903 0 0 19.02363,-12.828528 12.823397,19.018356 89.951903 0 0 -17.28812,-12.765754 12.823397,19.018356 89.951903 0 0 -18.91572,-11.526023 z" />
          <path
             id="path1152"
             style="fill:url(#linearGradient1154);fill-opacity:1;stroke:#6f5010;stroke-width:0.525222;stroke-miterlimit:1.4;stroke-dasharray:none"
             d="m 139.41389,-112.48813 a 21.196874,16.471305 0.42757504 0 0 -16.34045,5.96468 26.448205,17.836693 0.28265318 0 0 -14.79637,-3.07796 26.448205,17.836693 0.28265318 0 0 -26.415833,17.787347 26.448205,17.836693 0.28265318 0 0 2.638802,7.728384 21.196874,16.471305 0.42757504 0 0 -7.952272,12.85396 21.196874,16.471305 0.42757504 0 0 21.226212,16.511194 21.196874,16.471305 0.42757504 0 0 13.020441,-3.463538 26.76814,18.777994 0.31094525 0 0 20.57626,6.805343 26.76814,18.777994 0.31094525 0 0 25.65136,-13.443726 21.196874,16.471305 0.42757504 0 0 1.64195,0.05703 21.196874,16.471305 0.42757504 0 0 21.1672,-16.431714 21.196874,16.471305 0.42757504 0 0 -19.30335,-16.439731 21.196874,16.471305 0.42757504 0 0 -21.11395,-14.851279 z" />
          <path
             id="path1156"
             style="fill:url(#linearGradient1158);fill-opacity:1;stroke:#6f5010;stroke-width:0.610458;stroke-miterlimit:1.4;stroke-dasharray:none"
             d="m -234.26074,-82.956996 a 10.220358,10.516953 89.199144 0 0 -8.11458,3.722647 11.067574,13.122431 89.868029 0 0 -7.33773,-1.890263 11.067574,13.122431 89.868029 0 0 -13.12764,11.071847 11.067574,13.122431 89.868029 0 0 1.30009,4.791905 10.220358,10.516953 89.199144 0 0 -3.96086,7.986286 10.220358,10.516953 89.199144 0 0 10.51201,10.216965 10.220358,10.516953 89.199144 0 0 6.46436,-2.166323 11.651654,13.28116 89.827618 0 0 10.20105,4.195429 11.651654,13.28116 89.827618 0 0 12.74317,-8.375649 10.220358,10.516953 89.199144 0 0 0.81461,0.03324 10.220358,10.516953 89.199144 0 0 10.52184,-10.22374 10.220358,10.516953 89.199144 0 0 -9.55804,-10.175168 10.220358,10.516953 89.199144 0 0 -10.45828,-9.187151 z" />
          <path
             id="path1160"
             style="fill:url(#linearGradient1162);fill-opacity:1;stroke:#6f5010;stroke-width:0.525222;stroke-miterlimit:1.4;stroke-dasharray:none"
             d="m -166.62865,-107.9577 a 21.196874,16.471305 0.42757504 0 0 -16.34045,5.96468 26.448205,17.836693 0.28265318 0 0 -14.79637,-3.07796 26.448205,17.836693 0.28265318 0 0 -26.41583,17.787351 26.448205,17.836693 0.28265318 0 0 2.6388,7.728383 21.196874,16.471305 0.42757504 0 0 -7.95227,12.85396 21.196874,16.471305 0.42757504 0 0 21.22621,16.511195 21.196874,16.471305 0.42757504 0 0 13.02044,-3.463539 26.76814,18.777994 0.31094525 0 0 20.57626,6.805344 26.76814,18.777994 0.31094525 0 0 25.65136,-13.443727 21.196874,16.471305 0.42757504 0 0 1.64195,0.05703 21.196874,16.471305 0.42757504 0 0 21.16719,-16.431714 21.196874,16.471305 0.42757504 0 0 -19.30334,-16.439733 21.196874,16.471305 0.42757504 0 0 -21.11395,-14.85128 z" />
        </g>
        <g
           id="g15072"
           transform="matrix(1.458141,0,0,1.8898709,3669.8525,946.52776)"
           style="stroke-width:1.41517;stroke-dasharray:none">
          <g
             id="g15077"
             transform="matrix(1.0015831,0,0,0.98054164,2.1050332,23.516927)"
             style="stroke-width:1.42802;stroke-dasharray:none">
            <path
               id="rect12405"
               style="fill:url(#linearGradient14027);fill-opacity:1;stroke:#6f5010;stroke-width:1.42802;stroke-miterlimit:0.6;stroke-dasharray:none"
               d="m -2937.3393,326.38469 c 374.9086,-64.82826 399.5134,-147.70443 560.9016,-37.41593 111.806,76.40531 365.0045,5.09194 596.1018,-53.65593 147.4987,-37.49604 250.4364,161.95259 450.6071,207.13173 l -5.0181,196.86052 -1599.4214,1.52838 z"
               sodipodi:nodetypes="csscccc" />
            <path
               id="rect8403"
               style="fill:url(#linearGradient14018);fill-opacity:1;stroke:#6f5010;stroke-width:1.42802;stroke-miterlimit:0.6;stroke-dasharray:none"
               d="m -2934.7626,523.76258 c 0,0 188.8204,54.5731 516.8652,-30.5873 587.0152,-152.389 642.7441,51.0437 797.8796,39.505 270.7189,-20.1356 290.3289,-74.72451 290.3289,-74.72451 v 296.04942 l -1603.8608,12.13678 z"
               sodipodi:nodetypes="csscccc" />
          </g>
        </g>
        <g
           id="g15931"
           transform="matrix(0.95093401,0,0,1.3057582,383.34326,60.269929)"
           style="fill:#ffd56b;fill-opacity:1;stroke-width:1.1227;stroke-dasharray:none;paint-order:normal">
          <path
             style="fill:#ffd56b;fill-opacity:1;stroke:#755207;stroke-width:1.1227;stroke-linejoin:miter;stroke-miterlimit:0.6;stroke-dasharray:none;stroke-opacity:1;paint-order:normal"
             d="m 921.20337,943.85591 -128.36439,230.30079 173.66948,74.2501 88.09324,-80.5424 z"
             id="path15143"
             sodipodi:nodetypes="ccccc" />
          <path
             style="fill:#ffd56b;fill-opacity:1;stroke:#755207;stroke-width:1.1227;stroke-linejoin:miter;stroke-miterlimit:0.6;stroke-dasharray:none;stroke-opacity:1;paint-order:normal"
             d="m 920.55456,942.85875 49.72934,302.29515 83.0397,-77.2895 -15.5687,-29.9421 -73.76337,62.5557 -150.38771,-61.036 16.98939,-32.0911 125.84745,52.2267 65.11624,-47.0861 -13.0517,-23.5431 -57.09842,32.875 -105.71186,-40.9004 c 4.96354,-10.697 11.25912,-18.5736 17.75786,-32.7962 l 81.66162,34.6839 44.35144,-23.8044 -16.82719,-30.9393 -31.92892,18.2479 -61.03602,-26.428 14.4529,-27.841 39.03228,13.3686 17.59906,-11.58753 -8.78973,5.92438 15.10167,36.49575 -10.06779,6.2924 13.21398,31.4618 20.76484,-11.3262 17.94305,32.5656 -15.73093,9.7 13.51882,24.4335 17.78074,-10.2224 15.8736,24.6949 -14.148,13.214 16.9894,29.5741 -30.2034,28.3157 -18.24786,-32.7203 15.1017,-11.9555 -18.87712,-28.945 -11.95551,9.4386 -14.47245,-30.0967 14.32981,-8.5481 -13.1944,-33.0883 -11.83246,3.7755 -14.81643,-7.3962 -6.57762,33.8241 -14.47247,-4.4046 -7.53126,30.5713 19.48679,9.6999 -6.57765,33.7175 -44.55279,-15.9922 -11.46889,38.4901 78.86625,33.5771 8.90256,-41.9705 -93.43194,-38.0156 11.4195,-34.6501 19.71796,9.742 74.07091,29.5473 0.36021,-0.01 -101.93581,-43.3819 11.14451,-28.3157 23.91102,9.4385 10.04822,-33.0882 -19.4868,-9.0706 11.95551,-29.5742 17.61866,6.2923 10.0678,-32.09095 -15.89315,-5.92448 15.65264,-49.60812 50.65215,301.51525 -31.85894,-195.5852 0.32441,-3.7273 -14.49204,-5.6631 -6.2728,30.7259 -56.41313,-23.4845 18.02965,-29.3714 z"
             id="path15927"
             sodipodi:nodetypes="ccccccccccccccccccccccccccccccccccccccccccccccccccccccccccccccccccccccccccc" />
        </g>
        <g
           id="g34826"
           transform="matrix(0.95529061,0,0,1.2844469,-1351.5453,161.34599)"
           style="fill:#ffd56b;fill-opacity:1;stroke-width:1.11262;stroke-dasharray:none;paint-order:normal">
          <path
             style="fill:#ffd56b;fill-opacity:1;stroke:#755207;stroke-width:1.11262;stroke-linejoin:miter;stroke-miterlimit:0.6;stroke-dasharray:none;stroke-opacity:1;paint-order:normal"
             d="m 921.20337,943.85591 -128.36439,230.30079 173.66948,74.2501 88.09324,-80.5424 z"
             id="path34822"
             sodipodi:nodetypes="ccccc" />
          <path
             style="fill:#ffd56b;fill-opacity:1;stroke:#755207;stroke-width:1.11262;stroke-linejoin:miter;stroke-miterlimit:0.6;stroke-dasharray:none;stroke-opacity:1;paint-order:normal"
             d="m 920.55456,942.85875 49.72934,302.29515 83.0397,-77.2895 -15.5687,-29.9421 -73.76337,62.5557 -150.38771,-61.036 16.98939,-32.0911 125.84745,52.2267 65.11624,-47.0861 -13.0517,-23.5431 -57.09842,32.875 -105.71186,-40.9004 c 4.96354,-10.697 11.25912,-18.5736 17.75786,-32.7962 l 81.66162,34.6839 44.35144,-23.8044 -16.82719,-30.9393 -31.92892,18.2479 -61.03602,-26.428 14.4529,-27.841 39.03228,13.3686 17.59906,-11.58753 -8.78973,5.92438 15.10167,36.49575 -10.06779,6.2924 13.21398,31.4618 20.76484,-11.3262 17.94305,32.5656 -15.73093,9.7 13.51882,24.4335 17.78074,-10.2224 15.8736,24.6949 -14.148,13.214 16.9894,29.5741 -30.2034,28.3157 -18.24786,-32.7203 15.1017,-11.9555 -18.87712,-28.945 -11.95551,9.4386 -14.47245,-30.0967 14.32981,-8.5481 -13.1944,-33.0883 -11.83246,3.7755 -14.81643,-7.3962 -6.57762,33.8241 -14.47247,-4.4046 -7.53126,30.5713 19.48679,9.6999 -6.57765,33.7175 -44.55279,-15.9922 -11.46889,38.4901 78.86625,33.5771 8.90256,-41.9705 -93.43194,-38.0156 11.4195,-34.6501 19.71796,9.742 74.07091,29.5473 0.36021,-0.01 -101.93581,-43.3819 11.14451,-28.3157 23.91102,9.4385 10.04822,-33.0882 -19.4868,-9.0706 11.95551,-29.5742 17.61866,6.2923 10.0678,-32.09095 -15.89315,-5.92448 15.65264,-49.60812 50.65215,301.51525 -31.85894,-195.5852 0.32441,-3.7273 -14.49204,-5.6631 -6.2728,30.7259 -56.41313,-23.4845 18.02965,-29.3714 z"
             id="path34824"
             sodipodi:nodetypes="ccccccccccccccccccccccccccccccccccccccccccccccccccccccccccccccccccccccccccc" />
        </g>
        <g
           id="g34832"
           transform="matrix(-1.0608337,0,0,1.3498812,2378.6172,155.45479)"
           style="fill:#ffd56b;fill-opacity:1;stroke-width:1.28853;stroke-dasharray:none;paint-order:normal">
          <path
             style="fill:#ffd56b;fill-opacity:1;stroke:#755207;stroke-width:1.28853;stroke-linejoin:miter;stroke-miterlimit:0.6;stroke-dasharray:none;stroke-opacity:1;paint-order:normal"
             d="m 921.20337,943.85591 -128.36439,230.30079 173.66948,74.2501 88.09324,-80.5424 z"
             id="path34828"
             sodipodi:nodetypes="ccccc" />
          <path
             style="fill:#ffd56b;fill-opacity:1;stroke:#755207;stroke-width:1.28853;stroke-linejoin:miter;stroke-miterlimit:0.6;stroke-dasharray:none;stroke-opacity:1;paint-order:normal"
             d="m 920.55456,942.85875 49.72934,302.29515 83.0397,-77.2895 -15.5687,-29.9421 -73.76337,62.5557 -150.38771,-61.036 16.98939,-32.0911 125.84745,52.2267 65.11624,-47.0861 -13.0517,-23.5431 -57.09842,32.875 -105.71186,-40.9004 c 4.96354,-10.697 11.25912,-18.5736 17.75786,-32.7962 l 81.66162,34.6839 44.35144,-23.8044 -16.82719,-30.9393 -31.92892,18.2479 -61.03602,-26.428 14.4529,-27.841 39.03228,13.3686 17.59906,-11.58753 -8.78973,5.92438 15.10167,36.49575 -10.06779,6.2924 13.21398,31.4618 20.76484,-11.3262 17.94305,32.5656 -15.73093,9.7 13.51882,24.4335 17.78074,-10.2224 15.8736,24.6949 -14.148,13.214 16.9894,29.5741 -30.2034,28.3157 -18.24786,-32.7203 15.1017,-11.9555 -18.87712,-28.945 -11.95551,9.4386 -14.47245,-30.0967 14.32981,-8.5481 -13.1944,-33.0883 -11.83246,3.7755 -14.81643,-7.3962 -6.57762,33.8241 -14.47247,-4.4046 -7.53126,30.5713 19.48679,9.6999 -6.57765,33.7175 -44.55279,-15.9922 -11.46889,38.4901 78.86625,33.5771 8.90256,-41.9705 -93.43194,-38.0156 11.4195,-34.6501 19.71796,9.742 74.07091,29.5473 0.36021,-0.01 -101.93581,-43.3819 11.14451,-28.3157 23.91102,9.4385 10.04822,-33.0882 -19.4868,-9.0706 11.95551,-29.5742 17.61866,6.2923 10.0678,-32.09095 -15.89315,-5.92448 15.65264,-49.60812 50.65215,301.51525 -31.85894,-195.5852 0.32441,-3.7273 -14.49204,-5.6631 -6.2728,30.7259 -56.41313,-23.4845 18.02965,-29.3714 z"
             id="path34830"
             sodipodi:nodetypes="ccccccccccccccccccccccccccccccccccccccccccccccccccccccccccccccccccccccccccc" />
        </g>
        <g
           id="g1067"
           transform="matrix(1.0937595,0,0,1.3256954,-916.81306,14.080953)"
           style="fill:#ffd56b;fill-opacity:1;stroke-width:1.1227;stroke-dasharray:none;paint-order:normal">
          <path
             style="fill:#ffd56b;fill-opacity:1;stroke:#755207;stroke-width:1.1227;stroke-linejoin:miter;stroke-miterlimit:0.6;stroke-dasharray:none;stroke-opacity:1;paint-order:normal"
             d="m 921.20337,943.85591 -128.36439,230.30079 173.66948,74.2501 88.09324,-80.5424 z"
             id="path1063"
             sodipodi:nodetypes="ccccc" />
          <path
             style="fill:#ffd56b;fill-opacity:1;stroke:#755207;stroke-width:1.1227;stroke-linejoin:miter;stroke-miterlimit:0.6;stroke-dasharray:none;stroke-opacity:1;paint-order:normal"
             d="m 920.55456,942.85875 49.72934,302.29515 83.0397,-77.2895 -15.5687,-29.9421 -73.76337,62.5557 -150.38771,-61.036 16.98939,-32.0911 125.84745,52.2267 65.11624,-47.0861 -13.0517,-23.5431 -57.09842,32.875 -105.71186,-40.9004 c 4.96354,-10.697 11.25912,-18.5736 17.75786,-32.7962 l 81.66162,34.6839 44.35144,-23.8044 -16.82719,-30.9393 -31.92892,18.2479 -61.03602,-26.428 14.4529,-27.841 39.03228,13.3686 17.59906,-11.58753 -8.78973,5.92438 15.10167,36.49575 -10.06779,6.2924 13.21398,31.4618 20.76484,-11.3262 17.94305,32.5656 -15.73093,9.7 13.51882,24.4335 17.78074,-10.2224 15.8736,24.6949 -14.148,13.214 16.9894,29.5741 -30.2034,28.3157 -18.24786,-32.7203 15.1017,-11.9555 -18.87712,-28.945 -11.95551,9.4386 -14.47245,-30.0967 14.32981,-8.5481 -13.1944,-33.0883 -11.83246,3.7755 -14.81643,-7.3962 -6.57762,33.8241 -14.47247,-4.4046 -7.53126,30.5713 19.48679,9.6999 -6.57765,33.7175 -44.55279,-15.9922 -11.46889,38.4901 78.86625,33.5771 8.90256,-41.9705 -93.43194,-38.0156 11.4195,-34.6501 19.71796,9.742 74.07091,29.5473 0.36021,-0.01 -101.93581,-43.3819 11.14451,-28.3157 23.91102,9.4385 10.04822,-33.0882 -19.4868,-9.0706 11.95551,-29.5742 17.61866,6.2923 10.0678,-32.09095 -15.89315,-5.92448 15.65264,-49.60812 50.65215,301.51525 -31.85894,-195.5852 0.32441,-3.7273 -14.49204,-5.6631 -6.2728,30.7259 -56.41313,-23.4845 18.02965,-29.3714 z"
             id="path1065"
             sodipodi:nodetypes="ccccccccccccccccccccccccccccccccccccccccccccccccccccccccccccccccccccccccccc" />
        </g>
        <g
           id="g1073"
           transform="matrix(0.85935537,0,0,1.2907083,-499.28346,127.98686)"
           style="fill:#ffd56b;fill-opacity:1;stroke-width:1.1227;stroke-dasharray:none;paint-order:normal">
          <path
             style="fill:#ffd56b;fill-opacity:1;stroke:#755207;stroke-width:1.1227;stroke-linejoin:miter;stroke-miterlimit:0.6;stroke-dasharray:none;stroke-opacity:1;paint-order:normal"
             d="m 921.20337,943.85591 -128.36439,230.30079 173.66948,74.2501 88.09324,-80.5424 z"
             id="path1069"
             sodipodi:nodetypes="ccccc" />
          <path
             style="fill:#ffd56b;fill-opacity:1;stroke:#755207;stroke-width:1.1227;stroke-linejoin:miter;stroke-miterlimit:0.6;stroke-dasharray:none;stroke-opacity:1;paint-order:normal"
             d="m 920.55456,942.85875 49.72934,302.29515 83.0397,-77.2895 -15.5687,-29.9421 -73.76337,62.5557 -150.38771,-61.036 16.98939,-32.0911 125.84745,52.2267 65.11624,-47.0861 -13.0517,-23.5431 -57.09842,32.875 -105.71186,-40.9004 c 4.96354,-10.697 11.25912,-18.5736 17.75786,-32.7962 l 81.66162,34.6839 44.35144,-23.8044 -16.82719,-30.9393 -31.92892,18.2479 -61.03602,-26.428 14.4529,-27.841 39.03228,13.3686 17.59906,-11.58753 -8.78973,5.92438 15.10167,36.49575 -10.06779,6.2924 13.21398,31.4618 20.76484,-11.3262 17.94305,32.5656 -15.73093,9.7 13.51882,24.4335 17.78074,-10.2224 15.8736,24.6949 -14.148,13.214 16.9894,29.5741 -30.2034,28.3157 -18.24786,-32.7203 15.1017,-11.9555 -18.87712,-28.945 -11.95551,9.4386 -14.47245,-30.0967 14.32981,-8.5481 -13.1944,-33.0883 -11.83246,3.7755 -14.81643,-7.3962 -6.57762,33.8241 -14.47247,-4.4046 -7.53126,30.5713 19.48679,9.6999 -6.57765,33.7175 -44.55279,-15.9922 -11.46889,38.4901 78.86625,33.5771 8.90256,-41.9705 -93.43194,-38.0156 11.4195,-34.6501 19.71796,9.742 74.07091,29.5473 0.36021,-0.01 -101.93581,-43.3819 11.14451,-28.3157 23.91102,9.4385 10.04822,-33.0882 -19.4868,-9.0706 11.95551,-29.5742 17.61866,6.2923 10.0678,-32.09095 -15.89315,-5.92448 15.65264,-49.60812 50.65215,301.51525 -31.85894,-195.5852 0.32441,-3.7273 -14.49204,-5.6631 -6.2728,30.7259 -56.41313,-23.4845 18.02965,-29.3714 z"
             id="path1071"
             sodipodi:nodetypes="ccccccccccccccccccccccccccccccccccccccccccccccccccccccccccccccccccccccccccc" />
        </g>
        <g
           id="g1079"
           transform="matrix(0.95108484,0,0,1.1721565,-41.931808,208.68734)"
           style="fill:#ffd56b;fill-opacity:1;stroke-width:1.1227;stroke-dasharray:none;paint-order:normal">
          <path
             style="fill:#ffd56b;fill-opacity:1;stroke:#755207;stroke-width:1.1227;stroke-linejoin:miter;stroke-miterlimit:0.6;stroke-dasharray:none;stroke-opacity:1;paint-order:normal"
             d="m 921.20337,943.85591 -128.36439,230.30079 173.66948,74.2501 88.09324,-80.5424 z"
             id="path1075"
             sodipodi:nodetypes="ccccc" />
          <path
             style="fill:#ffd56b;fill-opacity:1;stroke:#755207;stroke-width:1.1227;stroke-linejoin:miter;stroke-miterlimit:0.6;stroke-dasharray:none;stroke-opacity:1;paint-order:normal"
             d="m 920.55456,942.85875 49.72934,302.29515 83.0397,-77.2895 -15.5687,-29.9421 -73.76337,62.5557 -150.38771,-61.036 16.98939,-32.0911 125.84745,52.2267 65.11624,-47.0861 -13.0517,-23.5431 -57.09842,32.875 -105.71186,-40.9004 c 4.96354,-10.697 11.25912,-18.5736 17.75786,-32.7962 l 81.66162,34.6839 44.35144,-23.8044 -16.82719,-30.9393 -31.92892,18.2479 -61.03602,-26.428 14.4529,-27.841 39.03228,13.3686 17.59906,-11.58753 -8.78973,5.92438 15.10167,36.49575 -10.06779,6.2924 13.21398,31.4618 20.76484,-11.3262 17.94305,32.5656 -15.73093,9.7 13.51882,24.4335 17.78074,-10.2224 15.8736,24.6949 -14.148,13.214 16.9894,29.5741 -30.2034,28.3157 -18.24786,-32.7203 15.1017,-11.9555 -18.87712,-28.945 -11.95551,9.4386 -14.47245,-30.0967 14.32981,-8.5481 -13.1944,-33.0883 -11.83246,3.7755 -14.81643,-7.3962 -6.57762,33.8241 -14.47247,-4.4046 -7.53126,30.5713 19.48679,9.6999 -6.57765,33.7175 -44.55279,-15.9922 -11.46889,38.4901 78.86625,33.5771 8.90256,-41.9705 -93.43194,-38.0156 11.4195,-34.6501 19.71796,9.742 74.07091,29.5473 0.36021,-0.01 -101.93581,-43.3819 11.14451,-28.3157 23.91102,9.4385 10.04822,-33.0882 -19.4868,-9.0706 11.95551,-29.5742 17.61866,6.2923 10.0678,-32.09095 -15.89315,-5.92448 15.65264,-49.60812 50.65215,301.51525 -31.85894,-195.5852 0.32441,-3.7273 -14.49204,-5.6631 -6.2728,30.7259 -56.41313,-23.4845 18.02965,-29.3714 z"
             id="path1077"
             sodipodi:nodetypes="ccccccccccccccccccccccccccccccccccccccccccccccccccccccccccccccccccccccccccc" />
        </g>
      </g>
    </g>
  </g>
</svg>
