<?xml version="1.0" encoding="UTF-8" standalone="no"?>
<!-- Created with Inkscape (http://www.inkscape.org/) -->

<svg
   width="210mm"
   height="297mm"
   viewBox="0 0 210 297"
   version="1.1"
   id="svg5"
   inkscape:version="1.2.1 (9c6d41e410, 2022-07-14)"
   sodipodi:docname="Paesaggio.svg"
   xmlns:inkscape="http://www.inkscape.org/namespaces/inkscape"
   xmlns:sodipodi="http://sodipodi.sourceforge.net/DTD/sodipodi-0.dtd"
   xmlns:xlink="http://www.w3.org/1999/xlink"
   xmlns="http://www.w3.org/2000/svg"
   xmlns:svg="http://www.w3.org/2000/svg">
  <sodipodi:namedview
     id="namedview7"
     pagecolor="#ffffff"
     bordercolor="#000000"
     borderopacity="0.25"
     inkscape:showpageshadow="2"
     inkscape:pageopacity="0.0"
     inkscape:pagecheckerboard="0"
     inkscape:deskcolor="#d1d1d1"
     inkscape:document-units="mm"
     showgrid="false"
     inkscape:zoom="0.10512065"
     inkscape:cx="3319.9947"
     inkscape:cy="6197.6405"
     inkscape:window-width="1440"
     inkscape:window-height="830"
     inkscape:window-x="-6"
     inkscape:window-y="-6"
     inkscape:window-maximized="1"
     inkscape:current-layer="layer1" />
  <defs
     id="defs2">
    <linearGradient
       inkscape:collect="always"
       id="linearGradient14025">
      <stop
         style="stop-color:#d4a960;stop-opacity:1;"
         offset="0"
         id="stop14021" />
      <stop
         style="stop-color:#b15611;stop-opacity:1"
         offset="1"
         id="stop14023" />
    </linearGradient>
    <linearGradient
       inkscape:collect="always"
       id="linearGradient14016">
      <stop
         style="stop-color:#d4a960;stop-opacity:1;"
         offset="0"
         id="stop14012" />
      <stop
         style="stop-color:#aa4400;stop-opacity:1"
         offset="1"
         id="stop14014" />
    </linearGradient>
    <linearGradient
       inkscape:collect="always"
       id="linearGradient6831">
      <stop
         style="stop-color:#f2f2f2;stop-opacity:1;"
         offset="0"
         id="stop6827" />
      <stop
         style="stop-color:#999999;stop-opacity:1"
         offset="1"
         id="stop6829" />
    </linearGradient>
    <linearGradient
       inkscape:collect="always"
       id="linearGradient3795">
      <stop
         style="stop-color:#62b2dc;stop-opacity:1;"
         offset="0"
         id="stop3791" />
      <stop
         style="stop-color:#ffffff;stop-opacity:1"
         offset="1"
         id="stop3793" />
    </linearGradient>
    <linearGradient
       inkscape:collect="always"
       xlink:href="#linearGradient3795"
       id="linearGradient3797"
       x1="-37.754238"
       y1="-118.29661"
       x2="-32.720337"
       y2="509.68219"
       gradientUnits="userSpaceOnUse"
       gradientTransform="matrix(0.99999389,0,0,1.007875,-1.9504673,-7.543075)" />
    <linearGradient
       inkscape:collect="always"
       xlink:href="#linearGradient6831"
       id="linearGradient6833"
       x1="-391.38559"
       y1="-64.81144"
       x2="-252.95338"
       y2="-45.934322"
       gradientUnits="userSpaceOnUse" />
    <linearGradient
       inkscape:collect="always"
       xlink:href="#linearGradient6831"
       id="linearGradient7563"
       gradientUnits="userSpaceOnUse"
       x1="-391.38559"
       y1="-64.81144"
       x2="-252.95338"
       y2="-45.934322"
       gradientTransform="matrix(0.87754122,0,0,1.1772801,17.489419,38.993014)" />
    <linearGradient
       inkscape:collect="always"
       xlink:href="#linearGradient6831"
       id="linearGradient8293"
       gradientUnits="userSpaceOnUse"
       x1="-391.38559"
       y1="-64.81144"
       x2="-252.95338"
       y2="-45.934322"
       gradientTransform="matrix(1.1353723,-0.114308,-0.11272969,-1.1196956,333.46006,-191.9642)" />
    <linearGradient
       inkscape:collect="always"
       xlink:href="#linearGradient6831"
       id="linearGradient8297"
       gradientUnits="userSpaceOnUse"
       gradientTransform="matrix(-0.90359845,0,0,-1.2440863,-37.837313,-146.54397)"
       x1="-391.38559"
       y1="-64.81144"
       x2="-252.95338"
       y2="-45.934322" />
    <linearGradient
       inkscape:collect="always"
       xlink:href="#linearGradient6831"
       id="linearGradient8301"
       gradientUnits="userSpaceOnUse"
       gradientTransform="matrix(0.34119516,0,0,-0.712246,-262.0156,-25.789497)"
       x1="-391.38559"
       y1="-64.81144"
       x2="-252.95338"
       y2="-45.934322" />
    <linearGradient
       inkscape:collect="always"
       xlink:href="#linearGradient6831"
       id="linearGradient8305"
       gradientUnits="userSpaceOnUse"
       gradientTransform="matrix(0.34119514,0,0,0.66792597,241.37426,-35.925868)"
       x1="-391.38559"
       y1="-64.81144"
       x2="-252.95338"
       y2="-45.934322" />
    <linearGradient
       inkscape:collect="always"
       xlink:href="#linearGradient6831"
       id="linearGradient8309"
       gradientUnits="userSpaceOnUse"
       gradientTransform="matrix(0.64960994,0,0,1.0668061,419.42436,32.302061)"
       x1="-391.38559"
       y1="-64.81144"
       x2="-252.95338"
       y2="-45.934322" />
    <linearGradient
       inkscape:collect="always"
       xlink:href="#linearGradient6831"
       id="linearGradient8320"
       gradientUnits="userSpaceOnUse"
       gradientTransform="matrix(0.58611276,0,0,0.73440604,218.98018,53.261133)"
       x1="-391.38559"
       y1="-64.81144"
       x2="-252.95338"
       y2="-45.934322" />
    <linearGradient
       inkscape:collect="always"
       xlink:href="#linearGradient6831"
       id="linearGradient8337"
       gradientUnits="userSpaceOnUse"
       gradientTransform="matrix(-0.45911842,0,0,-0.712246,-293.39789,-77.38696)"
       x1="-391.38559"
       y1="-64.81144"
       x2="-252.95338"
       y2="-45.934322" />
    <linearGradient
       inkscape:collect="always"
       xlink:href="#linearGradient14016"
       id="linearGradient14018"
       x1="-2813.9492"
       y1="302.03391"
       x2="-402.71185"
       y2="1122.0386"
       gradientUnits="userSpaceOnUse"
       gradientTransform="matrix(0.99686368,0,0,0.55238695,30.940526,287.40648)" />
    <linearGradient
       inkscape:collect="always"
       xlink:href="#linearGradient14025"
       id="linearGradient14027"
       x1="-256.72882"
       y1="1545.4067"
       x2="-2360.8982"
       y2="1746.7627"
       gradientUnits="userSpaceOnUse"
       gradientTransform="matrix(0.99686374,0,0,1,-1293.8247,-1092.356)" />
  </defs>
  <g
     inkscape:label="Livello 1"
     inkscape:groupmode="layer"
     id="layer1">
    <g
       id="g34590"
       inkscape:export-filename="paesaggio1.png"
       inkscape:export-xdpi="96"
       inkscape:export-ydpi="96"
       transform="translate(492.10138,105.89523)">
      <g
         id="g34677"
         inkscape:export-filename="paesaggioo.png"
         inkscape:export-xdpi="96"
         inkscape:export-ydpi="96"
         transform="translate(-201.11196,234.92724)">
        <g
           id="g8349"
           transform="matrix(-2.0366876,0.00999956,0.01183624,2.376288,344.76794,979.03157)">
          <rect
             style="fill:url(#linearGradient3797);fill-opacity:1;stroke:#6f5010;stroke-width:1.17005;stroke-miterlimit:1.4;stroke-dasharray:none"
             id="rect234"
             width="782.14642"
             height="402.72162"
             x="-432.03616"
             y="-137.87433"
             ry="0"
             transform="matrix(1,3.3165326e-5,4.5444618e-5,1,0,0)" />
          <path
             id="path4577"
             style="fill:url(#linearGradient6833);fill-opacity:1;stroke:#6f5010;stroke-width:0;stroke-miterlimit:1.4;stroke-dasharray:none"
             d="m -317.31758,-92.173185 a 28.467398,15.303557 0 0 0 -21.9599,5.570202 35.5201,16.572067 0 0 0 -19.86442,-2.833935 35.5201,16.572067 0 0 0 -35.5198,16.572115 35.5201,16.572067 0 0 0 3.52537,7.175789 28.467398,15.303557 0 0 0 -10.71098,11.956376 28.467398,15.303557 0 0 0 28.46752,15.303459 28.467398,15.303557 0 0 0 17.49505,-3.240629 35.949741,17.446644 0 0 0 27.61796,6.286955 35.949741,17.446644 0 0 0 34.48265,-12.535152 28.467398,15.303557 0 0 0 2.20503,0.05013 28.467398,15.303557 0 0 0 28.46751,-15.303459 28.467398,15.303557 0 0 0 -25.88524,-15.240413 28.467398,15.303557 0 0 0 -28.32075,-13.761434 z" />
          <path
             id="path7561"
             style="fill:url(#linearGradient7563);fill-opacity:1;stroke:#6f5010;stroke-width:0;stroke-miterlimit:1.4;stroke-dasharray:none"
             d="m -260.96984,-69.520643 a 24.981315,18.016574 0 0 0 -19.27072,6.557689 31.170352,19.509965 0 0 0 -17.43185,-3.336336 31.170352,19.509965 0 0 0 -31.17008,19.510021 31.170352,19.509965 0 0 0 3.09365,8.447915 24.981315,18.016574 0 0 0 -9.39932,14.076003 24.981315,18.016574 0 0 0 24.98142,18.0164577 24.981315,18.016574 0 0 0 15.35263,-3.8151287 31.54738,20.539587 0 0 0 24.23589,7.401508 31.54738,20.539587 0 0 0 30.25995,-14.757386 24.981315,18.016574 0 0 0 1.93501,0.05902 24.981315,18.016574 0 0 0 24.98141,-18.016458 24.981315,18.016574 0 0 0 -22.71537,-17.942235 24.981315,18.016574 0 0 0 -24.85262,-16.201063 z" />
          <path
             id="path8291"
             style="fill:url(#linearGradient8293);fill-opacity:1;stroke:#6f5010;stroke-width:0;stroke-miterlimit:1.4;stroke-dasharray:none"
             d="m -16.422867,-52.48636 a 17.221949,32.484488 84.250898 0 1 -25.56059,-3.726738 18.649475,40.532411 84.250898 0 1 -22.234045,5.443801 18.649475,40.532411 84.250898 0 1 -42.196358,-14.495522 18.649475,40.532411 84.250898 0 1 3.19368,-8.437677 17.221949,32.484488 84.250898 0 1 -13.50878,-12.16315 17.221949,32.484488 84.250898 0 1 30.596067,-20.389284 17.221949,32.484488 84.250898 0 1 20.22871,1.6287 19.633685,41.02268 84.250898 0 1 30.64794,-10.19643 19.633685,41.02268 84.250898 0 1 40.5637295,10.09391 17.221949,32.484488 84.250898 0 1 2.49788,-0.30818 17.221949,32.484488 84.250898 0 1 34.0463735,13.881155 17.221949,32.484488 84.250898 0 1 -27.671335,20.023513 17.221949,32.484488 84.250898 0 1 -30.603272,18.645902 z" />
          <path
             id="path8295"
             style="fill:url(#linearGradient8297);fill-opacity:1;stroke:#6f5010;stroke-width:0;stroke-miterlimit:1.4;stroke-dasharray:none"
             d="m 248.89039,-31.872561 a 25.723097,19.038945 0 0 0 19.84292,-6.92981 32.095909,20.617082 0 0 0 17.94947,3.52566 32.095909,20.617082 0 0 0 32.09564,-20.617145 32.095909,20.617082 0 0 0 -3.18552,-8.927301 25.723097,19.038945 0 0 0 9.67842,-14.874763 25.723097,19.038945 0 0 0 -25.7232,-19.038827 25.723097,19.038945 0 0 0 -15.80851,4.03163 32.484132,21.705132 0 0 0 -24.95555,-7.821523 32.484132,21.705132 0 0 0 -31.15846,15.594813 25.723097,19.038945 0 0 0 -1.99246,-0.06237 25.723097,19.038945 0 0 0 -25.7232,19.03883 25.723097,19.038945 0 0 0 23.38986,18.960389 25.723097,19.038945 0 0 0 25.59059,17.120417 z" />
          <path
             id="path8299"
             style="fill:url(#linearGradient8301);fill-opacity:1;stroke:#6f5010;stroke-width:0;stroke-miterlimit:1.4;stroke-dasharray:none"
             d="m -370.28284,39.860492 a 9.7129386,10.899897 0 0 1 -7.49261,-3.967353 12.119287,11.803389 0 0 1 -6.77764,2.018459 12.119287,11.803389 0 0 1 -12.11919,-11.803425 12.119287,11.803389 0 0 1 1.20284,-5.110927 9.7129386,10.899897 0 0 1 -3.65453,-8.515881 9.7129386,10.899897 0 0 1 9.71298,-10.8998293 9.7129386,10.899897 0 0 1 5.96923,2.308129 12.265878,12.426303 0 0 1 9.42311,-4.47786101 12.265878,12.426303 0 0 1 11.76531,8.92811201 9.7129386,10.899897 0 0 1 0.75235,-0.03571 9.7129386,10.899897 0 0 1 9.71297,10.8998313 9.7129386,10.899897 0 0 1 -8.83192,10.854923 9.7129386,10.899897 0 0 1 -9.6629,9.80153 z" />
          <path
             id="path8303"
             style="fill:url(#linearGradient8305);fill-opacity:1;stroke:#6f5010;stroke-width:0;stroke-miterlimit:1.4;stroke-dasharray:none"
             d="m 133.10701,-97.490738 a 9.7129381,10.221643 0 0 0 -7.49261,3.72048 12.119286,11.068914 0 0 0 -6.77765,-1.89286 12.119286,11.068914 0 0 0 -12.11918,11.06895 12.119286,11.068914 0 0 0 1.20284,4.7929 9.7129381,10.221643 0 0 0 -3.65453,7.98597 9.7129381,10.221643 0 0 0 9.71298,10.22158 9.7129381,10.221643 0 0 0 5.96923,-2.1645 12.265877,11.653067 0 0 0 9.42311,4.19922 12.265877,11.653067 0 0 0 11.76531,-8.37255 9.7129381,10.221643 0 0 0 0.75235,0.0335 9.7129381,10.221643 0 0 0 9.71296,-10.22158 9.7129381,10.221643 0 0 0 -8.83191,-10.17947 9.7129381,10.221643 0 0 0 -9.6629,-9.19162 z" />
          <path
             id="path8307"
             style="fill:url(#linearGradient8309);fill-opacity:1;stroke:#6f5010;stroke-width:0;stroke-miterlimit:1.4;stroke-dasharray:none"
             d="m 213.29161,-66.028875 a 18.492704,16.325929 0 0 0 -14.26535,5.942322 23.074211,17.679184 0 0 0 -12.90414,-3.023261 23.074211,17.679184 0 0 0 -23.07401,17.679241 23.074211,17.679184 0 0 0 2.29012,7.655183 18.492704,16.325929 0 0 0 -6.95796,12.755129 18.492704,16.325929 0 0 0 18.49279,16.3258293 18.492704,16.325929 0 0 0 11.36497,-3.4571223 23.353309,18.612189 0 0 0 17.94089,6.7069615 23.353309,18.612189 0 0 0 22.40027,-13.3725725 18.492704,16.325929 0 0 0 1.43242,0.0535 18.492704,16.325929 0 0 0 18.49274,-16.325827 18.492704,16.325929 0 0 0 -16.81528,-16.258572 18.492704,16.325929 0 0 0 -18.39746,-14.680785 z" />
          <path
             id="path8318"
             style="fill:url(#linearGradient8320);fill-opacity:1;stroke:#6f5010;stroke-width:0;stroke-miterlimit:1.4;stroke-dasharray:none"
             d="M 32.99626,-14.431415 A 16.685105,11.239024 0 0 0 20.1253,-10.340627 20.818785,12.170626 0 0 0 8.4825101,-12.421886 20.818785,12.170626 0 0 0 -12.3361,-0.25122339 20.818785,12.170626 0 0 0 -10.26984,5.0187191 16.685105,11.239024 0 0 0 -16.54767,13.799553 16.685105,11.239024 0 0 0 0.13750008,25.038506 16.685105,11.239024 0 0 0 10.39158,22.658565 a 21.070602,12.812921 0 0 0 16.18723,4.61718 21.070602,12.812921 0 0 0 20.210712,-9.20589 16.685105,11.239024 0 0 0 1.2924,0.03682 A 16.685105,11.239024 0 0 0 64.76708,6.8677191 16.685105,11.239024 0 0 0 49.595412,-4.3249324 16.685105,11.239024 0 0 0 32.99626,-14.431415 Z" />
          <path
             id="path8335"
             style="fill:url(#linearGradient8337);fill-opacity:1;stroke:#6f5010;stroke-width:0;stroke-miterlimit:1.4;stroke-dasharray:none"
             d="m -147.71156,-11.736967 a 13.069908,10.899897 0 0 0 10.0822,-3.967353 16.307934,11.803389 0 0 0 9.12011,2.018459 16.307934,11.803389 0 0 0 16.30781,-11.803425 16.307934,11.803389 0 0 0 -1.61857,-5.110927 13.069908,10.899897 0 0 0 4.9176,-8.515879 13.069908,10.899897 0 0 0 -13.06996,-10.899829 13.069908,10.899897 0 0 0 -8.03231,2.308129 16.505189,12.426303 0 0 0 -12.6799,-4.477861 16.505189,12.426303 0 0 0 -15.83162,8.928111 13.069908,10.899897 0 0 0 -1.01237,-0.03571 13.069908,10.899897 0 0 0 -13.06996,10.89983 13.069908,10.899897 0 0 0 11.8844,10.854923 13.069908,10.899897 0 0 0 13.00257,9.80153 z" />
        </g>
        <g
           id="g15072"
           transform="matrix(0.99059104,0,0,0.83974284,2544.709,962.77285)">
          <g
             id="g15077"
             transform="matrix(1.0015831,0,0,0.98054164,2.1050332,23.516927)">
            <path
               id="rect12405"
               style="fill:url(#linearGradient14027);fill-opacity:1;stroke:#6f5010;stroke-width:1.99148;stroke-miterlimit:0.6;stroke-dasharray:none"
               d="m -2937.3393,326.38469 c 374.9086,-64.82826 399.5134,-147.70443 560.9016,-37.41593 111.806,76.40531 365.0045,5.09194 596.1018,-53.65593 147.4987,-37.49604 250.4364,161.95259 450.6071,207.13173 l -5.0181,196.86052 -1599.4214,1.52838 z"
               sodipodi:nodetypes="csscccc" />
            <path
               id="rect8403"
               style="fill:url(#linearGradient14018);fill-opacity:1;stroke:#6f5010;stroke-width:1.54893;stroke-miterlimit:0.6;stroke-dasharray:none"
               d="m -2934.7626,523.76258 c 0,0 188.8204,54.5731 516.8652,-30.5873 587.0152,-152.389 642.7441,51.0437 797.8796,39.505 270.7189,-20.1356 290.3289,-74.72451 290.3289,-74.72451 v 296.04942 l -1603.8608,12.13678 z"
               sodipodi:nodetypes="csscccc" />
          </g>
        </g>
        <g
           id="g15931"
           transform="matrix(1.4689465,0,0,0.89975449,-640.8779,234.49753)"
           style="fill:#ffd56b;fill-opacity:1;stroke-width:2.36577;stroke-dasharray:none;paint-order:normal">
          <path
             style="fill:#ffd56b;fill-opacity:1;stroke:#755207;stroke-width:2.36577;stroke-linejoin:miter;stroke-miterlimit:0.6;stroke-dasharray:none;stroke-opacity:1;paint-order:normal"
             d="m 921.20337,943.85591 -128.36439,230.30079 173.66948,74.2501 88.09324,-80.5424 z"
             id="path15143"
             sodipodi:nodetypes="ccccc" />
          <path
             style="fill:#ffd56b;fill-opacity:1;stroke:#755207;stroke-width:2.36577;stroke-linejoin:miter;stroke-miterlimit:0.6;stroke-dasharray:none;stroke-opacity:1;paint-order:normal"
             d="m 920.55456,942.85875 49.72934,302.29515 83.0397,-77.2895 -15.5687,-29.9421 -73.76337,62.5557 -150.38771,-61.036 16.98939,-32.0911 125.84745,52.2267 65.11624,-47.0861 -13.0517,-23.5431 -57.09842,32.875 -105.71186,-40.9004 c 4.96354,-10.697 11.25912,-18.5736 17.75786,-32.7962 l 81.66162,34.6839 44.35144,-23.8044 -16.82719,-30.9393 -31.92892,18.2479 -61.03602,-26.428 14.4529,-27.841 39.03228,13.3686 17.59906,-11.58753 -8.78973,5.92438 15.10167,36.49575 -10.06779,6.2924 13.21398,31.4618 20.76484,-11.3262 17.94305,32.5656 -15.73093,9.7 13.51882,24.4335 17.78074,-10.2224 15.8736,24.6949 -14.148,13.214 16.9894,29.5741 -30.2034,28.3157 -18.24786,-32.7203 15.1017,-11.9555 -18.87712,-28.945 -11.95551,9.4386 -14.47245,-30.0967 14.32981,-8.5481 -13.1944,-33.0883 -11.83246,3.7755 -14.81643,-7.3962 -6.57762,33.8241 -14.47247,-4.4046 -7.53126,30.5713 19.48679,9.6999 -6.57765,33.7175 -44.55279,-15.9922 -11.46889,38.4901 78.86625,33.5771 8.90256,-41.9705 -93.43194,-38.0156 11.4195,-34.6501 19.71796,9.742 74.07091,29.5473 0.36021,-0.01 -101.93581,-43.3819 11.14451,-28.3157 23.91102,9.4385 10.04822,-33.0882 -19.4868,-9.0706 11.95551,-29.5742 17.61866,6.2923 10.0678,-32.09095 -15.89315,-5.92448 15.65264,-49.60812 50.65215,301.51525 -31.85894,-195.5852 0.32441,-3.7273 -14.49204,-5.6631 -6.2728,30.7259 -56.41313,-23.4845 18.02965,-29.3714 z"
             id="path15927"
             sodipodi:nodetypes="ccccccccccccccccccccccccccccccccccccccccccccccccccccccccccccccccccccccccccc" />
        </g>
        <g
           id="g34826"
           transform="matrix(1.4688735,0,0,0.91618931,-1516.2135,231.0562)"
           style="fill:#ffd56b;fill-opacity:1;stroke-width:2.36577;stroke-dasharray:none;paint-order:normal">
          <path
             style="fill:#ffd56b;fill-opacity:1;stroke:#755207;stroke-width:2.36577;stroke-linejoin:miter;stroke-miterlimit:0.6;stroke-dasharray:none;stroke-opacity:1;paint-order:normal"
             d="m 921.20337,943.85591 -128.36439,230.30079 173.66948,74.2501 88.09324,-80.5424 z"
             id="path34822"
             sodipodi:nodetypes="ccccc" />
          <path
             style="fill:#ffd56b;fill-opacity:1;stroke:#755207;stroke-width:2.36577;stroke-linejoin:miter;stroke-miterlimit:0.6;stroke-dasharray:none;stroke-opacity:1;paint-order:normal"
             d="m 920.55456,942.85875 49.72934,302.29515 83.0397,-77.2895 -15.5687,-29.9421 -73.76337,62.5557 -150.38771,-61.036 16.98939,-32.0911 125.84745,52.2267 65.11624,-47.0861 -13.0517,-23.5431 -57.09842,32.875 -105.71186,-40.9004 c 4.96354,-10.697 11.25912,-18.5736 17.75786,-32.7962 l 81.66162,34.6839 44.35144,-23.8044 -16.82719,-30.9393 -31.92892,18.2479 -61.03602,-26.428 14.4529,-27.841 39.03228,13.3686 17.59906,-11.58753 -8.78973,5.92438 15.10167,36.49575 -10.06779,6.2924 13.21398,31.4618 20.76484,-11.3262 17.94305,32.5656 -15.73093,9.7 13.51882,24.4335 17.78074,-10.2224 15.8736,24.6949 -14.148,13.214 16.9894,29.5741 -30.2034,28.3157 -18.24786,-32.7203 15.1017,-11.9555 -18.87712,-28.945 -11.95551,9.4386 -14.47245,-30.0967 14.32981,-8.5481 -13.1944,-33.0883 -11.83246,3.7755 -14.81643,-7.3962 -6.57762,33.8241 -14.47247,-4.4046 -7.53126,30.5713 19.48679,9.6999 -6.57765,33.7175 -44.55279,-15.9922 -11.46889,38.4901 78.86625,33.5771 8.90256,-41.9705 -93.43194,-38.0156 11.4195,-34.6501 19.71796,9.742 74.07091,29.5473 0.36021,-0.01 -101.93581,-43.3819 11.14451,-28.3157 23.91102,9.4385 10.04822,-33.0882 -19.4868,-9.0706 11.95551,-29.5742 17.61866,6.2923 10.0678,-32.09095 -15.89315,-5.92448 15.65264,-49.60812 50.65215,301.51525 -31.85894,-195.5852 0.32441,-3.7273 -14.49204,-5.6631 -6.2728,30.7259 -56.41313,-23.4845 18.02965,-29.3714 z"
             id="path34824"
             sodipodi:nodetypes="ccccccccccccccccccccccccccccccccccccccccccccccccccccccccccccccccccccccccccc" />
        </g>
        <g
           id="g34832"
           transform="matrix(-1.1243759,0,0,0.89239544,2020.9538,292.23556)"
           style="fill:#ffd56b;fill-opacity:1;stroke-width:2.36577;stroke-dasharray:none;paint-order:normal">
          <path
             style="fill:#ffd56b;fill-opacity:1;stroke:#755207;stroke-width:2.36577;stroke-linejoin:miter;stroke-miterlimit:0.6;stroke-dasharray:none;stroke-opacity:1;paint-order:normal"
             d="m 921.20337,943.85591 -128.36439,230.30079 173.66948,74.2501 88.09324,-80.5424 z"
             id="path34828"
             sodipodi:nodetypes="ccccc" />
          <path
             style="fill:#ffd56b;fill-opacity:1;stroke:#755207;stroke-width:2.36577;stroke-linejoin:miter;stroke-miterlimit:0.6;stroke-dasharray:none;stroke-opacity:1;paint-order:normal"
             d="m 920.55456,942.85875 49.72934,302.29515 83.0397,-77.2895 -15.5687,-29.9421 -73.76337,62.5557 -150.38771,-61.036 16.98939,-32.0911 125.84745,52.2267 65.11624,-47.0861 -13.0517,-23.5431 -57.09842,32.875 -105.71186,-40.9004 c 4.96354,-10.697 11.25912,-18.5736 17.75786,-32.7962 l 81.66162,34.6839 44.35144,-23.8044 -16.82719,-30.9393 -31.92892,18.2479 -61.03602,-26.428 14.4529,-27.841 39.03228,13.3686 17.59906,-11.58753 -8.78973,5.92438 15.10167,36.49575 -10.06779,6.2924 13.21398,31.4618 20.76484,-11.3262 17.94305,32.5656 -15.73093,9.7 13.51882,24.4335 17.78074,-10.2224 15.8736,24.6949 -14.148,13.214 16.9894,29.5741 -30.2034,28.3157 -18.24786,-32.7203 15.1017,-11.9555 -18.87712,-28.945 -11.95551,9.4386 -14.47245,-30.0967 14.32981,-8.5481 -13.1944,-33.0883 -11.83246,3.7755 -14.81643,-7.3962 -6.57762,33.8241 -14.47247,-4.4046 -7.53126,30.5713 19.48679,9.6999 -6.57765,33.7175 -44.55279,-15.9922 -11.46889,38.4901 78.86625,33.5771 8.90256,-41.9705 -93.43194,-38.0156 11.4195,-34.6501 19.71796,9.742 74.07091,29.5473 0.36021,-0.01 -101.93581,-43.3819 11.14451,-28.3157 23.91102,9.4385 10.04822,-33.0882 -19.4868,-9.0706 11.95551,-29.5742 17.61866,6.2923 10.0678,-32.09095 -15.89315,-5.92448 15.65264,-49.60812 50.65215,301.51525 -31.85894,-195.5852 0.32441,-3.7273 -14.49204,-5.6631 -6.2728,30.7259 -56.41313,-23.4845 18.02965,-29.3714 z"
             id="path34830"
             sodipodi:nodetypes="ccccccccccccccccccccccccccccccccccccccccccccccccccccccccccccccccccccccccccc" />
        </g>
      </g>
    </g>
  </g>
</svg>
