<?xml version="1.0" encoding="UTF-8" standalone="no"?>
<!-- Created with Inkscape (http://www.inkscape.org/) -->

<svg
   width="210mm"
   height="297mm"
   viewBox="0 0 210 297"
   version="1.1"
   id="svg5"
   xml:space="preserve"
   inkscape:version="1.2.1 (9c6d41e410, 2022-07-14)"
   sodipodi:docname="scorpione.svg"
   xmlns:inkscape="http://www.inkscape.org/namespaces/inkscape"
   xmlns:sodipodi="http://sodipodi.sourceforge.net/DTD/sodipodi-0.dtd"
   xmlns="http://www.w3.org/2000/svg"
   xmlns:svg="http://www.w3.org/2000/svg"><sodipodi:namedview
     id="namedview7"
     pagecolor="#ffffff"
     bordercolor="#000000"
     borderopacity="0.25"
     inkscape:showpageshadow="2"
     inkscape:pageopacity="0.0"
     inkscape:pagecheckerboard="0"
     inkscape:deskcolor="#d1d1d1"
     inkscape:document-units="mm"
     showgrid="false"
     inkscape:zoom="2.3786088"
     inkscape:cx="310.68581"
     inkscape:cy="350.41491"
     inkscape:window-width="1440"
     inkscape:window-height="830"
     inkscape:window-x="-6"
     inkscape:window-y="-6"
     inkscape:window-maximized="1"
     inkscape:current-layer="layer1" /><defs
     id="defs2" /><g
     inkscape:label="Livello 1"
     inkscape:groupmode="layer"
     id="layer1"><path
       style="fill:#ccb500;stroke:#6b4e0f;stroke-width:0.3;stroke-miterlimit:0.6"
       d="m 104.13877,76.45233 c -1.59931,-1.661986 -3.19862,-2.00849 -4.797935,-0.943857 -0.01121,2.539387 1.441165,3.289952 3.303495,3.539461 0.2365,-1.519306 0.84488,-2.108937 1.49444,-2.595604 z"
       id="path455"
       sodipodi:nodetypes="cccc" /><path
       style="fill:#ccb500;stroke:#6b4e0f;stroke-width:0.331855;stroke-miterlimit:0.6"
       d="m 107.7982,79.987651 c -0.75664,-2.447282 -2.16086,-3.586705 -4.25973,-3.323168 -1.26111,2.519105 -0.2005,3.987206 1.51045,5.16093 0.98078,-1.392952 1.8701,-1.676775 2.74928,-1.837762 z"
       id="path457"
       sodipodi:nodetypes="cccc"
       inkscape:transform-center-x="-0.089589674"
       inkscape:transform-center-y="0.10160881" /><path
       style="fill:#ccb500;stroke:#6b4e0f;stroke-width:0.359803;stroke-miterlimit:0.6"
       d="m 109.52498,85.591639 c 0.30079,-2.866677 -0.56411,-4.684666 -2.67949,-5.377723 -2.25846,2.013572 -1.85928,4.012022 -0.71569,6.006244 1.51962,-0.983183 2.48793,-0.866743 3.39518,-0.628521 z"
       id="path459"
       sodipodi:nodetypes="cccc" /><path
       style="fill:#ccb500;stroke:#6b4e0f;stroke-width:0.342989;stroke-miterlimit:0.6"
       d="m 109.19963,91.298089 c 1.13265,-2.571261 0.97297,-4.636669 -0.57306,-6.159449 -2.49823,0.962964 -2.78146,3.006226 -2.44423,5.352094 1.56655,-0.298511 2.33605,0.20975 3.01729,0.807355 z"
       id="path461"
       sodipodi:nodetypes="cccc" /><path
       style="fill:#ccb500;stroke:#6b4e0f;stroke-width:0.350345;stroke-miterlimit:0.6"
       d="m 106.65313,96.49111 c 2.04198,-1.694322 2.6527,-3.606193 1.72808,-5.75144 -2.76126,-0.433751 -3.79012,1.230386 -4.33374,3.482144 1.61847,0.542448 2.17108,1.389035 2.60566,2.269296 z"
       id="path463"
       sodipodi:nodetypes="cccc" /><path
       style="fill:#ccb500;stroke:#6b4e0f;stroke-width:0.321895;stroke-miterlimit:0.6"
       d="m 103.48753,100.02327 c 2.17423,-1.038514 2.8406,-3.291438 2.37858,-5.379831 -2.45124,-0.989545 -3.69214,0.245701 -4.594,2.104118 1.38505,0.833205 1.9753,2.40662 2.21542,3.275713 z"
       id="path465"
       sodipodi:nodetypes="cccc" /><path
       style="fill:#ccb500;stroke:#6b4e0f;stroke-width:0.321895;stroke-miterlimit:0.6"
       d="m 100.5773,102.30425 c 2.17423,-1.03851 2.8406,-2.662196 2.37858,-4.750589 -2.45124,-0.989545 -2.984245,-1.484701 -4.593993,-0.334173 1.385046,0.83321 1.975293,4.215672 2.215413,5.084762 z"
       id="path467"
       sodipodi:nodetypes="ccccc" /><path
       style="fill:#ccb500;stroke:#6b4e0f;stroke-width:0.321895;stroke-miterlimit:0.6"
       d="m 97.195149,104.19197 c 2.934671,0.38731 4.069771,-2.91379 2.693199,-6.716964 -2.45124,-0.989545 -3.770792,-1.64201 -5.38054,-0.491482 2.988451,1.270502 3.050415,6.503856 2.687341,7.208446 z"
       id="path469"
       sodipodi:nodetypes="cccc" /><path
       style="fill:#ccb500;stroke:#6b4e0f;stroke-width:0.321895;stroke-miterlimit:0.6"
       d="m 91.767977,106.31564 c 4.659193,1.18324 6.989569,-4.36146 4.659566,-8.60467 -2.45124,-0.989545 -3.770792,-1.64201 -5.38054,-0.491482 2.988451,1.270502 1.084048,8.391562 0.720974,9.096152 z"
       id="path471"
       sodipodi:nodetypes="cccc" /><path
       style="fill:#ccb500;stroke:#6b4e0f;stroke-width:0.333982;stroke-miterlimit:0.6"
       d="m 87.760795,106.84691 c 4.651229,1.27595 6.977621,-4.70318 4.651601,-9.278848 -2.44705,-1.067076 -3.764346,-1.770661 -5.371343,-0.52999 2.983343,1.370046 1.082195,9.049038 0.719742,9.808838 z"
       id="path473"
       sodipodi:nodetypes="cccc" /><path
       style="fill:#ccb500;stroke:#6b4e0f;stroke-width:0.394085;stroke-miterlimit:0.6"
       d="m 82.209189,108.13411 c 5.780952,1.42934 8.672394,-5.26858 5.781414,-10.394329 -3.041406,-1.195357 -4.678656,-1.983526 -6.675972,-0.593704 3.707958,1.53475 1.345046,10.136893 0.894558,10.988033 z"
       id="path475"
       sodipodi:nodetypes="cccc" /><path
       style="fill:#ccb500;stroke:#6b4e0f;stroke-width:0.3;stroke-miterlimit:0.6"
       d="m 97.552645,82.202287 c 1.14028,-1.314523 -1.377345,-2.743331 -2.002222,-4.004443 -0.735101,-1.483564 1.938717,-3.363413 4.115679,-2.780863 l -0.444939,2.335924 c 1.682967,2.46275 -0.09769,3.410167 -1.668518,4.449382 z"
       id="path357"
       sodipodi:nodetypes="csccc" /><path
       style="fill:#ccb500;stroke:#6b4e0f;stroke-width:0.3;stroke-miterlimit:0.6"
       d="m 95.245205,105.66578 c 0.77251,-1.66154 2.613597,-1.6409 3.781012,-1.92028 3.477103,2.35569 3.284053,6.02215 4.011383,9.3599 l 2.04502,1.10117 c 0.73893,0.39789 -0.72649,1.06074 -2.35963,1.33713 -1.23551,-0.27941 -1.79817,-1.06346 -2.20234,-1.96637 l -1.887707,-7.78681 c -0.51312,1.10992 -1.219458,1.769 -2.359639,1.41578 z"
       id="path482"
       sodipodi:nodetypes="cccsccccc" /><path
       style="fill:#ccb500;stroke:#6b4e0f;stroke-width:0.3;stroke-miterlimit:0.6"
       d="m 90.169184,106.9473 c 0.77251,-1.66154 2.891684,-1.58529 4.059099,-1.86467 3.477103,2.35569 3.284053,6.02215 4.011383,9.3599 l 2.045024,1.10117 c 0.73893,0.39789 -0.726494,1.06074 -2.359634,1.33713 -1.23551,-0.27941 -1.79817,-1.06346 -2.20234,-1.96637 l -1.887707,-7.78681 c -0.51312,1.10992 -1.219458,1.769 -2.359639,1.41578 z"
       id="path484"
       sodipodi:nodetypes="cccsccccc" /><path
       style="fill:#ccb500;stroke:#6b4e0f;stroke-width:0.3;stroke-miterlimit:0.6"
       d="m 85.302138,108.00634 c 0.77251,-1.66154 2.724832,-1.3072 3.892247,-1.58658 3.477103,2.35569 3.284053,6.02215 4.011383,9.3599 l 2.045024,1.10117 c 0.73893,0.39789 -0.726494,1.06074 -2.359634,1.33713 -1.23551,-0.27941 -1.79817,-1.06346 -2.20234,-1.96637 l -1.887707,-7.78681 c -0.51312,1.10992 -1.219458,1.769 -2.359639,1.41578 z"
       id="path486"
       sodipodi:nodetypes="cccsccccc" /><path
       style="fill:#ccb500;stroke:#6b4e0f;stroke-width:0.325942;stroke-miterlimit:0.6"
       d="m 79.846852,108.55794 c 0.873026,-1.7355 2.325128,-1.59776 3.644442,-1.88958 3.929528,2.46056 3.711359,6.29023 4.533326,9.77657 l 2.311113,1.15019 c 0.835076,0.4156 -0.821022,1.10796 -2.666659,1.39665 -1.396269,-0.29185 -2.03214,-1.1108 -2.488898,-2.0539 l -2.133327,-8.13345 c -0.579885,1.15933 -1.378128,1.84775 -2.666665,1.4788 z"
       id="path488"
       sodipodi:nodetypes="cccsccccc" /><path
       style="fill:#ccb500;stroke:#6b4e0f;stroke-width:0.3;stroke-miterlimit:0.6"
       d="m 64.65413,89.823622 c -0.949153,-2.925846 -3.0884,-3.471505 -5.269862,-3.932732 -3.654194,0.532159 -8.080189,1.16795 -9.595869,4.876588 -1.106981,2.708613 3.805284,2.382217 7.000267,2.280984 -2.19572,1.472943 -6.59718,2.284495 -6.056411,4.797935 0.632365,2.939173 5.433976,1.04949 8.258739,1.33713 2.765401,-0.396877 5.012465,-1.369685 5.8991,-3.854079 L 63.317,92.65519 Z"
       id="path490"
       sodipodi:nodetypes="ccscscccc" /><path
       style="fill:#ccb500;stroke:#6b4e0f;stroke-width:0.313698;stroke-miterlimit:0.6"
       d="m 64.792008,112.43321 c -0.08357,-3.25214 -2.044921,-4.46194 -4.072881,-5.59929 -3.779507,-0.58508 -8.372364,-1.28019 -10.944735,1.98372 -1.909879,2.42332 3.075077,3.58022 6.272915,4.46011 -2.609034,0.8152 -7.213563,0.31194 -7.411929,2.99237 -0.234502,3.16873 5.080742,2.73255 7.797484,3.89206 2.858518,0.44869 5.371869,0.1553 6.979277,-2.08575 l -0.776019,-3.18941 z"
       id="path492"
       sodipodi:nodetypes="ccscscccc" /><path
       style="fill:#ccb500;stroke:#6b4e0f;stroke-width:0.3;stroke-miterlimit:0.6"
       d="m 75.036547,95.329448 c -0.759897,-2.281742 -2.268494,-3.253257 -3.85408,-4.090043 -2.149894,-0.881955 -4.299787,-1.961723 -6.449681,-1.022509 0,0 -1.391754,1.623879 -1.337131,2.595602 0.05305,0.943822 1.573094,2.359642 1.573094,2.359642 l 8.652012,1.730401 z"
       id="path494"
       sodipodi:nodetypes="cccsccc" /><path
       style="fill:#ccb500;stroke:#6b4e0f;stroke-width:0.3;stroke-miterlimit:0.6"
       d="m 74.957892,113.57732 c -2.244644,-0.86334 -3.133695,1.38738 -4.719281,0.55059 -2.149894,-0.88195 -4.299787,-1.96172 -6.449681,-1.02251 0,0 -1.34407,1.62237 -1.337131,2.5956 0.0064,0.8914 1.258475,2.35965 1.258475,2.35965 5.798109,1.19274 11.618658,0.56637 13.292637,-3.69677 z"
       id="path496"
       sodipodi:nodetypes="sccsccs" /><path
       style="fill:#ccb500;stroke:#6b4e0f;stroke-width:0.3;stroke-miterlimit:0.6"
       d="m 88.935383,108.64744 -0.212927,2.64891 -0.865201,0.70789 c -0.334033,1.12705 -0.04296,1.42063 0.235963,1.7304 l 1.494441,0.23596 c 0.766798,-0.6424 -0.189226,-3.86086 -0.652276,-5.32316 z"
       id="path498"
       sodipodi:nodetypes="cccccc" /><path
       style="fill:#ccb500;stroke:#6b4e0f;stroke-width:0.3;stroke-miterlimit:0.6"
       d="m 83.216629,109.01536 c -0.236871,0.98978 0.0252,1.93673 -0.8652,2.75292 l -0.943856,0.86519 c -0.402754,1.01771 0.24765,1.40353 0.865201,1.80906 1.651282,-0.26218 1.731442,-0.52437 1.966367,-0.78655 z"
       id="path500"
       sodipodi:nodetypes="cscccc" /><path
       style="fill:#ccb500;stroke:#6b4e0f;stroke-width:0.3;stroke-miterlimit:0.6"
       d="m 77.868112,97.453123 c -0.240354,-1.254083 -1.12351,-1.865364 -2.831565,-1.651746 l -1.101167,1.101164 v 0.943856 c 1.142469,-0.0188 2.187117,0.02762 3.932732,-0.393274 z"
       id="path502"
       sodipodi:nodetypes="ccccc" /><path
       style="fill:#ccb500;stroke:#6b4e0f;stroke-width:0.3;stroke-miterlimit:0.6"
       d="m 77.081568,109.17267 c -1.563105,0.67991 -2.230654,2.57621 -2.752913,4.09003 l 2.04502,1.02252 c 2.220215,-1.62218 2.655441,-3.98043 3.618115,-4.8766 z"
       id="path504"
       sodipodi:nodetypes="ccccc" /><path
       style="fill:#ccb500;stroke:#6b4e0f;stroke-width:0.3;stroke-miterlimit:0.6"
       d="m 74.485962,109.72325 -0.629237,3.53946 -2.280984,0.94386 c 0,0 -0.998708,0.10268 -1.258474,-0.23597 -0.208058,-0.27124 0.07865,-1.02251 0.07865,-1.02251 0,0 0.987594,-0.18142 1.258475,-0.55058 0.577237,-0.78666 0.314618,-2.91022 0.314618,-2.91022 z"
       id="path506"
       sodipodi:nodetypes="cccscscc" /><path
       style="fill:#ccb500;stroke:#6b4e0f;stroke-width:0.3;stroke-miterlimit:0.6"
       d="m 82.980667,98.947561 c -0.994674,-0.984397 -0.712892,-1.93954 -5.033899,-1.415782 l -5.191207,0.629237 -2.04502,0.550582 c 0,0 1.310736,1.788102 1.337127,2.831572 0.01219,0.48186 -0.171891,1.03891 -0.550582,1.33713 -1.208986,0.95207 -4.56197,0.70789 -4.56197,0.70789 -0.75951,1.07495 -1.870795,2.14989 -1.651748,3.22484 3.672227,4.71257 9.105594,2.38059 13.921874,2.51695 l 3.382151,-2.59561 c 1.010734,-1.97985 1.469031,-4.34641 0.393274,-7.786809 z"
       id="path508"
       sodipodi:nodetypes="csccssccccc" /><ellipse
       style="fill:#ffffff;stroke:#6b4e0f;stroke-width:0.3;stroke-miterlimit:0.6;fill-opacity:1;stroke-dasharray:none"
       id="path562"
       cx="69.216103"
       cy="101.46452"
       rx="3.1461864"
       ry="2.9102223" /><ellipse
       style="fill:#000000;fill-opacity:1;stroke:#6b4e0f;stroke-width:0;stroke-miterlimit:0.6;stroke-dasharray:none"
       id="path1170"
       cx="69.923981"
       cy="102.32969"
       rx="1.8090572"
       ry="2.0450208" /><ellipse
       style="fill:#ffffff;fill-opacity:1;stroke:#6b4e0f;stroke-width:0.3;stroke-miterlimit:0.6;stroke-dasharray:none"
       id="ellipse1642"
       cx="78.10408"
       cy="101.1499"
       rx="3.1461864"
       ry="2.9102223" /><ellipse
       style="fill:#000000;fill-opacity:1;stroke:#6b4e0f;stroke-width:0;stroke-miterlimit:0.6;stroke-dasharray:none"
       id="ellipse1640"
       cx="78.458038"
       cy="102.05443"
       rx="1.7697299"
       ry="2.0056939" /><path
       style="fill:#000000;fill-opacity:1;stroke:#6b4e0f;stroke-width:0;stroke-miterlimit:0.6;stroke-dasharray:none"
       d="m 72.333661,98.481225 c 0.347773,-0.530911 -1.179819,-1.494438 -1.179819,-1.494438 -0.59525,-0.753983 -1.582829,-0.297369 -2.202331,1.101164 0,0 1.325598,-0.066 1.88771,-5e-6 0.572867,0.06726 1.212185,0.82417 1.49444,0.393279 z"
       id="path1699"
       sodipodi:nodetypes="sscss" /><path
       style="fill:#000000;fill-opacity:1;stroke:#6b4e0f;stroke-width:0;stroke-miterlimit:0.6;stroke-dasharray:none"
       d="m 81.273301,98.477272 c 1.140681,-0.03663 0.09005,-1.459193 -1.022509,-1.887712 -1.262234,-0.486171 -2.488761,0.185499 -2.595605,1.415785 0,0 1.421202,-0.353557 2.123676,-0.235966 0.543642,0.091 1.494438,0.707893 1.494438,0.707893 z"
       id="path1701"
       sodipodi:nodetypes="cscsc" /><path
       style="opacity:1;fill:#ccb500;fill-opacity:1;stroke:#6b4e0f;stroke-width:0.4;stroke-miterlimit:0.6;stroke-dasharray:none"
       d="m 105.23994,98.868909 c -1.00021,2.213891 -1.11203,4.508551 -4.24736,6.528341 -0.84873,-0.68017 -1.433328,-1.75652 -3.067529,-1.25848 2.175379,-0.61791 4.238279,-3.47297 7.314889,-5.269861 z"
       id="path1707"
       sodipodi:nodetypes="cccc" /><path
       style="opacity:1;fill:#ccb500;fill-opacity:1;stroke:#6b4e0f;stroke-width:0.4;stroke-miterlimit:0.6;stroke-dasharray:none"
       d="m 79.69951,109.78844 c 0.218191,1.21217 1.009708,2.97494 0.611788,3.89321 0,0 -0.47083,1.06821 -1.056727,1.22357 -0.627193,0.16631 -1.557282,-1.16796 -1.557282,-1.16796 l 0.22247,-0.6674 0.723024,-0.38933 v -1.05672 z"
       id="path2261"
       sodipodi:nodetypes="cssccccc" /></g></svg>
