<?xml version="1.0" encoding="UTF-8" standalone="no"?>
<!-- Created with Inkscape (http://www.inkscape.org/) -->

<svg
   width="210mm"
   height="297mm"
   viewBox="0 0 210 297"
   version="1.1"
   id="svg5"
   xml:space="preserve"
   inkscape:version="1.2.1 (9c6d41e410, 2022-07-14)"
   sodipodi:docname="Simbolo.svg"
   xmlns:inkscape="http://www.inkscape.org/namespaces/inkscape"
   xmlns:sodipodi="http://sodipodi.sourceforge.net/DTD/sodipodi-0.dtd"
   xmlns="http://www.w3.org/2000/svg"
   xmlns:svg="http://www.w3.org/2000/svg"><sodipodi:namedview
     id="namedview7"
     pagecolor="#ffffff"
     bordercolor="#000000"
     borderopacity="0.25"
     inkscape:showpageshadow="2"
     inkscape:pageopacity="0.0"
     inkscape:pagecheckerboard="0"
     inkscape:deskcolor="#d1d1d1"
     inkscape:document-units="mm"
     showgrid="false"
     inkscape:zoom="0.84096521"
     inkscape:cx="482.77859"
     inkscape:cy="312.14133"
     inkscape:window-width="1440"
     inkscape:window-height="830"
     inkscape:window-x="-6"
     inkscape:window-y="-6"
     inkscape:window-maximized="1"
     inkscape:current-layer="layer3" /><defs
     id="defs2" /><g
     inkscape:groupmode="layer"
     id="layer2"
     inkscape:label="simbolo"><g
       inkscape:groupmode="layer"
       id="layer3"
       inkscape:label="tessera"><rect
         style="opacity:1;fill:#ccb500;fill-opacity:1;stroke:#6b4e0f;stroke-width:0.3;stroke-miterlimit:0.6;stroke-dasharray:none"
         id="rect1064"
         width="44.160091"
         height="45.606136"
         x="22.246899"
         y="24.360353" /><path
         style="opacity:1;fill:#ccb500;fill-opacity:1;stroke:#6b4e0f;stroke-width:0.3;stroke-miterlimit:0.6;stroke-dasharray:none"
         d="m 22.135663,24.249118 2.780862,-2.558393 43.603919,0.556172 v 45.383671 l -2.002221,1.890985 -0.111234,-45.1612 1.890985,-2.002221 -2.002221,1.890986 z"
         id="path1344" /><rect
         style="opacity:1;fill:#ccb500;fill-opacity:1;stroke:#6b4e0f;stroke-width:0.268475;stroke-miterlimit:0.6;stroke-dasharray:none"
         id="rect1346"
         width="34.448437"
         height="46.821938"
         x="91.394821"
         y="23.435211" /><path
         style="opacity:1;fill:#ccb500;fill-opacity:1;stroke:#6b4e0f;stroke-width:0.268475;stroke-miterlimit:0.6;stroke-dasharray:none"
         d="m 91.308049,23.635706 2.169297,-2.626597 34.014574,0.570999 v 46.593541 l -1.56189,1.941396 -0.0868,-46.365139 1.47512,-2.055598 -1.5619,1.941398 z"
         id="path1348" /><rect
         style="opacity:1;fill:#ccb500;fill-opacity:1;stroke:#6b4e0f;stroke-width:0.139587;stroke-miterlimit:0.6;stroke-dasharray:none"
         id="rect1354"
         width="9.5911322"
         height="45.461002"
         x="154.50023"
         y="23.368349"
         transform="matrix(0.99994408,0.0105755,-7.1868033e-4,0.99999974,0,0)"
         inkscape:transform-center-x="4.3415106"
         inkscape:transform-center-y="-4.0917918" /><path
         style="opacity:1;fill:#ccb500;fill-opacity:1;stroke:#6b4e0f;stroke-width:0.139585;stroke-miterlimit:0.6;stroke-dasharray:none"
         d="m 154.45074,24.891125 0.60579,-2.543868 9.46941,0.654558 -0.0325,45.239234 -0.43618,1.880364 0.009,-45.017721 0.41213,-1.991506 -0.4362,1.880366 z"
         id="path1356"
         inkscape:transform-center-x="4.1069407"
         inkscape:transform-center-y="-5.6409269" /><rect
         style="opacity:1;fill:#ccb500;fill-opacity:1;stroke:#6b4e0f;stroke-width:0.268475;stroke-miterlimit:0.6;stroke-dasharray:none"
         id="rect1362"
         width="34.448437"
         height="46.821938"
         x="-61.995205"
         y="92.651314"
         transform="scale(-1,1)" /><path
         style="opacity:1;fill:#ccb500;fill-opacity:1;stroke:#6b4e0f;stroke-width:0.268475;stroke-miterlimit:0.6;stroke-dasharray:none"
         d="m 62.081978,92.851808 -2.169297,-2.6266 -34.014574,0.571 v 46.593542 l 1.56189,1.9414 0.0868,-46.365142 -1.47512,-2.0556 1.5619,1.9414 z"
         id="path1364" /><rect
         style="opacity:1;fill:#ccb500;fill-opacity:1;stroke:#6b4e0f;stroke-width:0.263339;stroke-miterlimit:0.6;stroke-dasharray:none"
         id="rect1370"
         width="34.002995"
         height="45.637833"
         x="87.0242"
         y="94.190765" /><path
         style="opacity:1;fill:#ccb500;fill-opacity:1;stroke:#6b4e0f;stroke-width:0.263339;stroke-miterlimit:0.6;stroke-dasharray:none"
         d="m 86.938552,94.079459 2.141247,-2.560171 33.574741,0.556558 v 45.415214 l -1.54169,1.89231 -0.0857,-45.192599 1.45605,-2.003612 -1.54169,1.8923 z"
         id="path1372" /></g><path
       style="opacity:0.996923;fill:#000000;fill-opacity:1;stroke:#6b4e0f;stroke-width:0;stroke-miterlimit:0.6"
       d="m 42.380339,49.721817 -2.113455,17.686282 7.563945,-0.111234 -2.113454,-18.019987 9.45493,0.889876 v -5.228022 l -8.453821,1.112346 c 2.001245,-2.485538 3.730547,-5.902925 4.338145,-9.6774 0.682652,-4.240716 -0.935064,-9.211306 -6.896539,-9.566166 -5.223694,-0.310944 -7.661615,4.408844 -7.230239,9.232463 0.343251,3.838214 2.183586,8.099352 4.560612,9.899869 l -8.787524,-0.889875 v 4.783081 z"
       id="path358"
       sodipodi:nodetypes="cccccccssscccc" /><path
       style="opacity:1;fill:#ccb500;stroke:#6b4e0f;stroke-width:0;stroke-miterlimit:0.6"
       d="m 43.826387,45.049969 c -1.789577,-2.254751 -3.882513,-5.512812 -4.393763,-8.175737 -0.461464,-2.403611 0.07012,-6.284748 4.393763,-7.06339 2.719893,0.557359 4.659831,2.590718 4.504999,6.618452 -0.04905,1.275912 -0.24482,3.440509 -4.504999,8.620675 z"
       id="path1010"
       sodipodi:nodetypes="cscsc" /><path
       style="opacity:0.996923;fill:#000000;fill-opacity:1;stroke:#6b4e0f;stroke-width:0;stroke-miterlimit:0.6"
       d="m 109.29936,49.520986 -1.28539,17.952219 4.60032,-0.112907 -1.28539,-18.290941 5.75039,0.903257 v -5.306633 l -5.14151,1.129072 c 1.21713,-2.522911 2.26887,-5.991684 2.6384,-9.822912 0.41518,-4.304481 -0.5687,-9.349812 -4.1944,-9.710007 -3.177,-0.315619 -4.65971,4.475136 -4.39735,9.371285 0.20876,3.895927 1.32802,8.221137 2.77371,10.048727 l -5.34448,-0.903256 v 4.855001 z"
       id="path1350"
       sodipodi:nodetypes="cccccccssscccc"
       inkscape:transform-center-x="5.0600037"
       inkscape:transform-center-y="-0.94408896" /><path
       style="opacity:1;fill:#ccb500;stroke:#6b4e0f;stroke-width:0;stroke-miterlimit:0.6"
       d="m 110.73046,44.519036 c -1.08465,-2.291579 -2.35317,-5.602855 -2.66303,-8.309275 -0.27969,-2.442871 0.0425,-6.3874 2.66303,-7.17876 1.6485,0.566463 2.82428,2.633034 2.73044,6.726555 -0.0296,1.296752 -0.14839,3.496703 -2.73044,8.76148 z"
       id="path1352"
       sodipodi:nodetypes="cscsc" /><path
       style="opacity:1;fill:#ccb500;stroke:#6b4e0f;stroke-width:0;stroke-miterlimit:0.6"
       d="m 159.14657,45.675597 c -0.38703,-2.251682 -0.83925,-5.504187 -0.94834,-8.159804 -0.0985,-2.397024 0.0203,-6.264593 0.95928,-7.030823 0.59029,0.56183 1.01014,2.593178 0.97363,6.607737 -0.0113,1.271741 -0.0555,3.428996 -0.98457,8.58289 z"
       id="path1360"
       sodipodi:nodetypes="cscsc"
       inkscape:transform-center-x="4.4437677"
       inkscape:transform-center-y="-13.794977" /><path
       style="opacity:0.996923;fill:#000000;fill-opacity:1;stroke:#6b4e0f;stroke-width:0;stroke-miterlimit:0.6"
       d="m 44.090667,118.73709 1.28539,17.95222 -4.60032,-0.11291 1.28539,-18.29094 -5.75039,0.90326 v -5.30664 l 5.14151,1.12907 c -1.21713,-2.52291 -2.26887,-5.99168 -2.6384,-9.82291 -0.41518,-4.30448 0.5687,-9.349812 4.1944,-9.710012 3.177,-0.31561 4.65971,4.47514 4.39735,9.371292 -0.20876,3.89593 -1.32802,8.22114 -2.77371,10.04873 l 5.34448,-0.90326 v 4.855 z"
       id="path1366"
       sodipodi:nodetypes="cccccccssscccc"
       inkscape:transform-center-x="-5.0600039"
       inkscape:transform-center-y="-0.94408975" /><path
       style="opacity:1;fill:#ccb500;stroke:#6b4e0f;stroke-width:0;stroke-miterlimit:0.6"
       d="m 42.659567,113.73514 c 1.08465,-2.29158 2.35317,-5.60286 2.66303,-8.30928 0.27969,-2.44287 -0.0425,-6.387402 -2.66303,-7.178762 -1.6485,0.56646 -2.82428,2.633042 -2.73044,6.726562 0.0296,1.29675 0.14839,3.4967 2.73044,8.76148 z"
       id="path1368"
       sodipodi:nodetypes="cscsc" /><path
       style="opacity:0.996923;fill:#000000;fill-opacity:1;stroke:#6b4e0f;stroke-width:0;stroke-miterlimit:0.6"
       d="m 102.52682,119.56987 -1.62734,17.69857 5.82418,-0.11131 -1.62734,-18.03251 7.28024,0.8905 v -5.23166 l -6.50939,1.11311 c 1.54094,-2.48726 2.8725,-5.90702 3.34034,-9.68412 0.52564,-4.24366 -0.71999,-9.217712 -5.31029,-9.572819 -4.022208,-0.31116 -5.899388,4.411909 -5.567228,9.238889 0.2643,3.84087 1.681338,8.10498 3.511638,9.90675 l -6.766338,-0.8905 v 4.7864 z"
       id="path1374"
       sodipodi:nodetypes="cccccccssscccc" /><path
       style="opacity:1;fill:#ccb500;stroke:#6b4e0f;stroke-width:0;stroke-miterlimit:0.6"
       d="m 103.64027,114.89477 c -1.37796,-2.25632 -2.98951,-5.51664 -3.38317,-8.18141 -0.355328,-2.40529 0.054,-6.28913 3.38317,-7.068312 2.0943,0.557742 3.58804,2.592522 3.46882,6.623062 -0.0378,1.27679 -0.18851,3.4429 -3.46882,8.62666 z"
       id="path1376"
       sodipodi:nodetypes="cscsc" /></g></svg>
