<?xml version="1.0" encoding="UTF-8" standalone="no"?>
<!-- Created with Inkscape (http://www.inkscape.org/) -->

<svg
   width="210mm"
   height="297mm"
   viewBox="0 0 210 297"
   version="1.1"
   id="svg5"
   xml:space="preserve"
   inkscape:version="1.2.1 (9c6d41e410, 2022-07-14)"
   sodipodi:docname="Thoth.svg"
   inkscape:export-filename="thoth.png"
   inkscape:export-xdpi="96"
   inkscape:export-ydpi="96"
   xmlns:inkscape="http://www.inkscape.org/namespaces/inkscape"
   xmlns:sodipodi="http://sodipodi.sourceforge.net/DTD/sodipodi-0.dtd"
   xmlns="http://www.w3.org/2000/svg"
   xmlns:svg="http://www.w3.org/2000/svg"><sodipodi:namedview
     id="namedview7"
     pagecolor="#ffffff"
     bordercolor="#000000"
     borderopacity="0.25"
     inkscape:showpageshadow="2"
     inkscape:pageopacity="0.0"
     inkscape:pagecheckerboard="0"
     inkscape:deskcolor="#d1d1d1"
     inkscape:document-units="mm"
     showgrid="false"
     inkscape:zoom="0.5946522"
     inkscape:cx="132.85077"
     inkscape:cy="629.77989"
     inkscape:window-width="1440"
     inkscape:window-height="830"
     inkscape:window-x="-6"
     inkscape:window-y="-6"
     inkscape:window-maximized="1"
     inkscape:current-layer="svg5" /><defs
     id="defs2" /><g
     inkscape:groupmode="layer"
     id="layer5"
     inkscape:label="Braccio sinistro"
     transform="translate(36.92985,2.2246898)"><path
       style="opacity:1;fill:#ffccaa;stroke:#000000;stroke-width:0.865;stroke-linecap:round;stroke-dasharray:none"
       d="m 123.42889,156.40795 c 3.88123,3.83707 4.00979,4.73851 8.08743,5.48356 5.02564,-0.42218 12.62508,-0.61402 16.65915,-2.08489 -1.05911,-2.45003 -1.62164,-4.90006 -0.1855,-7.35009 0.55637,-0.1747 0.5123,0.0205 -3.96912,-0.0541 -4.42721,-0.0737 -5.78158,-0.14014 -8.64104,0.77889 -1.94106,0.62385 -2.72517,-3.27618 -4.31445,-3.59725 -0.16347,-0.11818 -3.92488,0.98854 -7.87244,5.5654 -0.60976,0.70697 0.23597,1.25848 0.23597,1.25848 z"
       id="path4731"
       sodipodi:nodetypes="ccccsscsc" /><path
       style="opacity:1;fill:#ffccaa;stroke:#000000;stroke-width:0.865;stroke-linecap:round;stroke-dasharray:none"
       d="m 112.37852,139.61001 c -0.6803,2.09777 -0.79936,3.20838 2.08141,6.28004 1.73673,1.92929 2.48439,4.17193 4.99786,5.3778 3.15151,-3.57398 6.31887,-5.70352 8.55552,-6.45862 -0.44975,-2.0294 -2.83309,-3.83362 -4.87745,-6.70581 -1.51213,-0.88034 -3.29913,-2.30451 -5.02273,-2.61834 -2.51968,0.29397 -5.00823,1.88508 -5.73461,4.12493 z"
       id="path4756"
       sodipodi:nodetypes="accccca"
       inkscape:transform-center-x="-2.9710899"
       inkscape:transform-center-y="1.7110314" /><path
       style="opacity:1;fill:#ffccaa;fill-opacity:1;stroke:#000000;stroke-width:0.865;stroke-linecap:round;stroke-dasharray:none"
       d="m 154.00583,159.19703 3.14618,1.5731 4.40466,1.10116 0.94386,-0.94386 0.15731,-2.98887 -4.40466,0.78654 4.24735,-1.41578 0.31462,-2.35964 -0.31462,-0.78655 -2.51695,-1.57309 3.61811,1.57309 2.35964,0.31462 1.41579,-1.10116 -0.31462,-1.73041 -2.20233,-0.78654 -3.14619,-1.57309 -0.94385,-0.31462 -2.51695,0.47192 -5.0339,3.46081 z"
       id="path4765" /><path
       style="opacity:1;fill:#ffccaa;fill-opacity:1;stroke:#000000;stroke-width:0.865;stroke-linecap:round;stroke-dasharray:none"
       d="m 164.38824,149.91578 2.83157,-1.10116 2.20233,1.25847 0.15731,2.67426 -1.88772,-0.47193 2.04503,1.73041 v 1.25847 l -0.78655,0.78655 0.47193,1.57309 -0.31462,1.10116 -1.57309,0.94386 0.31462,1.7304 -1.25848,0.78655 -2.35964,0.15731 -1.88771,-0.78655 0.78654,-3.14619 0.78655,0.15732 -0.62923,-0.94386 v -1.57309 l 0.78654,-0.47193 -0.78654,-0.94386 2.35963,0.15731 1.5731,-0.78654 0.15731,-2.51695 z"
       id="path4773" /><path
       style="opacity:1;fill:#00ffff;stroke:#000000;stroke-width:0.865;stroke-linecap:round;stroke-dasharray:none"
       d="m 164.07362,155.57892 4.87659,0.47193 z"
       id="path4775" /><path
       style="opacity:1;fill:#ffccaa;stroke:#000000;stroke-width:0.665001;stroke-linecap:round;stroke-dasharray:none"
       d="m 163.91631,158.88241 3.61812,0.94386 z"
       id="path4777" /><path
       style="opacity:1;fill:#c6a186;fill-opacity:1;stroke:#000000;stroke-width:0;stroke-linecap:round;stroke-dasharray:none"
       d="m 114.99311,145.35381 c -0.26425,0.22467 1.362,3.62847 4.24736,5.66314 l 6.0564,-5.26987 c 0,0 -2.2094,-0.12538 -3.22484,0.23597 -1.20605,0.42918 -1.86607,2.21084 -3.14618,2.20233 -1.61532,-0.0107 -3.93274,-2.83157 -3.93274,-2.83157 z"
       id="path35913"
       sodipodi:nodetypes="cccaac" /><path
       style="opacity:0.673333;fill:#c6a186;fill-opacity:1;stroke:#000000;stroke-width:0;stroke-linecap:round;stroke-dasharray:none"
       d="m 129.16445,150.75235 c -2.88335,0.76098 -4.41729,3.07081 -6.06991,5.06253 1.61803,1.64454 4.55014,5.42712 8.18009,5.74179 5.15228,0.0564 12.56455,-0.74227 16.51748,-1.96637 l -0.62924,-1.0225 c 0,0 -11.03213,2.78516 -16.28152,1.33712 -1.95675,-0.53976 -4.52488,-1.55576 -4.95523,-3.53945 -0.45797,-2.11098 3.23833,-5.61312 3.23833,-5.61312 z"
       id="path35915"
       sodipodi:nodetypes="cccccaac" /><path
       style="opacity:0.498462;fill:#c6a186;fill-opacity:1;stroke:#000000;stroke-width:0;stroke-linecap:round;stroke-dasharray:none"
       d="m 153.53389,153.21927 0.94386,5.82045 c -0.18263,0.42337 1.95658,0.9537 3.14619,1.5731 l 4.24735,0.94385 c 0.20126,-0.85313 0.55223,-1.45674 0.15731,-3.30349 l -3.61811,1.10116 -0.31462,-1.14724 c 1.32223,0.0694 2.25577,-0.55543 3.30349,-0.89778 0.53029,-0.0912 1.11877,-0.1339 0.78655,-0.94386 0.38763,-0.62025 0.31642,-1.33227 -0.0365,-2.10064 l -2.14672,-1.14723 0.0191,-0.64669 3.89456,1.37762 h 1.5731 l 1.41578,-0.47193 -7.23623,-2.20233 h -1.25847 l -0.62924,0.94385 1.7304,3.3035 -0.15731,1.25847 -1.41578,0.47193 -1.41578,-0.62923 z"
       id="path35917"
       sodipodi:nodetypes="ccccccccccccccccccccccc" /><g
       id="g61520"
       transform="matrix(0.04825764,0.57841867,-0.85315223,0.08208155,374.04357,85.262511)"
       inkscape:transform-center-x="-0.37846778"
       inkscape:transform-center-y="1.2397739"><path
         style="opacity:1;fill:#d1a943;fill-opacity:0.823529;stroke:#000000;stroke-width:0.664971;stroke-linecap:round;stroke-dasharray:none"
         d="m 75.980402,262.86387 0.235965,5.89909 c 5.138771,2.51086 10.828123,1.95617 15.966894,0.0787 l 0.314621,-5.89909 c -5.292554,0.68366 -11.015231,0.91521 -16.51748,-0.0787 z"
         id="path61510"
         sodipodi:nodetypes="cccccc"
         inkscape:label="Parte gialla" /><path
         style="opacity:1;fill:#d6a210;fill-opacity:1;stroke:#000000;stroke-width:0;stroke-linecap:butt;stroke-dasharray:none;paint-order:normal"
         d="m 86.36759,263.86335 -0.03933,6.06314 c 1.377187,-0.15809 2.736399,-0.35213 3.967291,-0.80281 v -5.57495 z"
         id="path61512"
         sodipodi:nodetypes="ccccc" /><path
         style="opacity:1;fill:#d6a210;fill-opacity:1;stroke:#000000;stroke-width:0;stroke-linecap:round;stroke-dasharray:none"
         d="m 81.250265,263.80196 0.157308,6.14082 -2.08237,-0.38258 -0.305078,-5.85894 z"
         id="path61514"
         sodipodi:nodetypes="ccccc" /><path
         style="opacity:1;fill:#bd9631;fill-opacity:0.980392;stroke:#000000;stroke-width:0;stroke-linecap:round;stroke-dasharray:none"
         d="m 76.313287,263.30799 0.217693,5.21903 1.207628,0.51801 -0.05562,-5.60276 z"
         id="path61516"
         sodipodi:nodetypes="ccccc" /><path
         style="opacity:1;fill:#b8922d;fill-opacity:0.823529;stroke:#000000;stroke-width:0;stroke-linecap:round;stroke-miterlimit:1.4;stroke-dasharray:none"
         d="m 81.065145,263.77516 0.342428,6.21847 1.927039,0.10651 -0.353945,-6.21372 z"
         id="path61518"
         sodipodi:nodetypes="ccccc" /></g><g
       id="g61532"
       transform="matrix(-0.60376912,0.44377518,-0.51254139,-0.64758536,312.43875,285.50347)"><path
         style="opacity:1;fill:#d1a943;fill-opacity:0.823529;stroke:#000000;stroke-width:0.665001;stroke-linecap:round;stroke-dasharray:none"
         d="m 75.980402,262.86387 0.235965,5.89909 c 5.138771,2.51086 10.828123,1.95617 15.966894,0.0787 l 0.314621,-5.89909 c -5.292554,0.68366 -11.015231,0.91521 -16.51748,-0.0787 z"
         id="path61522"
         sodipodi:nodetypes="ccccc"
         inkscape:label="Parte gialla" /><path
         style="opacity:1;fill:#d6a210;fill-opacity:1;stroke:#000000;stroke-width:0;stroke-linecap:butt;stroke-dasharray:none;paint-order:normal"
         d="m 86.36759,263.86335 -0.03933,6.06314 c 1.377187,-0.15809 2.736399,-0.35213 3.967291,-0.80281 v -5.57495 z"
         id="path61524"
         sodipodi:nodetypes="ccccc" /><path
         style="opacity:1;fill:#d6a210;fill-opacity:1;stroke:#000000;stroke-width:0;stroke-linecap:round;stroke-dasharray:none"
         d="m 81.250265,263.80196 0.157308,6.14082 -2.08237,-0.38258 -0.305078,-5.85894 z"
         id="path61526"
         sodipodi:nodetypes="ccccc" /><path
         style="opacity:1;fill:#bd9631;fill-opacity:0.980392;stroke:#000000;stroke-width:0;stroke-linecap:round;stroke-dasharray:none"
         d="m 76.313287,263.30799 0.217693,5.21903 1.207628,0.51801 -0.05562,-5.60276 z"
         id="path61528"
         sodipodi:nodetypes="ccccc" /><path
         style="opacity:1;fill:#b8922d;fill-opacity:0.823529;stroke:#000000;stroke-width:0;stroke-linecap:round;stroke-miterlimit:1.4;stroke-dasharray:none"
         d="m 81.065145,263.77516 0.342428,6.21847 1.927039,0.10651 -0.353945,-6.21372 z"
         id="path61530"
         sodipodi:nodetypes="ccccc" /></g><g
       id="g2113"
       transform="matrix(-0.8769812,0.08834813,-0.04368096,-1.7737624,398.14368,481.2633)"><path
         style="fill:#d6a210;fill-opacity:1;stroke:#000000;stroke-width:0.4;stroke-miterlimit:0.6;stroke-dasharray:none;stroke-opacity:1"
         d="m 252.91462,199.98107 0.69461,0.0983 c -0.49613,0.25168 -3.2801,16.82246 -3.4879,17.2989 -0.71887,1.6482 7.82136,3.343 12.39439,1.97338 1.11639,-0.33436 1.83478,-1.0987 1.32309,-3.33926 l -0.2741,-15.75452 -6.80482,-0.76296 z"
         id="path2109"
         sodipodi:nodetypes="ccsscccc" /><g
         id="g2228"
         transform="translate(-0.92739761,3.3402042)"><path
           sodipodi:type="spiral"
           style="fill:#d6a210;fill-opacity:1;fill-rule:evenodd;stroke:#000000;stroke-width:2.15514;stroke-dasharray:none"
           id="path2111"
           sodipodi:cx="716.38513"
           sodipodi:cy="472.54514"
           sodipodi:expansion="1"
           sodipodi:revolution="2.9282498"
           sodipodi:radius="30.099205"
           sodipodi:argument="-17.730213"
           sodipodi:t0="0"
           d="m 716.38513,472.54514 c 0.67453,1.3912 -1.54253,1.59561 -2.31227,1.1211 -2.08596,-1.2859 -1.44495,-4.3068 0.0701,-5.74566 2.71,-2.57377 7.04905,-1.48005 9.17904,1.26124 3.12584,4.02296 1.5298,9.83342 -2.45241,12.61242 -5.30765,3.70397 -12.63337,1.58658 -16.0458,-3.64358 -4.29418,-6.58163 -1.64718,-15.44092 4.83475,-19.47918 7.8505,-4.89087 18.25277,-1.71002 22.91256,6.02592 5.4914,9.11655 1.77427,21.06731 -7.21709,26.34594 -10.38089,6.09439 -23.88364,1.83946 -29.77932,-8.40826 -6.69904,-11.64412 -1.9053,-26.70124 9.59943,-33.2127 12.90658,-7.30488 29.51975,-1.97162 36.64608,10.7906 5.42069,9.70768 4.564,21.94309 -1.81504,30.98848"
           transform="matrix(0.26035523,0.00744612,0.00506433,0.07565118,68.294357,173.02554)" /><ellipse
           style="opacity:0.461538;fill:#7d5d0d;fill-opacity:1;stroke:#000000;stroke-width:0.336049;stroke-miterlimit:0.6;stroke-dasharray:none;stroke-opacity:1"
           id="path2167"
           cx="-268.35052"
           cy="-201.18257"
           transform="rotate(-177.14855)"
           rx="6.9818726"
           ry="2.0500476" /><path
           style="opacity:0.461538;fill:#7d5d0d;fill-opacity:1;stroke:#000000;stroke-width:0;stroke-miterlimit:0.6;stroke-dasharray:none;stroke-opacity:1"
           d="m 264.56411,212.57136 0.0767,1.0072 c -4.7309,-1.78154 -9.20381,-1.96446 -13.41778,-0.5429 l 2.95479,-16.03227 2.95679,-0.7934 c -2.05145,4.38468 -4.77005,9.74729 -4.57156,15.38735 2.59028,-0.50494 5.11867,-1.39769 12.0011,0.97402 z"
           id="path2223"
           sodipodi:nodetypes="ccccccc" /></g><path
         style="fill:#d6a210;fill-opacity:1;stroke:#000000;stroke-width:0.4;stroke-miterlimit:0.6;stroke-dasharray:none;stroke-opacity:1"
         d="m 264.55238,193.67216 0.17205,0.39071 c 0.50973,-0.24489 2.57886,-18.15197 2.81123,-18.62474 0.80387,-1.6355 -7.66376,-3.43374 -12.31377,-2.12459 -1.13518,0.31959 -1.8936,1.07321 -1.49509,3.3152 l 1.47508,15.49248 4.7748,1.07702 z"
         id="path2238"
         sodipodi:nodetypes="ccsscccc" /><g
         id="g2246"
         transform="matrix(-1.0015958,-0.01255515,0.05087569,-0.99776898,507.86795,391.75991)"><path
           sodipodi:type="spiral"
           style="fill:#d6a210;fill-opacity:1;fill-rule:evenodd;stroke:#000000;stroke-width:2.15514;stroke-dasharray:none"
           id="path2240"
           sodipodi:cx="716.38513"
           sodipodi:cy="472.54514"
           sodipodi:expansion="1"
           sodipodi:revolution="2.9282498"
           sodipodi:radius="30.099205"
           sodipodi:argument="-17.730213"
           sodipodi:t0="0"
           d="m 716.38513,472.54514 c 0.67453,1.3912 -1.54253,1.59561 -2.31227,1.1211 -2.08596,-1.2859 -1.44495,-4.3068 0.0701,-5.74566 2.71,-2.57377 7.04905,-1.48005 9.17904,1.26124 3.12584,4.02296 1.5298,9.83342 -2.45241,12.61242 -5.30765,3.70397 -12.63337,1.58658 -16.0458,-3.64358 -4.29418,-6.58163 -1.64718,-15.44092 4.83475,-19.47918 7.8505,-4.89087 18.25277,-1.71002 22.91256,6.02592 5.4914,9.11655 1.77427,21.06731 -7.21709,26.34594 -10.38089,6.09439 -23.88364,1.83946 -29.77932,-8.40826 -6.69904,-11.64412 -1.9053,-26.70124 9.59943,-33.2127 12.90658,-7.30488 29.51975,-1.97162 36.64608,10.7906 5.42069,9.70768 4.564,21.94309 -1.81504,30.98848"
           transform="matrix(0.26035523,0.00744612,0.00506433,0.07565118,68.294357,173.02554)" /><ellipse
           style="opacity:0.461538;fill:#7d5d0d;fill-opacity:1;stroke:#000000;stroke-width:0.336049;stroke-miterlimit:0.6;stroke-dasharray:none;stroke-opacity:1"
           id="ellipse2242"
           cx="-268.35052"
           cy="-201.18257"
           transform="rotate(-177.14855)"
           rx="6.9818726"
           ry="2.0500476" /><path
           style="opacity:0.461538;fill:#7d5d0d;fill-opacity:1;stroke:#000000;stroke-width:0;stroke-miterlimit:0.6;stroke-dasharray:none;stroke-opacity:1"
           d="m 264.56411,212.57136 0.0767,1.0072 c -4.7309,-1.78154 -9.20381,-1.96446 -13.41778,-0.5429 l 0.98396,-17.79036 4.92731,0.6987 c -2.05145,4.38468 -4.76974,10.01328 -4.57125,15.65334 2.59028,-0.50494 5.11867,-1.39769 12.0011,0.97402 z"
           id="path2244"
           sodipodi:nodetypes="cccccccc" /></g></g></g><g
     inkscape:groupmode="layer"
     id="layer3"
     inkscape:label="Gamba2"
     transform="translate(-64.516003,-0.44493798)"><path
       style="opacity:1;fill:#ffccaa;stroke:#000000;stroke-width:0.865;stroke-dasharray:none"
       d="m 80.611748,217.72482 c 0.442283,3.45311 1.540403,11.42076 -0.248608,15.91313 -1.974153,3.46621 -3.232034,11.12845 -3.798982,15.46825 -0.238021,4.93485 -0.649064,11.40343 0.251662,13.49142 4.771318,1.22821 10.018147,0.42701 14.861729,0.3556 1.358281,-8.47277 2.991645,-16.8159 3.06525,-26.5961 l -3.370169,3.17695 5.298163,-5.71387 c 1.449189,-1.96018 2.69741,-8.75277 4.363767,-14.61853 -9.940506,-0.30197 -14.958398,-0.79353 -20.422812,-1.47685 z"
       id="path495"
       sodipodi:nodetypes="cccccccccc"
       inkscape:label="Contorno" /><path
       style="opacity:1;fill:#ffccaa;fill-opacity:0.980392;stroke:#000000;stroke-width:0.865;stroke-linecap:round;stroke-dasharray:none"
       d="m 77.868114,278.20152 c 0.203625,2.95983 0.03185,6.17681 1.415784,8.80933 0.371047,0.70581 1.016939,1.29564 1.730401,1.65174 2.734306,1.36474 5.989556,1.4561 9.045286,1.49445 3.41465,0.0429 7.12458,0.76912 10.146455,-1.41583 1.6681,-1.86237 1.52362,-4.47082 0.47193,-6.29236 -1.571369,-2.72163 -5.900622,-3.02911 -8.494704,-4.09 -0.689683,-1.08405 -0.691777,-7.42782 -0.629233,-8.88802 -3.619778,1.07328 -8.06389,1.79416 -14.157847,0.39323 z"
       id="path3254"
       sodipodi:nodetypes="caaacacccc"
       inkscape:label="Piede" /><path
       style="opacity:1;fill:#ddb292;fill-opacity:1;stroke:#000000;stroke-width:0;stroke-linecap:round;stroke-dasharray:none"
       d="m 99.419491,221.96345 1.101169,-2.04502 -19.34905,-1.7304 0.786548,12.42744 -1.887712,5.34851 c -1.535517,3.04041 -1.734412,5.6738 -2.51695,8.3374 -0.462071,3.259 -0.739719,6.38627 -0.471929,9.12394 l -0.157308,6.7643 v 2.20233 h 3.618113 l 1.101167,-18.87712 c 0,0 -0.943529,-4.18807 0.786546,-4.87659 1.461599,-0.58168 1.10597,4.0293 3.932732,2.20233 1.368471,0.31776 -1.657329,-4.82695 -1.258475,-8.33739 v -5.66314 c 0,0 -0.349376,-3.08199 0,-4.56197 0.107755,-0.45646 0.629237,-1.25847 0.629237,-1.25847 l -0.629237,1.10116 3.146188,-0.31462 h 4.090042 z"
       id="path8141"
       sodipodi:nodetypes="cccccccccccscccaccccc" /><path
       style="opacity:1;fill:#775338;fill-opacity:1;stroke:#000000;stroke-width:0.865;stroke-linecap:round;stroke-dasharray:none"
       d="m 78.340042,277.65094 c 3.932932,1.9567 8.168126,3.55157 13.331965,-0.23596 0.245894,0.18531 -0.02165,0.30836 0.629238,1.10117 5.064478,1.52443 4.256703,1.18301 6.095735,1.88771 0.815469,0.5786 1.408918,1.10926 1.88771,1.8484 0.49384,0.76234 0.91156,1.64852 0.94386,2.55626 0.0301,0.84579 -0.29644,1.69872 -0.70789,2.4383 -0.34296,0.61648 -0.801774,1.22572 -1.415788,1.57308 -1.490278,0.84308 -3.415009,1.39581 -4.876588,1.41579 -3.149707,0.0431 -5.325962,-0.42941 -7.983449,-0.23596 -4.38847,0.31946 -6.397274,-0.94394 -7.747483,-5.58448 z"
       id="path48333"
       sodipodi:nodetypes="ccccaaassscc" /><path
       style="opacity:0.346667;fill:#775338;fill-opacity:1;stroke:#000000;stroke-width:1.165;stroke-linecap:round;stroke-dasharray:none"
       d="m 79.198956,278.97611 v 4.2269 1.55729 l 1.001109,2.0022 1.334815,1.33483 2.224691,0.77864 11.195355,0.23481 3.950462,-0.88196 2.057362,-2.67081 c -3.726519,3.31693 -9.403018,2.81193 -14.749273,2.74271 -2.086077,-0.0414 -4.396436,0.53798 -5.983147,-3.89786 l -0.02468,-4.80542 z"
       id="path48392"
       sodipodi:nodetypes="ccccccccccccc" /><path
       style="opacity:0.346667;fill:#775338;fill-opacity:1;stroke:#000000;stroke-width:0;stroke-linecap:round;stroke-dasharray:none"
       d="m 79.588273,270.63351 c -0.707181,1.19705 -0.801858,2.59853 -0.333707,4.28252 0.126455,1.5828 1.445425,2.80517 2.280301,3.5595 0.07725,0.24656 1.92293,0.85621 3.893226,0.72303 3.21369,1.10024 4.801756,-1.64983 6.229116,-2.33592 -0.08267,0.11565 -6.643447,2.64095 -9.733017,-0.77865 -1.064071,-1.17773 -0.834251,-4.94994 -0.834251,-4.94994 z"
       id="path48418"
       sodipodi:nodetypes="cccccscc" /><path
       style="opacity:0.346667;fill:#775338;fill-opacity:1;stroke:#000000;stroke-width:1.165;stroke-linecap:round;stroke-dasharray:none"
       d="m 78.587163,271.07844 c -0.152848,3.09319 -0.03256,6.4278 0.38932,5.56172 l 1.89099,1.94662 c 0,0 -1.832483,-2.13223 -2.113456,-3.39267 -0.25561,-1.14666 -1.00104,-4.47046 0.500556,-3.9488 z"
       id="path48407"
       sodipodi:nodetypes="cccscc" /><g
       id="g61490"><path
         style="opacity:1;fill:#00ffff;stroke:#000000;stroke-width:0.665;stroke-dasharray:none"
         d="m 85.79437,231.70703 c -0.77007,2.63671 -0.169669,5.83312 0.746062,7.44712 -0.932966,-1.65217 -1.476467,-1.77521 -0.746062,-7.44712 z"
         id="path1052"
         sodipodi:nodetypes="ccc"
         inkscape:label="Rotula" /><path
         style="opacity:1;fill:#d1a943;fill-opacity:0.823529;stroke:#000000;stroke-width:0.665001;stroke-linecap:round;stroke-dasharray:none"
         d="m 75.980402,262.86387 0.235965,5.89909 c 5.138771,2.51086 10.828123,1.95617 15.966894,0.0787 l 0.314621,-5.89909 c -5.292554,0.68366 -11.015231,0.91521 -16.51748,-0.0787 z"
         id="path3249"
         sodipodi:nodetypes="cccccc"
         inkscape:label="Parte gialla" /><path
         style="opacity:1;fill:#d6a210;fill-opacity:1;stroke:#000000;stroke-width:0;stroke-linecap:butt;stroke-dasharray:none;paint-order:normal"
         d="m 86.36759,263.86335 -0.03933,6.06314 c 1.377187,-0.15809 2.736399,-0.35213 3.967291,-0.80281 v -5.57495 z"
         id="path48424"
         sodipodi:nodetypes="ccccc" /><path
         style="opacity:1;fill:#d6a210;fill-opacity:1;stroke:#000000;stroke-width:0;stroke-linecap:round;stroke-dasharray:none"
         d="m 81.250265,263.80196 0.157308,6.14082 -2.08237,-0.38258 -0.305078,-5.85894 z"
         id="path48426"
         sodipodi:nodetypes="ccccc" /><path
         style="opacity:1;fill:#bd9631;fill-opacity:0.980392;stroke:#000000;stroke-width:0;stroke-linecap:round;stroke-dasharray:none"
         d="m 76.313287,263.30799 0.217693,5.21903 1.207628,0.51801 -0.05562,-5.60276 z"
         id="path57707"
         sodipodi:nodetypes="ccccc" /><path
         style="opacity:1;fill:#b8922d;fill-opacity:0.823529;stroke:#000000;stroke-width:0;stroke-linecap:round;stroke-miterlimit:1.4;stroke-dasharray:none"
         d="m 81.065145,263.77516 0.342428,6.21847 1.927039,0.10651 -0.353945,-6.21372 z"
         id="path57709"
         sodipodi:nodetypes="ccccc" /></g></g><g
     inkscape:groupmode="layer"
     id="layer6"
     inkscape:label="Busto"
     transform="translate(-29.365905,10.233573)"><path
       style="opacity:1;fill:#ffccaa;stroke:#000000;stroke-width:0.665001;stroke-linecap:round;stroke-dasharray:none"
       d="m 73.620761,137.48834 6.921611,12.58475 2.51695,8.18009 c 2.482072,5.53517 3.494025,7.15002 3.460805,5.97775 0.201308,3.16306 0.54165,6.04806 1.573091,7.55085 10.898486,3.33105 20.563352,2.96125 28.944912,-1.25848 l -0.62923,-15.73093 0.62923,-8.18008 1.25848,-14.15785 c -13.50272,-1.70997 -27.818706,-0.80357 -44.675849,5.0339 z"
       id="path4784"
       sodipodi:nodetypes="cccccccccc" /><path
       style="opacity:1;fill:#00ffff;stroke:#000000;stroke-width:0.665001;stroke-linecap:round;stroke-dasharray:none"
       d="m 103.19491,148.81461 c 2.32795,4.94811 1.62137,6.06844 1.5731,7.86547 1.13442,-2.62182 -0.25879,-5.24365 -1.5731,-7.86547 z"
       id="path4790"
       sodipodi:nodetypes="ccc" /><path
       style="opacity:1;fill:#00ffff;stroke:#000000;stroke-width:0.665001;stroke-linecap:round;stroke-dasharray:none"
       d="m 115.15042,154.16313 c -2.06074,1.31354 -3.87935,2.9903 -7.55084,1.88772 3.79589,1.92865 5.28846,-0.74935 7.55084,-1.88772 z"
       id="path4792"
       sodipodi:nodetypes="ccc" /><path
       style="opacity:1;fill:#ceae45;fill-opacity:0.980392;stroke:#000000;stroke-width:0.665001;stroke-linecap:round;stroke-dasharray:none"
       d="m 85.261653,171.46716 0.629237,5.66314 c 11.221397,3.09968 22.44279,3.49332 33.66419,-0.94386 l -0.62923,-5.97776 c -9.91989,4.32401 -21.227971,4.48347 -33.664197,1.25848 z"
       id="path4796"
       sodipodi:nodetypes="ccccc" /><path
       style="opacity:1;fill:#ff7f2a;stroke:#000000;stroke-width:0.665001;stroke-linecap:round;stroke-dasharray:none"
       d="m 87.306671,177.75953 -5.191205,20.1356 -2.831568,19.19173 22.337922,1.5731 21.70869,-2.83157 1.25847,-0.62924 0.62924,-16.67479 c -0.36182,-3.66009 -1.31975,-8.51238 -2.51695,-13.84322 -0.9183,-2.72669 -2.66896,-5.45339 -4.40466,-8.18008 -9.80829,4.64812 -20.374719,2.25886 -30.989939,1.25847 z"
       id="path4798"
       sodipodi:nodetypes="cccccccccc" /><path
       style="opacity:1;fill:#000000;stroke:#000000;stroke-width:0.665001;stroke-linecap:round;stroke-dasharray:none"
       d="m 96.587923,206.70445 7.236227,-6.60699 5.0339,-7.23623 6.92161,-14.15784 1.88771,-0.94386 c -0.86945,5.63267 -1.51247,11.49177 -4.40466,15.1017 -0.70684,4.17814 -3.52096,6.95142 -5.34852,10.38241 l -3.77542,4.71928 h 14.15784 l -15.41631,0.31462 -8.180089,5.97775 -7.23623,3.77543 c 0,0 8.168183,-4.03714 11.640891,-6.92161 3.544128,-2.9438 6.630308,-6.50833 9.123938,-10.38242 2.48975,-3.86806 5.66314,-12.58474 5.66314,-12.58474 l 2.20233,-7.23623 -6.92161,12.27013 -5.66314,6.92161 z"
       id="path4800"
       sodipodi:nodetypes="ccccccccccccaaccccc" /><path
       style="opacity:1;fill:#00ffff;stroke:#000000;stroke-width:0.665001;stroke-linecap:round;stroke-dasharray:none"
       d="m 107.59958,162.65784 c 5.25676,1.58359 6.73401,0.14357 7.86546,-1.57309 -2.0272,4.09211 -5.04228,2.25689 -7.86546,1.57309 z"
       id="path4804"
       sodipodi:nodetypes="ccc" /><path
       style="opacity:0.396923;fill:#ddb292;fill-opacity:1;stroke:#000000;stroke-width:0;stroke-linecap:round;stroke-dasharray:none"
       d="m 82.03681,148.89328 2.280987,5.74178 2.674257,5.0339 1.730404,2.83157 0.393273,3.06753 0.550583,3.06753 1.101164,3.3035 0.314619,0.47193 8.022775,1.10116 c 6.329168,-0.39051 12.358988,-0.75812 17.461338,-2.98887 l -0.0786,-1.5731 -8.10144,1.5731 -11.640887,0.78654 -4.404661,-13.5286 -6.606993,-5.19121 z"
       id="path26902"
       sodipodi:nodetypes="cccccccccccccccc" /><path
       style="opacity:0.901538;fill:#c6a186;fill-opacity:1;stroke:#000000;stroke-width:0;stroke-linecap:round;stroke-dasharray:none"
       d="m 80.227754,148.81462 1.887712,5.82044 1.887712,5.0339 1.415783,3.61812 1.258474,1.7304 0.786548,5.0339 1.101165,1.7304 1.415785,0.62924 1.258475,-0.15731 -0.786548,-0.94386 -1.415783,-7.23623 -0.629238,-3.14618 -6.449681,-11.95551 z"
       id="path29703"
       sodipodi:nodetypes="cccccccccccccc" /><path
       style="opacity:1;fill:#00ffff;stroke:#000000;stroke-width:0.565;stroke-linecap:round;stroke-dasharray:none"
       d="m 84.317797,149.75847 5.663133,7.23623 c 5.078223,2.14756 7.03337,1.17456 9.753179,0 -2.082405,0.8898 -4.37596,1.58445 -9.753179,0 l 2.831568,6.29238 c 3.63348,1.00848 7.425882,2.41427 9.438562,-0.62924 -2.1801,2.24679 -5.928146,1.3577 -9.75318,0.31462 l -2.51695,-6.29238 z"
       id="path4806"
       sodipodi:nodetypes="ccccccccc" /><path
       style="opacity:0.901538;fill:#c6a186;fill-opacity:1;stroke:#000000;stroke-width:0;stroke-linecap:round;stroke-dasharray:none"
       d="m 90.924789,148.81462 11.798201,0.47193 v 1.10116 c -0.004,-0.0775 -12.755882,0.62196 -13.685913,-0.47193 -0.177968,-0.7064 1.887712,-1.10116 1.887712,-1.10116 z"
       id="path35161"
       sodipodi:nodetypes="ccccc" /><path
       style="opacity:0.901538;fill:#c6a186;fill-opacity:1;stroke:#000000;stroke-width:0;stroke-linecap:round;stroke-dasharray:none"
       d="m 104.06012,148.65731 1.65174,5.34852 c 0,0 -0.26779,-2.78513 0.62924,-3.61811 1.58593,-1.47269 8.3374,-2.98889 8.3374,-2.98889 z"
       id="path35163"
       sodipodi:nodetypes="ccscc" /><path
       style="opacity:0.901538;fill:#c6a186;fill-opacity:1;stroke:#000000;stroke-width:0;stroke-linecap:round;stroke-dasharray:none"
       d="m 112.16154,156.60143 3.77543,2.5956 -0.70789,-4.79793 z"
       id="path35165"
       sodipodi:nodetypes="cccc" /><path
       style="opacity:0.901538;fill:#c6a186;fill-opacity:1;stroke:#000000;stroke-width:0;stroke-linecap:round;stroke-dasharray:none"
       d="m 113.65599,163.83765 2.5956,1.96638 -0.47193,-4.40466 -1.25847,1.80905 z"
       id="path35167"
       sodipodi:nodetypes="ccccc" /><path
       style="opacity:1;fill:#999999;fill-opacity:1;stroke:#000000;stroke-width:0;stroke-linecap:butt;stroke-miterlimit:1.4;stroke-dasharray:none;paint-order:normal"
       d="m 124.36806,215.48819 -24.786204,-0.11914 6.627994,-4.74818 13.47846,-1.94497 -0.44494,-1.66852 c -3.42943,-0.77043 -6.57746,-2.52572 -10.78974,-0.55617 5.16861,-7.56953 7.91205,-15.74535 11.56838,-23.69295 l 0.8843,-1.77416 -2.59889,-4.12917 c 0,0 -2.74357,10.95419 -4.82916,16.18298 -1.3297,3.33369 -4.86732,9.60433 -4.86732,9.60433 l -3.71682,4.92131 h 13.2369 l 0.22247,0.88988 c -5.43766,-0.7159 -10.17482,-0.0308 -15.23912,0 l -7.924639,5.67296 -6.758312,3.89321 13.681841,0.88987 z"
       id="path65540"
       sodipodi:nodetypes="cccccccccaccccccccc" /><path
       style="opacity:1;fill:#ffffff;fill-opacity:1;stroke:#000000;stroke-width:0;stroke-linecap:butt;stroke-miterlimit:1.4;stroke-dasharray:none;paint-order:normal"
       d="m 120.84673,181.10092 c -1.46593,-3.38411 1.79182,3.22897 2.53278,7.94977 0.26708,1.70163 1.67634,5.61579 1.4461,8.83842 -0.49198,6.88607 0.16743,12.94446 -0.54969,17.53393 l -26.163828,0.44493 c 0,0 4.621138,-4.63542 7.579758,-5.81118 4.18287,-1.66228 13.43238,-1.38089 13.43238,-1.38089 l -0.44494,-1.77975 -9.91895,-0.66741 z"
       id="path65544"
       sodipodi:nodetypes="cssccacccc" /><path
       style="opacity:1;fill:#ff9955;fill-opacity:1;stroke:#000000;stroke-width:0;stroke-linecap:butt;stroke-miterlimit:1.4;stroke-dasharray:none;paint-order:normal"
       d="m 92.185446,181.20735 c -2.507698,5.70583 -5.316059,12.67011 -5.741795,18.37594 l 0.911905,10.96587 c 10.201824,-3.68589 16.363524,-16.65404 19.540784,-27.01349 -7.435483,-2.87534 -10.33646,-3.29357 -14.710894,-2.32832 z"
       id="path65600"
       sodipodi:nodetypes="ccccc" /></g><g
     inkscape:groupmode="layer"
     id="layer2"
     inkscape:label="Gamba destra"
     transform="translate(4.8943181,4.0044416)"><path
       style="opacity:1;fill:#ffccaa;stroke:#000000;stroke-width:0.865;stroke-linecap:round;stroke-dasharray:none"
       d="m 101.66833,219.24317 c 0.15557,5.30218 -0.10555,10.60435 1.44604,15.90653 -1.77426,3.91134 -2.12283,8.67809 -2.44716,13.45938 l 0.3337,14.79418 c 4.82016,1.05321 9.64033,0.48391 14.46049,0.11124 0.8836,-9.34998 2.62785,-19.09778 2.15953,-29.79967 l -3.10898,3.02474 4.73142,-4.81567 c 1.33481,-2.23214 2.66963,-9.27807 4.00444,-15.79529 z"
       id="path303"
       sodipodi:nodetypes="cccccccccc"
       inkscape:label="Contorno" /><path
       style="opacity:1;fill:#00ffff;stroke:#000000;stroke-width:0.665;stroke-dasharray:none"
       d="m 107.52092,230.53681 c 0.3254,2.13201 -0.008,4.39583 2.28098,6.13506 -1.99303,-1.26858 -1.85282,-3.89246 -2.28098,-6.13506 z"
       id="path2521"
       sodipodi:nodetypes="ccc"
       inkscape:label="Rotula" /><path
       style="opacity:1;fill:#ddb292;fill-opacity:1;stroke:#000000;stroke-width:0;stroke-linecap:round;stroke-dasharray:none"
       d="m 121.91473,219.60381 0.47192,-2.67426 -20.13559,2.83157 0.47193,9.91049 c 0.31462,3.19965 0.62923,4.32455 0.94385,5.0339 l -2.04502,6.60699 -0.47193,8.65201 0.62924,12.42744 -0.47193,0.47193 3.46081,0.47192 -0.62924,-14.94438 c 0,0 0.15803,-15.79156 1.41578,-11.48358 0.73576,2.52008 3.77543,1.41578 3.77543,1.41578 l -2.51695,-6.92161 -1.25848,-7.70815 c 0,0 0.68136,-1.73089 1.41579,-2.20234 0.93607,-0.60089 3.30349,-0.47192 3.30349,-0.47192 z"
       id="path23593"
       sodipodi:nodetypes="cccccccccccscccacc" /><path
       style="opacity:1;fill:#ffccaa;stroke:#000000;stroke-width:0.865;stroke-linecap:round;stroke-dasharray:none"
       d="m 101.85779,277.65094 c 0.20362,2.95983 0.0319,6.17681 1.41578,8.80933 0.37105,0.70581 1.01694,1.29564 1.7304,1.65174 2.73431,1.36474 5.98956,1.4561 9.04529,1.49445 3.41465,0.0429 7.12458,0.76912 10.14645,-1.41583 1.6681,-1.86237 2.16942,-4.1566 1.25848,-5.97774 -1.50076,-3.00029 -6.52986,-3.18642 -9.12394,-4.24731 -0.68968,-1.08405 -1.0064,-6.79859 -0.94385,-8.25876 -3.61978,1.07328 -8.06389,2.10878 -14.15785,0.70785 z"
       id="path3259"
       sodipodi:nodetypes="caaacacccc"
       inkscape:label="Piede" /><path
       style="opacity:1;fill:#775338;fill-opacity:1;stroke:#000000;stroke-width:0.865;stroke-linecap:round;stroke-dasharray:none"
       d="m 102.21173,277.21834 c 3.93293,1.9567 8.16813,3.55157 13.33197,-0.23596 0.24589,0.18531 -0.0217,0.30836 0.62923,1.10117 5.06448,1.52443 4.25671,1.18301 6.09574,1.88771 0.81547,0.5786 1.82602,0.92799 2.39897,1.73042 0.52533,0.73575 0.7767,1.69159 0.78655,2.59559 0.0101,0.9255 -0.3104,1.85826 -0.74722,2.67426 -0.35097,0.65561 -0.81693,1.30933 -1.45512,1.69106 -1.50945,0.90288 -3.39956,0.98888 -5.15188,1.1405 -2.64854,0.22917 -5.46945,-0.47047 -7.96715,-0.36069 -4.54786,0.1999 -6.41373,-0.81827 -7.76378,-5.45975 z"
       id="path48335"
       sodipodi:nodetypes="ccccaaaaascc"
       inkscape:label="Scarpa" /><path
       style="opacity:0.346667;fill:#775338;fill-opacity:1;stroke:#000000;stroke-width:1.165;stroke-linecap:round;stroke-dasharray:none"
       d="m 103.34594,278.74015 v 4.2269 1.55729 l 1.00111,2.0022 1.33481,1.33483 2.22469,0.77864 11.19536,0.23481 3.95046,-0.88196 2.05736,-2.67081 c -3.72652,3.31693 -9.40302,2.81193 -14.74927,2.74271 -2.08608,-0.0414 -4.39644,0.53798 -5.98315,-3.89786 l -0.0247,-4.80542 z"
       id="path48396"
       sodipodi:nodetypes="ccccccccccccc"
       inkscape:label="Contornoscarpa" /><path
       style="opacity:0.346667;fill:#775338;fill-opacity:1;stroke:#000000;stroke-width:1.165;stroke-linecap:round;stroke-dasharray:none"
       d="m 101.66832,270.85597 0.38932,5.56172 3.11457,2.05786 c 0,0 -1.96158,-1.80675 -2.44716,-3.00335 -0.55981,-1.37953 -0.38932,-4.44936 -0.38932,-4.44936 z"
       id="path48401"
       sodipodi:nodetypes="cccacc" /><path
       style="opacity:0.346667;fill:#775338;fill-opacity:1;stroke:#000000;stroke-width:0;stroke-linecap:round;stroke-dasharray:none"
       d="m 102.66943,270.74475 0.3337,4.33813 1.89098,2.78086 2.61403,0.83427 c 3.21369,1.10024 6.63712,-1.37175 8.06448,-2.05784 0,0 -6.41065,1.06254 -9.23246,-0.16686 -2.4668,-1.07473 -2.05615,-5.22803 -1.94659,-5.22803 z"
       id="path48403"
       sodipodi:nodetypes="cccccscc" /><g
       id="g61502"
       transform="translate(23.911018,0.70789194)"><path
         style="opacity:1;fill:#d1a943;fill-opacity:0.823529;stroke:#000000;stroke-width:0.665;stroke-linecap:round;stroke-dasharray:none"
         d="m 75.980402,262.86387 0.235965,5.89909 c 5.138771,2.51086 10.828123,1.95617 15.966894,0.0787 l 0.314621,-5.89909 c -5.292554,0.68366 -11.015231,0.91521 -16.51748,-0.0787 z"
         id="path61492"
         sodipodi:nodetypes="cccccc"
         inkscape:label="Parte gialla" /><path
         style="opacity:1;fill:#d6a210;fill-opacity:1;stroke:#000000;stroke-width:0;stroke-linecap:butt;stroke-dasharray:none;paint-order:normal"
         d="m 86.36759,263.86335 -0.03933,6.06314 c 1.377187,-0.15809 2.736399,-0.35213 3.967291,-0.80281 v -5.57495 z"
         id="path61494"
         sodipodi:nodetypes="ccccc" /><path
         style="opacity:1;fill:#d6a210;fill-opacity:1;stroke:#000000;stroke-width:0;stroke-linecap:round;stroke-dasharray:none"
         d="m 81.250265,263.80196 0.157308,6.14082 -2.08237,-0.38258 -0.305078,-5.85894 z"
         id="path61496"
         sodipodi:nodetypes="ccccc" /><path
         style="opacity:1;fill:#bd9631;fill-opacity:0.980392;stroke:#000000;stroke-width:0;stroke-linecap:round;stroke-dasharray:none"
         d="m 76.313287,263.30799 0.217693,5.21903 1.207628,0.51801 -0.05562,-5.60276 z"
         id="path61498"
         sodipodi:nodetypes="ccccc" /><path
         style="opacity:1;fill:#b8922d;fill-opacity:0.823529;stroke:#000000;stroke-width:0;stroke-linecap:round;stroke-miterlimit:1.4;stroke-dasharray:none"
         d="m 81.065145,263.77516 0.342428,6.21847 1.927039,0.10651 -0.353945,-6.21372 z"
         id="path61500"
         sodipodi:nodetypes="ccccc" /></g></g><g
     inkscape:groupmode="layer"
     id="layer4"
     inkscape:label="Braccio destro"
     transform="translate(-58.286873,-32.480471)"><path
       style="opacity:1;fill:#ffccaa;stroke:#000000;stroke-width:0.865;stroke-linecap:round;stroke-dasharray:none"
       d="m 71.078838,138.59817 c -1.733041,0.94412 -2.572991,1.12812 -2.558394,5.33926 -0.04397,2.59547 -1.017439,4.96847 0,7.56394 4.742024,-0.46744 8.304679,0.58547 10.456043,1.55729 1.058106,-1.796 0.796792,-5.01238 1.001109,-8.23136 -0.506543,-1.67479 -0.843584,-3.93489 -1.890986,-5.33925 -2.044174,-1.50218 -4.940016,-2.01634 -7.007772,-0.88988 z"
       id="path3263"
       sodipodi:nodetypes="accccca" /><path
       style="opacity:1;fill:#ffccaa;stroke:#000000;stroke-width:0.865;stroke-linecap:round;stroke-dasharray:none"
       d="m 67.853038,159.51025 c -1.006433,4.08941 -0.904143,8.98166 -1.001112,13.12567 1.204375,4.89742 3.143261,10.37299 5.228023,14.12678 l 7.23024,-1.33481 c 0.260239,0.52048 -1.620783,-4.54785 -1.446047,-7.45271 0.309316,-5.14215 -0.262959,-6.87823 -0.889878,-10.67851 -0.327955,-1.98801 0.212829,-4.45259 0.556174,-6.4516 -3.418717,-1.98828 -6.548239,-1.66299 -9.6774,-1.33482 z"
       id="path3267"
       sodipodi:nodetypes="ccccsscc" /><path
       style="opacity:1;fill:#ffccaa;stroke:#000000;stroke-width:0.665001;stroke-linecap:round;stroke-dasharray:none"
       d="m 73.303528,190.98961 -2e-6,10.12234 3.670739,1.55729 -0.222469,-1.00111 0.444939,1.00111 3.114564,-0.44494 -1.223579,-1.55729 1.446048,1.33482 2.224691,-1.55729 -1.779752,-1.33481 2.224688,1.11235 0.778643,-0.22247 1.223579,-2.5584 -2.447158,-0.77864 2.669627,-0.11123 -0.111233,-3.44827 -5.450491,-3.5595 c -2.756119,-0.655 -4.678896,0.35668 -6.562834,1.44604 z"
       id="path3271"
       sodipodi:nodetypes="cccccccccccccccccc" /><path
       style="opacity:0.901538;fill:#c6a186;fill-opacity:1;stroke:#000000;stroke-width:0;stroke-linecap:round;stroke-dasharray:none"
       d="m 68.744173,159.82627 c 2.631466,-0.009 5.152662,-0.5143 8.180086,1.25847 l -0.471929,4.71929 0.786548,4.40466 0.629237,5.82044 -0.314619,2.83157 0.786546,4.56197 0.471929,1.41578 h -1.101167 l -1.730401,-10.2251 -0.786547,-3.7361 c 0,0 -0.472652,-2.84915 -0.471928,-4.28668 7.77e-4,-1.5432 0.511254,-4.6013 0.511254,-4.6013 z"
       id="path35903"
       sodipodi:nodetypes="cccccccccccacc" /><path
       style="opacity:1;fill:#c6a186;fill-opacity:1;stroke:#000000;stroke-width:0;stroke-linecap:round;stroke-dasharray:none"
       d="m 72.204979,139.69068 0.943856,4.24735 -0.314619,5.66313 0.157308,1.10117 6.292374,-1.10117 -0.314617,3.06753 -5.977757,-2.28098 -1.415783,-0.31462 0.314619,-4.87659 -0.471927,-3.30349 -0.943856,-1.10117 z"
       id="path35901"
       sodipodi:nodetypes="cccccccccccc" /><path
       style="opacity:1;fill:#c6a186;fill-opacity:1;stroke:#000000;stroke-width:0;stroke-linecap:round;stroke-dasharray:none"
       d="m 79.480535,189.93134 c -0.214227,-0.25777 -0.879408,-0.32353 -2.084349,-0.2163 l -2.51695,0.78655 c -0.333516,0.31026 -1.437081,0.49272 -1.160156,0.94385 l -0.05899,7.59018 0.03933,1.88771 2.122858,0.9228 0.58191,0.14984 0.706011,-0.50972 c 0.135268,0.58336 0.317492,0.97889 0.600609,0.97085 l 1.971138,-0.46239 -0.896962,-1.15596 0.508462,-0.41713 1.193313,1.15678 1.768574,-1.0829 -1.489667,-1.02646 0.571982,-0.50928 1.878986,0.88824 c 0.657208,0.26612 0.955772,-1.14143 1.415785,-1.79556 l 0.02236,-0.0382 c 0,0 -2.757763,0.67233 -5.215204,0.86125 l 1.906797,1.30456 -0.943039,0.5458 -1.591358,-1.25765 -1.573093,1.10117 -1.730405,-0.94386 -0.4326,-1.80906 c 0,0 -1.183728,-3.08499 0.176972,-5.13221 0.930869,-1.40053 4.22769,-2.75292 4.22769,-2.75292 z"
       id="path35911"
       sodipodi:nodetypes="cccccccccccccccccccccccccccscc" /><g
       id="g65447"
       transform="matrix(-0.75753413,-0.08607161,0.0892124,-1.076673,112.90369,449.87867)"
       inkscape:transform-center-x="-0.19769788"
       inkscape:transform-center-y="0.88844535"><path
         style="opacity:1;fill:#d1a943;fill-opacity:0.823529;stroke:#000000;stroke-width:0.665;stroke-linecap:round;stroke-dasharray:none"
         d="m 75.980402,262.86387 0.235965,5.89909 c 5.138771,2.51086 10.828123,1.95617 15.966894,0.0787 l 0.314621,-5.89909 c -5.292554,0.68366 -11.015231,0.91521 -16.51748,-0.0787 z"
         id="path65437"
         sodipodi:nodetypes="cccccc"
         inkscape:label="Parte gialla" /><path
         style="opacity:1;fill:#d6a210;fill-opacity:1;stroke:#000000;stroke-width:0;stroke-linecap:butt;stroke-dasharray:none;paint-order:normal"
         d="m 86.36759,263.86335 -0.03933,6.06314 c 1.377187,-0.15809 2.736399,-0.35213 3.967291,-0.80281 v -5.57495 z"
         id="path65439"
         sodipodi:nodetypes="ccccc" /><path
         style="opacity:1;fill:#d6a210;fill-opacity:1;stroke:#000000;stroke-width:0;stroke-linecap:round;stroke-dasharray:none"
         d="m 81.250265,263.80196 0.157308,6.14082 -2.08237,-0.38258 -0.305078,-5.85894 z"
         id="path65441"
         sodipodi:nodetypes="ccccc" /><path
         style="opacity:1;fill:#bd9631;fill-opacity:0.980392;stroke:#000000;stroke-width:0;stroke-linecap:round;stroke-dasharray:none"
         d="m 76.313287,263.30799 0.217693,5.21903 1.207628,0.51801 -0.05562,-5.60276 z"
         id="path65443"
         sodipodi:nodetypes="ccccc" /><path
         style="opacity:1;fill:#b8922d;fill-opacity:0.823529;stroke:#000000;stroke-width:0;stroke-linecap:round;stroke-miterlimit:1.4;stroke-dasharray:none"
         d="m 81.065145,263.77516 0.342428,6.21847 1.927039,0.10651 -0.353945,-6.21372 z"
         id="path65445"
         sodipodi:nodetypes="ccccc" /></g><g
       id="g65435"
       transform="matrix(-0.62130963,0.15297665,-0.2344724,-0.6808893,190.71042,356.26722)"
       inkscape:transform-center-x="-0.30264056"
       inkscape:transform-center-y="-0.32385095"><path
         style="opacity:1;fill:#d1a943;fill-opacity:0.823529;stroke:#000000;stroke-width:0.665;stroke-linecap:round;stroke-dasharray:none"
         d="m 75.980402,262.86387 0.235965,5.89909 c 5.138771,2.51086 10.828123,1.95617 15.966894,0.0787 l 0.314621,-5.89909 c -5.292554,0.68366 -11.015231,0.91521 -16.51748,-0.0787 z"
         id="path65425"
         sodipodi:nodetypes="cccccc"
         inkscape:label="Parte gialla" /><path
         style="opacity:1;fill:#d6a210;fill-opacity:1;stroke:#000000;stroke-width:0;stroke-linecap:butt;stroke-dasharray:none;paint-order:normal"
         d="m 86.36759,263.86335 -0.03933,6.06314 c 1.377187,-0.15809 2.736399,-0.35213 3.967291,-0.80281 v -5.57495 z"
         id="path65427"
         sodipodi:nodetypes="ccccc" /><path
         style="opacity:1;fill:#d6a210;fill-opacity:1;stroke:#000000;stroke-width:0;stroke-linecap:round;stroke-dasharray:none"
         d="m 81.250265,263.80196 0.157308,6.14082 -2.08237,-0.38258 -0.305078,-5.85894 z"
         id="path65429"
         sodipodi:nodetypes="ccccc" /><path
         style="opacity:1;fill:#bd9631;fill-opacity:0.980392;stroke:#000000;stroke-width:0;stroke-linecap:round;stroke-dasharray:none"
         d="m 76.313287,263.30799 0.217693,5.21903 1.207628,0.51801 -0.05562,-5.60276 z"
         id="path65431"
         sodipodi:nodetypes="ccccc" /><path
         style="opacity:1;fill:#b8922d;fill-opacity:0.823529;stroke:#000000;stroke-width:0;stroke-linecap:round;stroke-miterlimit:1.4;stroke-dasharray:none"
         d="m 81.065145,263.77516 0.342428,6.21847 1.927039,0.10651 -0.353945,-6.21372 z"
         id="path65433"
         sodipodi:nodetypes="ccccc" /></g><path
       style="opacity:1;fill:#d6a210;fill-opacity:1;stroke:#000000;stroke-width:0.4;stroke-miterlimit:0.6;stroke-dasharray:none;stroke-opacity:1"
       d="m 82.202288,190.65591 10.011103,-14.12678 3.110117,-1.92213 -1.330366,3.25695 -9.899868,14.01554 z"
       id="path2270"
       sodipodi:nodetypes="cccccc" /><path
       style="opacity:1;fill:#d6a210;fill-opacity:1;stroke:#000000;stroke-width:0.307265;stroke-miterlimit:0.6;stroke-dasharray:none;stroke-opacity:1"
       d="m 75.668784,202.1728 -7.73446,10.76521 -1.407797,0.24539 0.02332,-1.25601 7.64841,-10.68037 z"
       id="path2964"
       sodipodi:nodetypes="cccccc" /><ellipse
       style="opacity:1;fill:#000000;fill-opacity:1;stroke:#000000;stroke-width:0.153522;stroke-miterlimit:0.6;stroke-dasharray:none;stroke-opacity:1"
       id="path2968"
       cx="176.83659"
       cy="92.282509"
       rx="0.50694156"
       ry="0.89626229"
       transform="rotate(34.183554)"
       inkscape:transform-center-x="0.88987591"
       inkscape:transform-center-y="1.3348139" /></g><g
     inkscape:groupmode="layer"
     id="layer7"
     inkscape:label="Testa"
     transform="matrix(1.0003035,0,0,0.91598036,-8.9287844,0.19782306)"><path
       style="opacity:0.683077;fill:#00ffff;stroke:#000000;stroke-width:0.665001;stroke-linecap:round;stroke-dasharray:none"
       d="M 108.54343,48.136653 Z"
       id="path4877" /><path
       style="opacity:1;fill:#00bbff;fill-opacity:1;stroke:#000000;stroke-width:0.665001;stroke-linecap:round;stroke-dasharray:none"
       d="m 56.631355,84.632416 c 27.2922,7.020813 50.417825,10.211512 74.564615,4.719277 0,0 3.57844,-18.301485 -1.25847,-25.169489 -6.28527,-8.924547 -20.81007,-10.159915 -30.243207,-12.558575 -9.29538,-0.283787 -0.424706,-0.002 -15.376496,-0.02617 -4.938519,-0.02013 -9.634046,-0.283256 -18.311124,3.435172 -1.84993,0.792759 -9.085519,4.634449 -11.26303,7.8911 -4.965005,11.960885 -5.690781,24.692539 -7.6295,37.203649 0,0 0.454117,12.71498 1.573091,18.95577 0.912721,5.09046 1.582133,10.46605 4.168697,14.94439 3.746155,6.48604 10.185436,11.60259 15.730932,16.04555 0,0 -0.536297,-6.84156 0.943856,-9.75318 0.572275,-1.12573 2.831568,-2.51695 2.831568,-2.51695 l -4.011388,-10.53972 -8.887975,-15.88824 -4.090043,-10.69704 -1.887712,-6.606984 4.71928,14.787074 7.865467,14.78707 5.033896,10.0678 2.202331,7.23623 0.471928,2.67426 -0.157309,5.82044 22.731197,-3.06752 c 0.199151,-4.99127 -3.937735,-12.46026 -6.371028,-18.95578 -11.909559,0.69823 -18.789582,-6.35741 -25.798727,-13.21399 -4.17295,-5.5381 -6.724414,-12.40287 -6.292374,-21.70868 v -2.202331 l -2.202331,-0.629237 z"
       id="path4887"
       sodipodi:nodetypes="ccaccsccaacacccccccccccccccccc" /><path
       style="opacity:1;fill:#cece31;fill-opacity:1;stroke:#000000;stroke-width:0.665001;stroke-linecap:round;stroke-dasharray:none"
       d="m 56.316736,85.261653 -0.629237,4.719277 c 45.760071,13.8177 78.064991,5.697867 76.452331,5.977755 l -0.62924,-6.292373 c -18.94608,5.852543 -47.403963,2.879433 -75.193854,-4.404659 z"
       id="path4889"
       sodipodi:nodetypes="ccccc" /><path
       style="opacity:1;fill:#00bbff;fill-opacity:1;stroke:#000000;stroke-width:0.665001;stroke-linecap:round;stroke-dasharray:none"
       d="m 91.554024,147.55614 21.708686,-0.62924 1.25848,-1.88771 -7.86547,-0.15731 -2.98888,-18.09057 15.88824,-4.24735 c 0.60499,16.06249 8.25103,15.6829 8.34375,21.716 0.0188,1.22276 -13.32309,-0.30898 -13.37764,1.09385 l -1.25848,1.88771 z"
       id="path4891"
       sodipodi:nodetypes="ccccccsccc" /><path
       style="opacity:0.683077;fill:#00ffff;stroke:#000000;stroke-width:0.665001;stroke-linecap:round;stroke-dasharray:none"
       d="m 103.50953,133.08368 -11.640888,1.25848 z"
       id="path4893" /><path
       style="opacity:1;fill:#00cea0;fill-opacity:1;stroke:#000000;stroke-width:0.665001;stroke-linecap:round;stroke-dasharray:none"
       d="m 57.88983,91.239405 -0.629238,1.887712 c 0.368192,7.755003 1.985146,15.527253 6.292374,21.708683 6.200929,8.89914 17.344153,14.44921 27.529129,14.15784 2.483498,-0.071 4.525276,0.60051 6.764302,0.31462 7.732453,-0.98733 22.337923,-6.92161 22.337923,-6.92161 4.53722,-2.00407 8.18291,-9.36843 9.12394,-16.67479 0.39057,-3.03249 0.94386,-9.123937 0.94386,-9.123937 -16.91375,1.055957 -42.221337,4.030697 -72.36229,-5.348518 z"
       id="path4895"
       sodipodi:nodetypes="ccssacscc" /><path
       style="opacity:1;fill:#00cea0;fill-opacity:1;stroke:#000000;stroke-width:0.665001;stroke-linecap:round;stroke-dasharray:none"
       d="m 90.295549,128.99365 2.045021,5.97775 c 1.260267,1.3733 0.844877,3.24929 5.977755,3.46081 5.330155,-0.58063 5.302435,-3.09025 5.977755,-4.64063 v -0.39327 -5.34852 c -4.17787,2.27053 -8.989044,2.00781 -14.000531,0.94386 z"
       id="path4899"
       sodipodi:nodetypes="ccccccc" /><path
       style="opacity:1;fill:#ffffff;stroke:#000000;stroke-width:0.965;stroke-linecap:round;stroke-dasharray:none"
       d="m 96.902541,117.66737 c -6.579458,0.19665 -15.02233,1.31328 -20.76483,-2.83157 -1.717761,-2.6869 -3.637165,-7.03595 -2.045022,-10.06779 1.98793,-3.78551 6.187092,-6.503798 11.798201,-5.033897 3.358581,0.879827 7.080941,1.950877 9.281249,5.663127 2.264616,5.6697 3.236538,9.11426 1.730402,12.27013 z"
       id="path4901"
       sodipodi:nodetypes="ccascc" /><path
       style="opacity:0.990769;fill:#00ffff;stroke:#000000;stroke-width:0.965;stroke-linecap:round;stroke-dasharray:none"
       d="m 72.362287,100.36335 c 0,0 5.973293,-2.352941 9.123941,-2.516953 3.185271,-0.165814 9.438558,1.573094 9.438558,1.573094 l 6.921611,3.460809 2.516953,0.94385 5.0339,-4.090041 c -0.43078,-0.287188 -4.53228,5.128111 -5.663136,4.090041 -0.859047,-0.78856 -3.096003,-1.82403 -3.146191,-1.57309 0,0 -3.21207,-2.20917 -5.033899,-2.831569 -3.410495,-1.165135 -7.102091,-1.828843 -10.697033,-1.573094 -2.945803,0.209569 -8.494704,2.516953 -8.494704,2.516953 z"
       id="path4903"
       sodipodi:nodetypes="caccccscaac" /><path
       style="opacity:1;fill:#00ffff;stroke:#000000;stroke-width:0.665001;stroke-linecap:round;stroke-dasharray:none"
       d="m 111.06038,101.93644 1.57309,3.14619 4.09005,-4.09005 c 1.79753,-1.736738 2.98452,-1.031309 4.40466,-1.258471 l 5.97775,1.258471 -6.92161,-1.573089 c -1.02629,-0.299514 -2.33071,0.513517 -3.77542,1.887709 l -4.09005,4.09005 z"
       id="path4905"
       sodipodi:nodetypes="ccccccccc" /><path
       style="opacity:1;fill:#ffffff;stroke:#000000;stroke-width:0.665001;stroke-linecap:round;stroke-dasharray:none"
       d="m 113.89194,112.16154 0.78655,-7.23622 c 0.56416,-1.97807 1.07211,-3.02362 2.04502,-3.77543 0.77177,-1.494474 2.62284,-1.09923 4.24736,-0.94385 2.15041,0.5498 3.71063,2.35207 4.56196,4.24735 0.92413,2.05736 0.68322,4.57109 0.15732,6.7643 -0.36106,1.50575 -1.24194,2.87543 -2.20233,4.09004 -0.39163,0.49529 -1.41578,1.25848 -1.41578,1.25848 l -4.71928,-2.35964 z"
       id="path4907"
       sodipodi:nodetypes="ccccaaaccc" /><path
       style="opacity:1;fill:#33e6ff;fill-opacity:1;stroke:#000000;stroke-width:0.215829;stroke-linecap:round;stroke-dasharray:none"
       id="path4915"
       sodipodi:type="arc"
       sodipodi:cx="84.710991"
       sodipodi:cy="108.9367"
       sodipodi:rx="8.3256941"
       sodipodi:ry="8.9550056"
       sodipodi:start="0.0051049019"
       sodipodi:end="6.2763647"
       sodipodi:open="true"
       sodipodi:arc-type="arc"
       d="m 93.036577,108.98241 a 8.3256941,8.9550056 0 0 1 -8.343266,8.90927 8.3256941,8.9550056 0 0 1 -8.308011,-8.9473 8.3256941,8.9550056 0 0 1 8.293727,-8.962621 8.3256941,8.9550056 0 0 1 8.357464,8.893861"
       inkscape:label="path4915" /><path
       style="opacity:1;fill:#000000;stroke:#000000;stroke-width:0.314987;stroke-linecap:round;stroke-dasharray:none"
       id="path4917"
       sodipodi:type="arc"
       sodipodi:cx="84.475113"
       sodipodi:cy="110.58846"
       sodipodi:rx="7.0464358"
       sodipodi:ry="6.7318068"
       sodipodi:start="0.0051049019"
       sodipodi:end="6.2763647"
       sodipodi:open="true"
       sodipodi:arc-type="arc"
       d="m 91.521457,110.62283 a 7.0464358,6.7318068 0 0 1 -7.061307,6.69742 7.0464358,6.7318068 0 0 1 -7.03147,-6.72601 7.0464358,6.7318068 0 0 1 7.01938,-6.73753 7.0464358,6.7318068 0 0 1 7.073325,6.68584" /><path
       style="opacity:1;fill:#33e6ff;fill-opacity:1;stroke:#000000;stroke-width:0.322519;stroke-linecap:round;stroke-dasharray:none"
       id="path4984"
       sodipodi:type="arc"
       sodipodi:cx="118.61125"
       sodipodi:cy="109.64462"
       sodipodi:rx="4.3684115"
       sodipodi:ry="7.0426598"
       sodipodi:start="0.0051049019"
       sodipodi:end="6.2763647"
       sodipodi:open="true"
       sodipodi:arc-type="arc"
       d="m 122.97961,109.68057 a 4.3684115,7.0426598 0 0 1 -4.37763,7.0067 4.3684115,7.0426598 0 0 1 -4.35914,-7.03661 4.3684115,7.0426598 0 0 1 4.35164,-7.04865 4.3684115,7.0426598 0 0 1 4.38508,6.99458" /><path
       style="opacity:1;fill:#1a1a1a;stroke:#000000;stroke-width:0.302923;stroke-linecap:round;stroke-dasharray:none"
       id="path4988"
       sodipodi:type="arc"
       sodipodi:cx="118.21796"
       sodipodi:cy="110.82442"
       sodipodi:rx="3.8276262"
       sodipodi:ry="4.9287825"
       sodipodi:start="0.0051049019"
       sodipodi:end="6.2763647"
       sodipodi:open="true"
       sodipodi:arc-type="arc"
       d="m 122.04553,110.84958 a 3.8276262,4.9287825 0 0 1 -3.8357,4.90361 3.8276262,4.9287825 0 0 1 -3.8195,-4.92454 3.8276262,4.9287825 0 0 1 3.81293,-4.93298 3.8276262,4.9287825 0 0 1 3.84223,4.89513" /><path
       style="opacity:1;fill:#00ffff;stroke:#000000;stroke-width:0.25;stroke-linecap:round;stroke-dasharray:none"
       d="m 57.260592,85.418961 0.786548,-17.461336 -1.415785,-1.101164 -1.415783,0.943856 -0.471929,3.932732 0.629237,-3.775424 1.415786,-1.101164 1.573091,1.415783 z"
       id="path4990" /><path
       style="opacity:1;fill:#1d65e2;fill-opacity:1;stroke:#000000;stroke-width:0.25;stroke-linecap:round;stroke-dasharray:none"
       d="m 127.26324,90.45286 0.94386,-15.888243 -2.20233,-10.225105 -3.14619,-5.663137 -13.84322,-4.09004 3.61811,3.146187 3.77543,11.798196 1.10116,13.528604 -0.47193,8.652012 z"
       id="path4996" /><path
       style="opacity:1;fill:#1d65e2;fill-opacity:1;stroke:#000000;stroke-width:0.25;stroke-linecap:round;stroke-dasharray:none"
       d="M 92.969809,91.711334 92.183261,72.204979 89.98093,60.092161 l -4.876588,-7.23623 -0.629237,-0.314619 12.584744,-0.157308 4.090041,5.348518 3.14619,9.438558 0.47193,6.921611 0.62924,6.7643 v 7.550846 3.932735 z"
       id="path5002" /><path
       style="opacity:1;fill:#1d65e2;fill-opacity:1;stroke:#000000;stroke-width:0.25;stroke-linecap:round;stroke-dasharray:none"
       d="m 80.385062,89.98093 0.15731,-7.078919 -0.629237,-14.787075 -1.887712,-7.865467 -6.292374,-6.921609 -11.48358,5.663134 3.460805,1.730404 3.460806,6.606992 1.101164,14.787076 0.15731,5.977752 z"
       id="path5004" /><path
       style="opacity:1;fill:#1d65e2;fill-opacity:1;stroke:#000000;stroke-width:0.25;stroke-linecap:round;stroke-dasharray:none"
       d="m 85.733579,129.30826 3.775423,14.00053 -10.067795,1.25848 -6.606991,-21.07945 z"
       id="path5006"
       sodipodi:nodetypes="ccccc" /><path
       style="opacity:1;fill:#1d65e2;fill-opacity:1;stroke:#000000;stroke-width:0.25;stroke-linecap:round;stroke-dasharray:none"
       d="m 108.38612,126.94862 2.67426,13.52861 10.0678,-0.15731 -3.3035,-13.52861 -6.60699,-1.25847 z"
       id="path5008"
       sodipodi:nodetypes="cccccc" /><path
       style="opacity:1;fill:#1d65e2;fill-opacity:1;stroke:#000000;stroke-width:0.25;stroke-linecap:round;stroke-dasharray:none"
       d="m 60.564087,143.78072 -12.270126,-28.31568 -1.415782,-14.94439 1.101164,-6.449677 20.292901,48.923197 -0.314619,7.07892 z"
       id="path5014" /><path
       style="opacity:1;fill:#1d65e2;fill-opacity:1;stroke:#000000;stroke-width:0.25;stroke-linecap:round;stroke-dasharray:none"
       d="m 66.541842,124.43167 -1.573093,-7.86546 -5.348518,-9.12394 -2.202328,-10.539729 -0.314619,-5.663136 -1.573093,-0.786545 0.471927,-5.191207 h 1.258474 l -4.561969,-16.674791 -2.988879,13.371293 3.775424,13.213985 4.719281,15.57362 z"
       id="path5018" /><path
       style="opacity:1;fill:#ceae45;fill-opacity:0.980392;stroke:#000000;stroke-width:0.25;stroke-linecap:round;stroke-dasharray:none"
       d="m 73.620761,149.75847 v -5.03389 l 22.04239,-2.1928 c 0.710328,1.92969 0.632901,3.19781 0.452845,4.23782 z"
       id="path5020"
       sodipodi:nodetypes="ccccc" /><path
       style="opacity:1;fill:#cbab42;fill-opacity:0.980392;stroke:#000000;stroke-width:0.25;stroke-linecap:round;stroke-dasharray:none"
       d="m 106.18379,141.57839 0.62924,3.77542 20.76483,-0.62923 -0.31462,-3.61812 -0.94386,-1.10116 -20.2929,0.94385 z"
       id="path5022" /><path
       style="opacity:1;fill:#ffffff;fill-opacity:1;stroke:#000000;stroke-width:0.25;stroke-linecap:round;stroke-dasharray:none"
       id="path102750"
       sodipodi:type="arc"
       sodipodi:cx="90.138237"
       sodipodi:cy="109.56595"
       sodipodi:rx="1.4157839"
       sodipodi:ry="1.4944385"
       sodipodi:start="0.0051049019"
       sodipodi:end="6.2763647"
       sodipodi:open="true"
       sodipodi:arc-type="arc"
       d="m 91.554002,109.57358 a 1.4157839,1.4944385 0 0 1 -1.418771,1.4868 1.4157839,1.4944385 0 0 1 -1.412777,-1.49315 1.4157839,1.4944385 0 0 1 1.410347,-1.49571 1.4157839,1.4944385 0 0 1 1.421187,1.48424"
       inkscape:transform-center-x="50.496293"
       inkscape:transform-center-y="-0.47192789" /><path
       style="opacity:1;fill:#ffffff;fill-opacity:1;stroke:#000000;stroke-width:0.204878;stroke-linecap:round;stroke-dasharray:none"
       id="path102752"
       sodipodi:type="arc"
       sodipodi:cx="120.57758"
       sodipodi:cy="109.56595"
       sodipodi:rx="1.0450692"
       sodipodi:ry="1.3596903"
       sodipodi:start="0.0051049019"
       sodipodi:end="6.2763647"
       sodipodi:open="true"
       sodipodi:arc-type="arc"
       d="m 121.62264,109.57289 a 1.0450692,1.3596903 0 0 1 -1.04728,1.35275 1.0450692,1.3596903 0 0 1 -1.04285,-1.35853 1.0450692,1.3596903 0 0 1 1.04106,-1.36084 1.0450692,1.3596903 0 0 1 1.04906,1.3504"
       inkscape:transform-center-x="37.274143"
       inkscape:transform-center-y="-0.42937698" /><path
       style="opacity:1;fill:#708f8f;fill-opacity:1;stroke:#000000;stroke-width:0.665001;stroke-linecap:round;stroke-dasharray:none"
       d="m 91.868643,123.1732 c 0,0 7.616322,-3.85726 10.225107,-7.07892 1.96724,-2.4294 3.61811,-8.65202 3.61811,-8.65202 11.53512,9.22545 43.79252,15.24317 44.99047,33.97882 -11.69922,-8.73191 -30.65961,-17.27956 -58.833687,-18.24788 z"
       id="path4897"
       sodipodi:nodetypes="caccc" /><path
       style="opacity:1;fill:#d6a210;fill-opacity:1;stroke:#000000;stroke-width:0;stroke-linecap:butt;stroke-miterlimit:1.4;stroke-dasharray:none;paint-order:normal"
       d="m 76.86303,144.71607 2e-6,4.44938 3.781972,-0.44494 -0.333703,-4.505 c -1.609852,0.56532 -1.703693,0.33942 -3.448271,0.50056 z"
       id="path68451"
       sodipodi:nodetypes="ccccc" /><path
       style="opacity:1;fill:#d6a210;fill-opacity:1;stroke:#000000;stroke-width:0;stroke-linecap:butt;stroke-miterlimit:1.4;stroke-dasharray:none;paint-order:normal"
       d="m 85.094383,143.71495 0.778642,4.33816 4.060059,-0.55618 -0.278087,-4.22691 z"
       id="path70370"
       sodipodi:nodetypes="ccccc" /><path
       style="opacity:1;fill:#bd9631;fill-opacity:0.980392;stroke:#000000;stroke-width:0;stroke-linecap:butt;stroke-miterlimit:1.4;stroke-dasharray:none;paint-order:normal"
       d="m 89.265678,143.2144 0.723023,4.39376 2.391541,-0.55617 -0.500557,-3.94882 z"
       id="path70372"
       sodipodi:nodetypes="ccccc" /><path
       style="opacity:1;fill:#bd9631;fill-opacity:0.980392;stroke:#000000;stroke-width:0;stroke-linecap:butt;stroke-miterlimit:1.4;stroke-dasharray:none;paint-order:normal"
       d="m 80.311301,144.21551 0.444937,4.505 2.44716,-0.44494 -0.222471,-4.39376 z"
       id="path72084"
       sodipodi:nodetypes="ccccc" /><path
       style="opacity:1;fill:#5c7676;fill-opacity:1;stroke:#000000;stroke-width:0;stroke-linecap:butt;stroke-miterlimit:1.4;stroke-dasharray:none;paint-order:normal"
       d="m 99.666109,118.6872 -6.674078,4.44938 c 20.855619,1.13193 40.670009,5.16443 57.396999,17.79752 -12.3819,-8.79443 -11.23757,-14.35659 -50.722921,-22.2469 z"
       id="path72086"
       sodipodi:nodetypes="cccc" /><path
       style="opacity:1;fill:#00aa83;fill-opacity:1;stroke:#000000;stroke-width:0;stroke-linecap:butt;stroke-miterlimit:1.4;stroke-dasharray:none;paint-order:normal"
       d="m 90.878577,129.58818 1.890985,5.67296 c 1.22426,1.9424 2.747453,3.20152 5.005554,2.78086 5.243524,0.0775 5.611214,-3.0185 6.006664,-3.83759 -1.56592,1.05025 -2.83488,2.51789 -6.1179,2.28031 -1.448672,-0.22785 -3.18593,0.5832 -3.948822,-2.11346 -0.598426,-0.9561 -0.284617,-1.67985 -0.44494,-2.33593 0.781174,-2.08824 7.041562,-1.32173 10.734132,-1.55728 v -1.77974 c -3.9724,1.26339 -8.412917,1.40333 -13.125673,0.88987 z"
       id="path74085"
       sodipodi:nodetypes="cccccccccc" /><path
       style="opacity:1;fill:#00aa83;fill-opacity:1;stroke:#000000;stroke-width:0;stroke-linecap:butt;stroke-miterlimit:1.4;stroke-dasharray:none;paint-order:normal"
       d="m 65.40588,93.881907 -7.119008,-2.113454 -0.778643,1.557282 c 1.042855,20.885295 11.617462,31.339605 28.364796,35.038865 6.473979,0.99979 13.030494,1.17422 19.799735,-0.77864 -13.039476,-1.5046 -36.605701,-4.28899 -40.044413,-25.139 z"
       id="path74417"
       sodipodi:nodetypes="ccccccc" /><path
       style="opacity:1;fill:#be9631;fill-opacity:1;stroke:#000000;stroke-width:0;stroke-linecap:butt;stroke-miterlimit:1.4;stroke-dasharray:none;paint-order:normal"
       d="m 70.566727,89.037077 -0.09215,4.404659 8.809321,1.887712 V 90.61017 Z"
       id="path75562"
       sodipodi:nodetypes="ccccc" /><path
       style="opacity:1;fill:#d6a210;fill-opacity:1;stroke:#000000;stroke-width:0;stroke-linecap:butt;stroke-miterlimit:1.4;stroke-dasharray:none;paint-order:normal"
       d="m 88.407839,91.960792 -0.222468,4.554065 10.198114,0.924772 -0.09215,-4.608046 z"
       id="path75564"
       sodipodi:nodetypes="ccccc" /><path
       style="opacity:1;fill:#d6a210;fill-opacity:1;stroke:#000000;stroke-width:0;stroke-linecap:butt;stroke-miterlimit:1.4;stroke-dasharray:none;paint-order:normal"
       d="m 116.83475,92.644009 0.83262,4.554067 7.88783,-0.40677 -0.90569,-4.995726 z"
       id="path75566"
       sodipodi:nodetypes="ccccc" /><path
       style="opacity:1;fill:#d6a210;fill-opacity:1;stroke:#000000;stroke-width:0;stroke-linecap:butt;stroke-miterlimit:1.4;stroke-dasharray:none;paint-order:normal"
       d="m 57.85166,86.186424 -0.165215,3.867574 5.551902,1.738305 0.667407,-4.420469 z"
       id="path75568"
       sodipodi:nodetypes="ccccc" /><path
       style="opacity:1;fill:#be9631;fill-opacity:1;stroke:#000000;stroke-width:0;stroke-linecap:butt;stroke-miterlimit:1.4;stroke-dasharray:none;paint-order:normal"
       d="m 106.22987,93.146201 0.44494,4.515896 6.60698,-0.314613 -0.72138,-4.515896 z"
       id="path75570"
       sodipodi:nodetypes="ccccc" /><path
       style="opacity:0.506667;fill:#103678;fill-opacity:1;stroke:#000000;stroke-width:0;stroke-linecap:butt;stroke-miterlimit:1.4;stroke-dasharray:none;paint-order:normal"
       d="M 114.8358,91.554026 C 97.271694,93.856201 77.456756,90.306215 56.945974,84.947034 l -0.943856,6.292374 h 1.573093 c -2.692325,21.054422 16.635874,35.584242 28.576318,52.303032 l -12.530768,0.86752 -3.460803,-15.1017 2.240498,7.91944 c -3.947966,-4.69935 -10.25657,-7.48207 -17.41582,-22.8287 -7.314537,-17.215707 -5.163618,-5.95963 -5.589508,-32.912772 1.781223,-5.972909 0.90074,-5.962918 4.458639,-17.265855 l 5.294538,-5.386687 c 4.825777,9.301501 -0.87312,18.49402 18.397848,24.317786 z"
       id="path75572"
       sodipodi:nodetypes="cccccccccccccc" /></g></svg>
