<?xml version="1.0" encoding="UTF-8" standalone="no"?>
<!-- Created with Inkscape (http://www.inkscape.org/) -->

<svg
   width="210mm"
   height="297mm"
   viewBox="0 0 210 297"
   version="1.1"
   id="svg5"
   xml:space="preserve"
   inkscape:version="1.2.1 (9c6d41e410, 2022-07-14)"
   sodipodi:docname="ThothFalling.svg"
   inkscape:export-filename="..\Assets\Sprites\Thoth Jump.png"
   inkscape:export-xdpi="96"
   inkscape:export-ydpi="96"
   xmlns:inkscape="http://www.inkscape.org/namespaces/inkscape"
   xmlns:sodipodi="http://sodipodi.sourceforge.net/DTD/sodipodi-0.dtd"
   xmlns="http://www.w3.org/2000/svg"
   xmlns:svg="http://www.w3.org/2000/svg"><sodipodi:namedview
     id="namedview7"
     pagecolor="#ffffff"
     bordercolor="#000000"
     borderopacity="0.25"
     inkscape:showpageshadow="2"
     inkscape:pageopacity="0.0"
     inkscape:pagecheckerboard="0"
     inkscape:deskcolor="#d1d1d1"
     inkscape:document-units="mm"
     showgrid="false"
     inkscape:zoom="1.1893044"
     inkscape:cx="-40.359726"
     inkscape:cy="211.46815"
     inkscape:window-width="1440"
     inkscape:window-height="830"
     inkscape:window-x="-6"
     inkscape:window-y="-6"
     inkscape:window-maximized="1"
     inkscape:current-layer="layer3" /><defs
     id="defs2" /><g
     inkscape:groupmode="layer"
     id="layer5"
     inkscape:label="Braccio sinistro"
     transform="translate(36.92985,2.2246898)"><path
       style="opacity:1;fill:#ffccaa;stroke:#000000;stroke-width:0.300703;stroke-linecap:round;stroke-dasharray:none"
       d="m -1.9083076,33.755328 c 1.8907237,0.157124 2.12756879,0.368902 3.3746072,-0.342695 1.2353649,-1.234624 3.2038742,-2.982421 3.9408075,-4.275435 -0.8315988,-0.417147 -1.5317424,-0.945163 -1.7028153,-1.919389 0.1079772,-0.170812 0.1401925,-0.108948 -1.0628622,0.871679 -1.1885163,0.968744 -1.5619859,1.253387 -2.11214874,2.136944 -0.37346238,0.599778 -1.45850236,-0.265587 -1.95144506,0.0036 -0.069872,0.005 -0.8165536,1.139966 -0.8317687,3.242262 -0.00235,0.324732 0.3456157,0.283044 0.3456157,0.283044 z"
       id="path4731"
       sodipodi:nodetypes="ccccsscsc"
       inkscape:transform-center-x="-5.4276666"
       inkscape:transform-center-y="-1.2546767" /><path
       style="opacity:1;fill:#ffccaa;stroke:#000000;stroke-width:0.293002;stroke-linecap:round;stroke-dasharray:none"
       d="m -6.9952784,28.866089 c -0.2370379,0.690803 -0.278522,1.05653 0.7252208,2.068038 0.6051258,0.635317 0.8656307,1.373826 1.7413949,1.770926 1.0980768,-1.176927 2.201676,-1.878192 2.9809894,-2.126844 -0.1567085,-0.668288 -0.987133,-1.262424 -1.6994455,-2.208244 -0.5268674,-0.289897 -1.1495087,-0.75888 -1.7500589,-0.862227 -0.8779281,0.0968 -1.7450084,0.620762 -1.9981007,1.358351 z"
       id="path4756"
       sodipodi:nodetypes="accccca"
       inkscape:transform-center-x="-1.0352125"
       inkscape:transform-center-y="0.5634485" /><path
       style="opacity:1;fill:#ffccaa;fill-opacity:1;stroke:#000000;stroke-width:0.300703;stroke-linecap:round;stroke-dasharray:none"
       d="M 6.8133292,27.672919 8.0001008,27.390179 9.41382,26.700577 9.4513126,26.238055 8.8204779,25.405588 7.8314769,26.598778 8.6372652,25.272843 8.1896468,24.573118 7.9293955,24.433524 6.9091909,24.575792 8.2208859,24.187685 8.9163011,23.744819 9.0433281,23.134977 8.5707146,22.743592 7.8107633,23.025444 6.6239925,23.308191 6.3033564,23.434974 5.7432681,24.122795 5.1893815,26.16989 Z"
       id="path4765"
       inkscape:transform-center-x="-11.171433"
       inkscape:transform-center-y="-6.5741495" /><path
       style="opacity:1;fill:#ffccaa;fill-opacity:1;stroke:#000000;stroke-width:0.300703;stroke-linecap:round;stroke-dasharray:none"
       d="m 7.4734741,22.879008 0.5018028,-0.925922 0.8661352,-0.155956 0.6433265,0.678302 -0.6058839,0.295543 0.9306739,0.0051 0.2831444,0.335723 -0.03124,0.385433 0.47886,0.314295 0.164468,0.364 -0.204056,0.602999 0.472611,0.39138 -0.15617,0.490791 -0.58923,0.56878 L 9.5512486,26.441082 9.051584,25.426167 9.295197,25.292539 8.916272,25.181223 8.5623387,24.761565 8.6643667,24.460068 8.2437961,24.383868 8.9038167,23.899035 9.1432679,23.338006 8.618619,22.631428 Z"
       id="path4773"
       inkscape:transform-center-x="-13.07448"
       inkscape:transform-center-y="-7.6632988" /><path
       style="opacity:1;fill:#00ffff;stroke:#000000;stroke-width:0.300703;stroke-linecap:round;stroke-dasharray:none"
       d="M 8.6643582,24.460019 10.061435,23.497195 Z"
       id="path4775"
       inkscape:transform-center-x="-13.213982"
       inkscape:transform-center-y="-7.8037978" /><path
       style="opacity:1;fill:#ffccaa;stroke:#000000;stroke-width:0.231176;stroke-linecap:round;stroke-dasharray:none"
       d="M 9.3659742,25.37642 10.5361,24.820453 Z"
       id="path4777"
       inkscape:transform-center-x="-13.802122"
       inkscape:transform-center-y="-6.6839683" /><path
       style="opacity:1;fill:#c6a186;fill-opacity:1;stroke:#000000;stroke-width:0;stroke-linecap:round;stroke-dasharray:none"
       d="m -6.0842821,30.75754 c -0.092068,0.07398 0.4745612,1.194864 1.479902,1.864887 l 2.1102192,-1.735381 c 0,0 -0.7698147,-0.0413 -1.1236243,0.07771 -0.4202244,0.141331 -0.6501917,0.728031 -1.0962183,0.725231 -0.5628241,-0.0037 -1.3702786,-0.932445 -1.3702786,-0.932445 z"
       id="path35913"
       sodipodi:nodetypes="cccaac" /><path
       style="opacity:0.673333;fill:#c6a186;fill-opacity:1;stroke:#000000;stroke-width:0;stroke-linecap:round;stroke-dasharray:none"
       d="m -1.6624982,30.966074 c -0.5920443,0.846735 -0.4784076,1.805395 -0.4677528,2.705686 0.7983209,0.07748 2.42554082,0.431966 3.4572352,-0.294496 1.3765685,-1.135221 3.1589954,-3.00312 3.9299744,-4.212187 L 4.8603327,29.032784 c 0,0 -2.2937082,3.205987 -4.00908484,3.991641 -0.6394225,0.292862 -1.54782846,0.59517 -2.10806706,0.162052 -0.5961834,-0.460904 -0.405679,-2.220403 -0.405679,-2.220403 z"
       id="path35915"
       sodipodi:nodetypes="cccccaac"
       inkscape:transform-center-x="-5.4066586"
       inkscape:transform-center-y="-0.35281199" /><path
       style="opacity:0.498462;fill:#c6a186;fill-opacity:1;stroke:#000000;stroke-width:0;stroke-linecap:round;stroke-dasharray:none"
       d="m 5.3434487,26.183582 1.5594116,1.342013 C 6.9497643,27.679315 7.6353621,27.3432 8.089628,27.242851 L 9.426317,26.546402 C 9.2876513,26.273875 9.2447432,26.034495 8.724704,25.629998 L 8.0146933,26.73152 7.6732926,26.495707 C 8.0389172,26.219028 8.1454582,25.843922 8.3457756,25.518681 8.4656288,25.37596 8.6118052,25.233198 8.3416255,25.091286 8.3046816,24.839282 8.1256342,24.66523 7.859318,24.539052 l -0.8263814,0.173219 -0.1404551,-0.176774 1.3408926,-0.501966 0.4164217,-0.351205 0.2685994,-0.441982 -2.4110331,1.028005 -0.3331327,0.28096 0.045792,0.392273 1.2013226,0.494961 0.2414989,0.370848 -0.2685941,0.441978 -0.5163504,0.148224 z"
       id="path35917"
       sodipodi:nodetypes="ccccccccccccccccccccccc"
       inkscape:transform-center-x="-11.235968"
       inkscape:transform-center-y="-6.3796201" /><g
       id="g61520"
       transform="matrix(0.14291418,0.14353255,-0.20737283,0.21236783,48.425494,-41.175369)"
       inkscape:transform-center-x="-9.201768"
       inkscape:transform-center-y="-4.4307193"><path
         style="opacity:1;fill:#d1a943;fill-opacity:0.823529;stroke:#000000;stroke-width:0.664971;stroke-linecap:round;stroke-dasharray:none"
         d="m 75.980402,262.86387 0.235965,5.89909 c 5.138771,2.51086 10.828123,1.95617 15.966894,0.0787 l 0.314621,-5.89909 c -5.292554,0.68366 -11.015231,0.91521 -16.51748,-0.0787 z"
         id="path61510"
         sodipodi:nodetypes="cccccc"
         inkscape:label="Parte gialla" /><path
         style="opacity:1;fill:#d6a210;fill-opacity:1;stroke:#000000;stroke-width:0;stroke-linecap:butt;stroke-dasharray:none;paint-order:normal"
         d="m 86.36759,263.86335 -0.03933,6.06314 c 1.377187,-0.15809 2.736399,-0.35213 3.967291,-0.80281 v -5.57495 z"
         id="path61512"
         sodipodi:nodetypes="ccccc" /><path
         style="opacity:1;fill:#d6a210;fill-opacity:1;stroke:#000000;stroke-width:0;stroke-linecap:round;stroke-dasharray:none"
         d="m 81.250265,263.80196 0.157308,6.14082 -2.08237,-0.38258 -0.305078,-5.85894 z"
         id="path61514"
         sodipodi:nodetypes="ccccc" /><path
         style="opacity:1;fill:#bd9631;fill-opacity:0.980392;stroke:#000000;stroke-width:0;stroke-linecap:round;stroke-dasharray:none"
         d="m 76.313287,263.30799 0.217693,5.21903 1.207628,0.51801 -0.05562,-5.60276 z"
         id="path61516"
         sodipodi:nodetypes="ccccc" /><path
         style="opacity:1;fill:#b8922d;fill-opacity:0.823529;stroke:#000000;stroke-width:0;stroke-linecap:round;stroke-miterlimit:1.4;stroke-dasharray:none"
         d="m 81.065145,263.77516 0.342428,6.21847 1.927039,0.10651 -0.353945,-6.21372 z"
         id="path61518"
         sodipodi:nodetypes="ccccc" /></g><g
       id="g61532"
       transform="matrix(-0.05727854,0.25380644,-0.28198367,-0.05532919,77.219397,24.764793)"
       inkscape:transform-center-x="-0.2958999"
       inkscape:transform-center-y="0.46356629"><path
         style="opacity:1;fill:#d1a943;fill-opacity:0.823529;stroke:#000000;stroke-width:0.665001;stroke-linecap:round;stroke-dasharray:none"
         d="m 75.980402,262.86387 0.235965,5.89909 c 5.138771,2.51086 10.828123,1.95617 15.966894,0.0787 l 0.314621,-5.89909 c -5.292554,0.68366 -11.015231,0.91521 -16.51748,-0.0787 z"
         id="path61522"
         sodipodi:nodetypes="ccccc"
         inkscape:label="Parte gialla" /><path
         style="opacity:1;fill:#d6a210;fill-opacity:1;stroke:#000000;stroke-width:0;stroke-linecap:butt;stroke-dasharray:none;paint-order:normal"
         d="m 86.36759,263.86335 -0.03933,6.06314 c 1.377187,-0.15809 2.736399,-0.35213 3.967291,-0.80281 v -5.57495 z"
         id="path61524"
         sodipodi:nodetypes="ccccc" /><path
         style="opacity:1;fill:#d6a210;fill-opacity:1;stroke:#000000;stroke-width:0;stroke-linecap:round;stroke-dasharray:none"
         d="m 81.250265,263.80196 0.157308,6.14082 -2.08237,-0.38258 -0.305078,-5.85894 z"
         id="path61526"
         sodipodi:nodetypes="ccccc" /><path
         style="opacity:1;fill:#bd9631;fill-opacity:0.980392;stroke:#000000;stroke-width:0;stroke-linecap:round;stroke-dasharray:none"
         d="m 76.313287,263.30799 0.217693,5.21903 1.207628,0.51801 -0.05562,-5.60276 z"
         id="path61528"
         sodipodi:nodetypes="ccccc" /><path
         style="opacity:1;fill:#b8922d;fill-opacity:0.823529;stroke:#000000;stroke-width:0;stroke-linecap:round;stroke-miterlimit:1.4;stroke-dasharray:none"
         d="m 81.065145,263.77516 0.342428,6.21847 1.927039,0.10651 -0.353945,-6.21372 z"
         id="path61530"
         sodipodi:nodetypes="ccccc" /></g><g
       id="g2113"
       transform="matrix(-0.21227074,0.21935952,-0.41064583,-0.46343941,143.90224,59.086365)"
       inkscape:transform-center-x="-12.254181"
       inkscape:transform-center-y="-6.9041309"><path
         style="fill:#d6a210;fill-opacity:1;stroke:#000000;stroke-width:0.4;stroke-miterlimit:0.6;stroke-dasharray:none;stroke-opacity:1"
         d="m 252.91462,199.98107 0.69461,0.0983 c -0.49613,0.25168 -3.2801,16.82246 -3.4879,17.2989 -0.71887,1.6482 7.82136,3.343 12.39439,1.97338 1.11639,-0.33436 1.83478,-1.0987 1.32309,-3.33926 l -0.2741,-15.75452 -6.80482,-0.76296 z"
         id="path2109"
         sodipodi:nodetypes="ccsscccc" /><g
         id="g2228"
         transform="translate(-0.92739761,3.3402042)"><path
           sodipodi:type="spiral"
           style="fill:#d6a210;fill-opacity:1;fill-rule:evenodd;stroke:#000000;stroke-width:2.15514;stroke-dasharray:none"
           id="path2111"
           sodipodi:cx="716.38513"
           sodipodi:cy="472.54514"
           sodipodi:expansion="1"
           sodipodi:revolution="2.9282498"
           sodipodi:radius="30.099205"
           sodipodi:argument="-17.730213"
           sodipodi:t0="0"
           d="m 716.38513,472.54514 c 0.67453,1.3912 -1.54253,1.59561 -2.31227,1.1211 -2.08596,-1.2859 -1.44495,-4.3068 0.0701,-5.74566 2.71,-2.57377 7.04905,-1.48005 9.17904,1.26124 3.12584,4.02296 1.5298,9.83342 -2.45241,12.61242 -5.30765,3.70397 -12.63337,1.58658 -16.0458,-3.64358 -4.29418,-6.58163 -1.64718,-15.44092 4.83475,-19.47918 7.8505,-4.89087 18.25277,-1.71002 22.91256,6.02592 5.4914,9.11655 1.77427,21.06731 -7.21709,26.34594 -10.38089,6.09439 -23.88364,1.83946 -29.77932,-8.40826 -6.69904,-11.64412 -1.9053,-26.70124 9.59943,-33.2127 12.90658,-7.30488 29.51975,-1.97162 36.64608,10.7906 5.42069,9.70768 4.564,21.94309 -1.81504,30.98848"
           transform="matrix(0.26035523,0.00744612,0.00506433,0.07565118,68.294357,173.02554)" /><ellipse
           style="opacity:0.461538;fill:#7d5d0d;fill-opacity:1;stroke:#000000;stroke-width:0.336049;stroke-miterlimit:0.6;stroke-dasharray:none;stroke-opacity:1"
           id="path2167"
           cx="-268.35052"
           cy="-201.18257"
           transform="rotate(-177.14855)"
           rx="6.9818726"
           ry="2.0500476" /><path
           style="opacity:0.461538;fill:#7d5d0d;fill-opacity:1;stroke:#000000;stroke-width:0;stroke-miterlimit:0.6;stroke-dasharray:none;stroke-opacity:1"
           d="m 264.56411,212.57136 0.0767,1.0072 c -4.7309,-1.78154 -9.20381,-1.96446 -13.41778,-0.5429 l 2.95479,-16.03227 2.95679,-0.7934 c -2.05145,4.38468 -4.77005,9.74729 -4.57156,15.38735 2.59028,-0.50494 5.11867,-1.39769 12.0011,0.97402 z"
           id="path2223"
           sodipodi:nodetypes="ccccccc" /></g><path
         style="fill:#d6a210;fill-opacity:1;stroke:#000000;stroke-width:0.4;stroke-miterlimit:0.6;stroke-dasharray:none;stroke-opacity:1"
         d="m 264.55238,193.67216 0.17205,0.39071 c 0.50973,-0.24489 2.57886,-18.15197 2.81123,-18.62474 0.80387,-1.6355 -7.66376,-3.43374 -12.31377,-2.12459 -1.13518,0.31959 -1.8936,1.07321 -1.49509,3.3152 l 1.47508,15.49248 4.7748,1.07702 z"
         id="path2238"
         sodipodi:nodetypes="ccsscccc" /><g
         id="g2246"
         transform="matrix(-1.0015958,-0.01255515,0.05087569,-0.99776898,507.86795,391.75991)"><path
           sodipodi:type="spiral"
           style="fill:#d6a210;fill-opacity:1;fill-rule:evenodd;stroke:#000000;stroke-width:2.15514;stroke-dasharray:none"
           id="path2240"
           sodipodi:cx="716.38513"
           sodipodi:cy="472.54514"
           sodipodi:expansion="1"
           sodipodi:revolution="2.9282498"
           sodipodi:radius="30.099205"
           sodipodi:argument="-17.730213"
           sodipodi:t0="0"
           d="m 716.38513,472.54514 c 0.67453,1.3912 -1.54253,1.59561 -2.31227,1.1211 -2.08596,-1.2859 -1.44495,-4.3068 0.0701,-5.74566 2.71,-2.57377 7.04905,-1.48005 9.17904,1.26124 3.12584,4.02296 1.5298,9.83342 -2.45241,12.61242 -5.30765,3.70397 -12.63337,1.58658 -16.0458,-3.64358 -4.29418,-6.58163 -1.64718,-15.44092 4.83475,-19.47918 7.8505,-4.89087 18.25277,-1.71002 22.91256,6.02592 5.4914,9.11655 1.77427,21.06731 -7.21709,26.34594 -10.38089,6.09439 -23.88364,1.83946 -29.77932,-8.40826 -6.69904,-11.64412 -1.9053,-26.70124 9.59943,-33.2127 12.90658,-7.30488 29.51975,-1.97162 36.64608,10.7906 5.42069,9.70768 4.564,21.94309 -1.81504,30.98848"
           transform="matrix(0.26035523,0.00744612,0.00506433,0.07565118,68.294357,173.02554)" /><ellipse
           style="opacity:0.461538;fill:#7d5d0d;fill-opacity:1;stroke:#000000;stroke-width:0.336049;stroke-miterlimit:0.6;stroke-dasharray:none;stroke-opacity:1"
           id="ellipse2242"
           cx="-268.35052"
           cy="-201.18257"
           transform="rotate(-177.14855)"
           rx="6.9818726"
           ry="2.0500476" /><path
           style="opacity:0.461538;fill:#7d5d0d;fill-opacity:1;stroke:#000000;stroke-width:0;stroke-miterlimit:0.6;stroke-dasharray:none;stroke-opacity:1"
           d="m 264.56411,212.57136 0.0767,1.0072 c -4.7309,-1.78154 -9.20381,-1.96446 -13.41778,-0.5429 l 0.98396,-17.79036 4.92731,0.6987 c -2.05145,4.38468 -4.76974,10.01328 -4.57125,15.65334 2.59028,-0.50494 5.11867,-1.39769 12.0011,0.97402 z"
           id="path2244"
           sodipodi:nodetypes="cccccccc" /></g></g></g><g
     inkscape:groupmode="layer"
     id="layer3"
     inkscape:label="Gamba2"
     transform="translate(-64.516003,-0.44493798)"><path
       style="opacity:1;fill:#ffccaa;stroke:#000000;stroke-width:0.265336;stroke-dasharray:none"
       d="m 82.937413,64.057542 c 0.367936,0.947923 1.241284,3.12945 0.976866,4.536171 -0.390639,1.128975 -0.27798,3.396706 -0.16845,4.670428 0.252387,1.41852 0.552032,3.285205 0.973502,3.811902 1.580961,-0.0015 3.176825,-0.613979 4.694337,-0.989719 -0.134839,-2.505198 -0.174625,-4.993786 -0.799891,-7.775897 l -0.848557,1.149307 1.286296,-2.011065 c 0.325496,-0.662869 0.267466,-2.682973 0.402289,-4.470629 -3.144137,0.643777 -4.753754,0.872487 -6.516418,1.079509 z"
       id="path495"
       sodipodi:nodetypes="cccccccccc"
       inkscape:label="Contorno"
       inkscape:transform-center-x="-0.60999152"
       inkscape:transform-center-y="6.2904578" /><path
       style="opacity:1;fill:#ffccaa;fill-opacity:0.980392;stroke:#000000;stroke-width:0.265336;stroke-linecap:round;stroke-dasharray:none"
       d="m 86.084569,81.428949 c 0.26019,0.825388 0.419502,1.751328 1.02898,2.397175 0.163397,0.173152 0.40551,0.293212 0.653341,0.341953 0.949816,0.1868 1.978944,-0.02616 2.941833,-0.239535 1.076008,-0.238425 2.290119,-0.3045 3.094984,-1.146605 0.400777,-0.651173 0.182439,-1.381136 -0.268843,-1.821103 -0.674291,-0.657392 -2.055278,-0.426965 -2.940887,-0.537794 -0.288624,-0.257156 -0.709858,-2.058069 -0.787004,-2.477237 -1.066467,0.570387 -2.415385,1.101183 -4.423477,1.150678 z"
       id="path3254"
       sodipodi:nodetypes="caaacacccc"
       inkscape:label="Piede"
       inkscape:transform-center-x="-4.1130892"
       inkscape:transform-center-y="17.356226" /><path
       style="opacity:1;fill:#ddb292;fill-opacity:1;stroke:#000000;stroke-width:0;stroke-linecap:round;stroke-dasharray:none"
       d="m 89.129335,63.880669 0.210505,-0.661415 -6.195761,0.928715 1.071098,3.470572 -0.238687,1.657049 c -0.281009,0.975896 -0.168937,1.73815 -0.238279,2.551794 0.07084,0.959189 0.190916,1.867418 0.45657,2.625027 l 0.39904,1.932004 0.146033,0.625263 1.137097,-0.265528 -0.905413,-5.440244 c 0,0 -0.574198,-1.119807 -0.07612,-1.442245 0.420788,-0.272417 0.614724,1.062797 1.381992,0.336651 0.451166,-0.01016 -0.840877,-1.248804 -0.948256,-2.274742 l -0.375443,-1.607822 c 0,0 -0.314134,-0.84937 -0.302488,-1.295186 0.0036,-0.137493 0.11433,-0.403474 0.11433,-0.403474 l -0.124761,0.358806 0.967933,-0.320196 1.285432,-0.300145 z"
       id="path8141"
       sodipodi:nodetypes="cccccccccccscccaccccc"
       inkscape:transform-center-x="-0.656355"
       inkscape:transform-center-y="6.3778823" /><path
       style="opacity:1;fill:#775338;fill-opacity:1;stroke:#000000;stroke-width:0.265336;stroke-linecap:round;stroke-dasharray:none"
       d="m 86.196386,81.237991 c 1.365772,0.266901 2.802546,0.408895 4.174343,-1.045416 0.08959,0.03464 0.0139,0.08908 0.270748,0.266453 1.692744,0.06113 1.416239,0.02349 2.040934,0.08858 0.29464,0.104436 0.516328,0.211541 0.715814,0.386245 0.205744,0.180207 0.395779,0.401141 0.466103,0.65649 0.06551,0.237927 0.01948,0.504035 -0.06082,0.744216 -0.06692,0.200192 -0.170729,0.406831 -0.34067,0.550519 -0.412469,0.348729 -0.980728,0.64691 -1.438753,0.759838 -0.987034,0.243455 -1.702314,0.268955 -2.524691,0.518898 -1.358051,0.412727 -2.073127,0.201509 -2.805119,-1.016909 z"
       id="path48333"
       sodipodi:nodetypes="ccccaaassscc"
       inkscape:transform-center-x="-4.4603487"
       inkscape:transform-center-y="18.537939" /><path
       style="opacity:0.346667;fill:#775338;fill-opacity:1;stroke:#000000;stroke-width:0.357359;stroke-linecap:round;stroke-dasharray:none"
       d="m 86.554179,81.551195 0.280247,1.200061 0.103257,0.442134 0.447375,0.494976 0.508001,0.281015 0.750798,0.05779 3.534062,-0.754905 1.183088,-0.540312 0.469527,-0.909259 c -0.951273,1.2152 -2.76877,1.488408 -4.453591,1.861123 -0.658335,0.141412 -1.346045,0.475378 -2.1388,-0.667555 l -0.326084,-1.362565 z"
       id="path48392"
       sodipodi:nodetypes="ccccccccccccc"
       inkscape:transform-center-x="-4.6067521"
       inkscape:transform-center-y="19.0526" /><path
       style="opacity:0.346667;fill:#775338;fill-opacity:1;stroke:#000000;stroke-width:0;stroke-linecap:round;stroke-dasharray:none"
       d="m 86.123453,79.154062 c -0.142896,0.391756 -0.07973,0.796599 0.179035,1.240341 0.14465,0.440108 0.640239,0.690348 0.952642,0.843235 0.04059,0.06436 0.661103,0.101968 1.271502,-0.08043 1.082949,0.07652 1.399717,-0.820813 1.802817,-1.120353 -0.01834,0.03889 -1.91281,1.23735 -3.110516,0.493228 -0.4125,-0.256283 -0.590358,-1.344117 -0.590358,-1.344117 z"
       id="path48418"
       sodipodi:nodetypes="cccccscc"
       inkscape:transform-center-x="-2.6034655"
       inkscape:transform-center-y="16.485782" /><path
       style="opacity:0.346667;fill:#775338;fill-opacity:1;stroke:#000000;stroke-width:0.357359;stroke-linecap:round;stroke-dasharray:none"
       d="m 85.838316,79.353854 c 0.156966,0.889428 0.415888,1.827321 0.491077,1.55046 l 0.723362,0.413893 c 0,0 -0.717282,-0.470889 -0.889149,-0.808121 C 86.00722,80.20331 85.552625,79.314344 86.059132,79.35225 Z"
       id="path48407"
       sodipodi:nodetypes="cccscc"
       inkscape:transform-center-x="-0.85392598"
       inkscape:transform-center-y="16.598057" /><g
       id="g61490"
       transform="matrix(0.31428099,-0.07338868,0.06629707,0.28391171,43.168155,8.1589086)"
       inkscape:transform-center-x="-1.6331312"
       inkscape:transform-center-y="9.5704854"><path
         style="opacity:1;fill:#00ffff;stroke:#000000;stroke-width:0.665;stroke-dasharray:none"
         d="m 85.79437,231.70703 c -0.77007,2.63671 -0.169669,5.83312 0.746062,7.44712 -0.932966,-1.65217 -1.476467,-1.77521 -0.746062,-7.44712 z"
         id="path1052"
         sodipodi:nodetypes="ccc"
         inkscape:label="Rotula" /><path
         style="opacity:1;fill:#d1a943;fill-opacity:0.823529;stroke:#000000;stroke-width:0.665001;stroke-linecap:round;stroke-dasharray:none"
         d="m 75.980402,262.86387 0.235965,5.89909 c 5.138771,2.51086 10.828123,1.95617 15.966894,0.0787 l 0.314621,-5.89909 c -5.292554,0.68366 -11.015231,0.91521 -16.51748,-0.0787 z"
         id="path3249"
         sodipodi:nodetypes="cccccc"
         inkscape:label="Parte gialla" /><path
         style="opacity:1;fill:#d6a210;fill-opacity:1;stroke:#000000;stroke-width:0;stroke-linecap:butt;stroke-dasharray:none;paint-order:normal"
         d="m 86.36759,263.86335 -0.03933,6.06314 c 1.377187,-0.15809 2.736399,-0.35213 3.967291,-0.80281 v -5.57495 z"
         id="path48424"
         sodipodi:nodetypes="ccccc" /><path
         style="opacity:1;fill:#d6a210;fill-opacity:1;stroke:#000000;stroke-width:0;stroke-linecap:round;stroke-dasharray:none"
         d="m 81.250265,263.80196 0.157308,6.14082 -2.08237,-0.38258 -0.305078,-5.85894 z"
         id="path48426"
         sodipodi:nodetypes="ccccc" /><path
         style="opacity:1;fill:#bd9631;fill-opacity:0.980392;stroke:#000000;stroke-width:0;stroke-linecap:round;stroke-dasharray:none"
         d="m 76.313287,263.30799 0.217693,5.21903 1.207628,0.51801 -0.05562,-5.60276 z"
         id="path57707"
         sodipodi:nodetypes="ccccc" /><path
         style="opacity:1;fill:#b8922d;fill-opacity:0.823529;stroke:#000000;stroke-width:0;stroke-linecap:round;stroke-miterlimit:1.4;stroke-dasharray:none"
         d="m 81.065145,263.77516 0.342428,6.21847 1.927039,0.10651 -0.353945,-6.21372 z"
         id="path57709"
         sodipodi:nodetypes="ccccc" /></g></g><g
     inkscape:groupmode="layer"
     id="layer2"
     inkscape:label="Gamba destra"
     transform="translate(4.8943181,4.0044415)"><path
       style="opacity:1;fill:#ffccaa;stroke:#000000;stroke-width:0.262051;stroke-linecap:round;stroke-dasharray:none"
       d="m 22.540687,59.928606 c 0.41302,1.47484 0.697314,2.981282 1.541336,4.350312 -0.278529,1.231152 -0.05802,2.59408 0.17095,3.959259 l 1.121364,4.122742 c 1.560596,-0.07004 3.00953,-0.594987 4.471984,-1.064813 -0.370801,-2.688535 -0.503282,-5.553851 -1.38451,-8.518982 l -0.751625,1.083723 1.129236,-1.708842 c 0.258444,-0.727016 0.185546,-2.80374 0.149031,-4.73222 z"
       id="path303"
       sodipodi:nodetypes="cccccccccc"
       inkscape:label="Contorno"
       inkscape:transform-center-x="-0.47192903"
       inkscape:transform-center-y="6.3171322" /><path
       style="opacity:1;fill:#00ffff;stroke:#000000;stroke-width:0.201461;stroke-dasharray:none"
       d="m 25.124911,62.651567 c 0.247222,0.573114 0.300057,1.233136 1.126503,1.547285 -0.702621,-0.204633 -0.839954,-0.950948 -1.126503,-1.547285 z"
       id="path2521"
       sodipodi:nodetypes="ccc"
       inkscape:label="Rotula"
       inkscape:transform-center-x="0.03341243"
       inkscape:transform-center-y="4.8519897" /><path
       style="opacity:1;fill:#ddb292;fill-opacity:1;stroke:#000000;stroke-width:0;stroke-linecap:round;stroke-dasharray:none"
       d="m 28.816107,58.495208 -0.03838,-0.785577 -6.021477,2.32003 0.82787,2.742965 c 0.317377,0.873281 0.491936,1.164832 0.637881,1.339889 l -0.176565,2.007476 0.449846,2.461648 1.049692,3.436743 -0.113216,0.16809 1.100931,-0.129981 -1.222945,-4.142456 c 0,0 -1.038227,-4.439654 -0.35336,-3.3271 0.400615,0.650821 1.263025,0.110817 1.263025,0.110817 L 24.96592,62.947818 24.046814,60.881963 c 0,0 0.09121,-0.536951 0.285499,-0.7248 0.247625,-0.239424 0.987385,-0.382705 0.987385,-0.382705 z"
       id="path23593"
       sodipodi:nodetypes="cccccccccccscccacc"
       inkscape:transform-center-x="-0.064603581"
       inkscape:transform-center-y="6.3748317" /><path
       style="opacity:1;fill:#ffccaa;stroke:#000000;stroke-width:0.262051;stroke-linecap:round;stroke-dasharray:none"
       d="m 26.619596,76.290773 c 0.26659,0.814456 0.43502,1.729456 1.043463,2.362673 0.163137,0.16977 0.403144,0.286205 0.647921,0.331975 0.938097,0.175408 1.949359,-0.0457 2.895384,-0.266541 1.057148,-0.24676 2.252482,-0.324338 3.035016,-1.165989 0.386798,-0.648605 0.383643,-1.329869 -0.02294,-1.771436 -0.669847,-0.727484 -2.235273,-0.39851 -3.109159,-0.499358 -0.287545,-0.251671 -0.778673,-1.829929 -0.85987,-2.244084 -1.043648,0.575279 -2.344387,1.202447 -4.322181,1.271527 z"
       id="path3259"
       sodipodi:nodetypes="caaacacccc"
       inkscape:label="Piede"
       inkscape:transform-center-x="-4.5057943"
       inkscape:transform-center-y="17.470207" /><path
       style="opacity:1;fill:#775338;fill-opacity:1;stroke:#000000;stroke-width:0.262051;stroke-linecap:round;stroke-dasharray:none"
       d="m 26.69909,76.142658 c 1.348886,0.250535 2.76618,0.376714 4.09969,-1.07659 0.08867,0.03332 0.01453,0.08807 0.270059,0.261051 1.668466,0.04359 1.39559,0.0091 2.011857,0.06726 0.291576,0.100406 0.627614,0.121784 0.859731,0.303353 0.21283,0.166478 0.35622,0.41542 0.421495,0.668144 0.06672,0.258756 0.03207,0.544546 -0.04661,0.806449 -0.06323,0.210422 -0.162088,0.429027 -0.332829,0.584437 -0.403869,0.367548 -0.981471,0.534915 -1.512017,0.710237 -0.801893,0.26503 -1.720947,0.282627 -2.484494,0.502719 -1.390295,0.400728 -2.036414,0.256681 -2.772695,-0.942383 z"
       id="path48335"
       sodipodi:nodetypes="ccccaaaaascc"
       inkscape:label="Scarpa"
       inkscape:transform-center-x="-4.8265978"
       inkscape:transform-center-y="18.544987" /><path
       style="opacity:0.346667;fill:#775338;fill-opacity:1;stroke:#000000;stroke-width:0.352936;stroke-linecap:round;stroke-dasharray:none"
       d="m 27.153994,76.483376 0.290952,1.185148 0.107199,0.436644 0.446886,0.485504 0.503977,0.273098 0.740416,0.04971 3.472468,-0.782673 1.158882,-0.546745 0.451318,-0.904775 c -0.92216,1.212445 -2.709399,1.501092 -4.364698,1.886881 -0.646859,0.146549 -1.320265,0.484065 -2.115448,-0.639417 l -0.338448,-1.345477 z"
       id="path48396"
       sodipodi:nodetypes="ccccccccccccc"
       inkscape:label="Contornoscarpa"
       inkscape:transform-center-x="-5.0184679"
       inkscape:transform-center-y="19.125208" /><path
       style="opacity:0.346667;fill:#775338;fill-opacity:1;stroke:#000000;stroke-width:0.352936;stroke-linecap:round;stroke-dasharray:none"
       d="m 26.093381,74.399945 0.503023,1.529899 1.103196,0.340928 c 0,0 -0.729949,-0.357917 -0.962235,-0.656609 -0.267784,-0.344377 -0.426449,-1.218032 -0.426449,-1.218032 z"
       id="path48401"
       sodipodi:nodetypes="cccacc"
       inkscape:transform-center-x="-1.1749157"
       inkscape:transform-center-y="16.760232" /><path
       style="opacity:0.346667;fill:#775338;fill-opacity:1;stroke:#000000;stroke-width:0;stroke-linecap:round;stroke-dasharray:none"
       d="m 26.394789,74.292887 0.401634,1.191039 0.775215,0.636386 0.864446,0.03576 c 1.06788,0.06492 1.954629,-0.887657 2.348066,-1.188211 0,0 -1.906001,0.783798 -2.861803,0.652937 -0.835538,-0.114385 -0.994644,-1.310015 -0.960822,-1.318319 z"
       id="path48403"
       sodipodi:nodetypes="cccccscc"
       inkscape:transform-center-x="-2.8678948"
       inkscape:transform-center-y="16.652842" /><g
       id="g61502"
       transform="matrix(0.30872629,-0.07579188,0.06883354,0.2803826,-16.507596,4.5484885)"
       inkscape:transform-center-x="-2.0286882"
       inkscape:transform-center-y="14.164998"><path
         style="opacity:1;fill:#d1a943;fill-opacity:0.823529;stroke:#000000;stroke-width:0.665;stroke-linecap:round;stroke-dasharray:none"
         d="m 75.980402,262.86387 0.235965,5.89909 c 5.138771,2.51086 10.828123,1.95617 15.966894,0.0787 l 0.314621,-5.89909 c -5.292554,0.68366 -11.015231,0.91521 -16.51748,-0.0787 z"
         id="path61492"
         sodipodi:nodetypes="cccccc"
         inkscape:label="Parte gialla" /><path
         style="opacity:1;fill:#d6a210;fill-opacity:1;stroke:#000000;stroke-width:0;stroke-linecap:butt;stroke-dasharray:none;paint-order:normal"
         d="m 86.36759,263.86335 -0.03933,6.06314 c 1.377187,-0.15809 2.736399,-0.35213 3.967291,-0.80281 v -5.57495 z"
         id="path61494"
         sodipodi:nodetypes="ccccc" /><path
         style="opacity:1;fill:#d6a210;fill-opacity:1;stroke:#000000;stroke-width:0;stroke-linecap:round;stroke-dasharray:none"
         d="m 81.250265,263.80196 0.157308,6.14082 -2.08237,-0.38258 -0.305078,-5.85894 z"
         id="path61496"
         sodipodi:nodetypes="ccccc" /><path
         style="opacity:1;fill:#bd9631;fill-opacity:0.980392;stroke:#000000;stroke-width:0;stroke-linecap:round;stroke-dasharray:none"
         d="m 76.313287,263.30799 0.217693,5.21903 1.207628,0.51801 -0.05562,-5.60276 z"
         id="path61498"
         sodipodi:nodetypes="ccccc" /><path
         style="opacity:1;fill:#b8922d;fill-opacity:0.823529;stroke:#000000;stroke-width:0;stroke-linecap:round;stroke-miterlimit:1.4;stroke-dasharray:none"
         d="m 81.065145,263.77516 0.342428,6.21847 1.927039,0.10651 -0.353945,-6.21372 z"
         id="path61500"
         sodipodi:nodetypes="ccccc" /></g></g><g
     inkscape:groupmode="layer"
     id="layer6"
     inkscape:label="Busto"
     transform="translate(-29.365905,10.233573)"><path
       style="opacity:1;fill:#ffccaa;stroke:#000000;stroke-width:0.277172;stroke-linecap:round;stroke-dasharray:none"
       d="m 43.207403,21.247422 2.985737,5.068222 1.085721,3.294347 c 1.07067,2.229166 1.507197,2.879511 1.492864,2.407406 0.08684,1.273849 0.233645,2.435717 0.678568,3.040934 4.701217,1.341506 8.870286,1.192573 12.485782,-0.506824 l -0.271426,-6.335277 0.271426,-3.294343 0.54286,-5.701757 C 56.654361,18.531479 50.47896,18.896509 43.207403,21.247422 Z"
       id="path4784"
       sodipodi:nodetypes="cccccccccc" /><path
       style="opacity:1;fill:#00ffff;stroke:#000000;stroke-width:0.277172;stroke-linecap:round;stroke-dasharray:none"
       d="m 55.964619,25.80882 c 1.004195,1.992741 0.699393,2.443926 0.678568,3.167641 0.489349,-1.055881 -0.111628,-2.11176 -0.678568,-3.167641 z"
       id="path4790"
       sodipodi:nodetypes="ccc" /><path
       style="opacity:1;fill:#00ffff;stroke:#000000;stroke-width:0.277172;stroke-linecap:round;stroke-dasharray:none"
       d="m 61.121779,27.962818 c -0.888919,0.528994 -1.673399,1.204276 -3.257153,0.760236 1.637409,0.776718 2.281251,-0.301785 3.257153,-0.760236 z"
       id="path4792"
       sodipodi:nodetypes="ccc" /><path
       style="opacity:1;fill:#ceae45;fill-opacity:0.980392;stroke:#000000;stroke-width:0.277172;stroke-linecap:round;stroke-dasharray:none"
       d="m 48.228865,34.931625 0.271425,2.2807 c 4.840505,1.248329 9.681,1.406855 14.521505,-0.380118 L 62.75037,34.424801 c -4.27908,1.741397 -9.156973,1.805612 -14.521505,0.506824 z"
       id="path4796"
       sodipodi:nodetypes="ccccc" /><path
       style="opacity:1;fill:#ff7f2a;stroke:#000000;stroke-width:0.277172;stroke-linecap:round;stroke-dasharray:none"
       d="m 49.111014,37.465732 -2.239296,8.109162 -1.221438,7.729035 9.635761,0.63353 9.364336,-1.14035 0.54286,-0.253412 0.271426,-6.715395 c -0.156073,-1.474022 -0.569286,-3.42817 -1.085712,-5.575047 -0.396122,-1.098112 -1.151296,-2.19623 -1.900016,-3.294342 -4.23094,1.871928 -8.788903,0.909705 -13.367921,0.506819 z"
       id="path4798"
       sodipodi:nodetypes="cccccccccc" /><path
       style="opacity:1;fill:#000000;stroke:#000000;stroke-width:0.277172;stroke-linecap:round;stroke-dasharray:none"
       d="m 53.114599,49.122649 3.121445,-2.660817 2.171442,-2.914229 2.985728,-5.701753 0.814286,-0.380118 c -0.37504,2.268431 -0.652421,4.628055 -1.900007,6.081871 -0.304907,1.682652 -1.51881,2.799529 -2.307159,4.181279 l -1.628572,1.900587 h 6.107173 l -6.650034,0.126706 -3.528588,2.407404 -3.121445,1.520468 c 0,0 3.523456,-1.625866 5.021452,-2.787523 1.528816,-1.18555 2.860073,-2.621081 3.935731,-4.181285 1.073993,-1.557772 2.442877,-5.068218 2.442877,-5.068218 l 0.950004,-2.914228 -2.985728,4.941516 -2.442877,2.787523 z"
       id="path4800"
       sodipodi:nodetypes="ccccccccccccaaccccc" /><path
       style="opacity:1;fill:#00ffff;stroke:#000000;stroke-width:0.277172;stroke-linecap:round;stroke-dasharray:none"
       d="m 57.864626,31.383871 c 2.267579,0.637753 2.904814,0.05781 3.392871,-0.633531 -0.874452,1.648005 -2.175052,0.908913 -3.392871,0.633531 z"
       id="path4804"
       sodipodi:nodetypes="ccc" /><path
       style="opacity:0.396923;fill:#ddb292;fill-opacity:1;stroke:#000000;stroke-width:0;stroke-linecap:round;stroke-dasharray:none"
       d="m 46.837777,25.840501 0.983945,2.312376 1.153574,2.027287 0.746432,1.140354 0.16964,1.235374 0.237503,1.235379 0.475007,1.330414 0.135717,0.190059 3.460725,0.443466 c 2.730177,-0.157271 5.331223,-0.305318 7.532183,-1.203703 l -0.03389,-0.63353 -3.494657,0.63353 -5.021452,0.316766 -1.900016,-5.448341 -2.85002,-2.090645 z"
       id="path26902"
       sodipodi:nodetypes="cccccccccccccccc" /><path
       style="opacity:0.901538;fill:#c6a186;fill-opacity:1;stroke:#000000;stroke-width:0;stroke-linecap:round;stroke-dasharray:none"
       d="m 46.057423,25.808825 0.814295,2.344052 0.814286,2.027287 0.610714,1.457119 0.542861,0.696878 0.339289,2.027288 0.475006,0.696882 0.610715,0.253413 0.54286,-0.06335 -0.339289,-0.380118 -0.610714,-2.91423 -0.271426,-1.267055 -2.782165,-4.814811 z"
       id="path29703"
       sodipodi:nodetypes="cccccccccccccc"
       inkscape:transform-center-x="-5.4404379"
       inkscape:transform-center-y="8.8341859" /><path
       style="opacity:1;fill:#00ffff;stroke:#000000;stroke-width:0.235492;stroke-linecap:round;stroke-dasharray:none"
       d="m 47.821722,26.188938 2.442867,2.914229 c 2.190552,0.864883 3.033935,0.473029 4.207166,0 -0.898282,0.358348 -1.887637,0.638104 -4.207166,0 l 1.221438,2.534116 c 1.567344,0.406139 3.20325,0.972293 4.071449,-0.253412 -0.940419,0.904843 -2.557196,0.546779 -4.207166,0.126706 l -1.085721,-2.534116 z"
       id="path4806"
       sodipodi:nodetypes="ccccccccc" /><path
       style="opacity:0.901538;fill:#c6a186;fill-opacity:1;stroke:#000000;stroke-width:0;stroke-linecap:round;stroke-dasharray:none"
       d="m 50.671732,25.808825 5.089316,0.190058 v 0.443467 c -0.0019,-0.03122 -5.502424,0.250481 -5.903602,-0.190059 -0.07679,-0.284487 0.814286,-0.443466 0.814286,-0.443466 z"
       id="path35161"
       sodipodi:nodetypes="ccccc" /><path
       style="opacity:0.901538;fill:#c6a186;fill-opacity:1;stroke:#000000;stroke-width:0;stroke-linecap:round;stroke-dasharray:none"
       d="m 56.33784,25.745471 0.7125,2.153998 c 0,0 -0.115516,-1.121651 0.271425,-1.457114 0.684112,-0.593095 3.596452,-1.203708 3.596452,-1.203708 z"
       id="path35163"
       sodipodi:nodetypes="ccscc" /><path
       style="opacity:0.901538;fill:#c6a186;fill-opacity:1;stroke:#000000;stroke-width:0;stroke-linecap:round;stroke-dasharray:none"
       d="m 59.832487,28.944785 1.628591,1.045319 -0.305358,-1.932257 z"
       id="path35165"
       sodipodi:nodetypes="cccc" /><path
       style="opacity:0.901538;fill:#c6a186;fill-opacity:1;stroke:#000000;stroke-width:0;stroke-linecap:round;stroke-dasharray:none"
       d="m 60.477142,31.85901 1.119644,0.791917 -0.203572,-1.773881 -0.54286,0.728555 z"
       id="path35167"
       sodipodi:nodetypes="ccccc" /><path
       style="opacity:1;fill:#999999;fill-opacity:1;stroke:#000000;stroke-width:0;stroke-linecap:butt;stroke-miterlimit:1.4;stroke-dasharray:none;paint-order:normal"
       d="m 65.097933,52.6601 -10.691858,-0.04798 2.859077,-1.91222 5.814109,-0.783294 -0.191929,-0.671958 c -1.479325,-0.310275 -2.837276,-1.017176 -4.654301,-0.223985 2.229549,-3.048459 3.412967,-6.341083 4.990182,-9.541801 l 0.381454,-0.714504 -1.121069,-1.662928 c 0,0 -1.183476,4.41155 -2.083118,6.517329 -0.573585,1.34257 -2.099586,3.867927 -2.099586,3.867927 l -1.603305,1.981946 H 62.4075 l 0.09597,0.358377 c -2.34561,-0.288309 -4.389042,-0.01242 -6.573601,0 l -3.418396,2.28466 -2.915288,1.567899 5.901839,0.358377 z"
       id="path65540"
       sodipodi:nodetypes="cccccccccaccccccccc" /><path
       style="opacity:1;fill:#ffffff;fill-opacity:1;stroke:#000000;stroke-width:0;stroke-linecap:butt;stroke-miterlimit:1.4;stroke-dasharray:none;paint-order:normal"
       d="m 63.57897,38.811405 c -0.632353,-1.362873 0.772924,1.300393 1.092547,3.20159 0.1152,0.685291 0.723109,2.261632 0.623793,3.559472 -0.212226,2.773212 0.07219,5.213092 -0.23712,7.061397 l -11.286115,0.179187 c 0,0 1.993386,-1.866814 3.269629,-2.340324 1.804339,-0.669444 5.794242,-0.556122 5.794242,-0.556122 L 62.644008,49.199852 58.36534,48.931069 Z"
       id="path65544"
       sodipodi:nodetypes="cssccacccc" /><path
       style="opacity:1;fill:#ff9955;fill-opacity:1;stroke:#000000;stroke-width:0;stroke-linecap:butt;stroke-miterlimit:1.4;stroke-dasharray:none;paint-order:normal"
       d="m 51.215531,38.854268 c -1.081729,2.297894 -2.293152,5.1026 -2.4768,7.400495 l 0.393366,4.416254 c 4.400694,-1.484408 7.058622,-6.707037 8.429182,-10.879073 -3.207395,-1.15798 -4.458772,-1.326409 -6.345748,-0.937676 z"
       id="path65600"
       sodipodi:nodetypes="ccccc" /></g><g
     inkscape:groupmode="layer"
     id="layer4"
     inkscape:label="Braccio destro"
     transform="translate(-58.286873,-32.480471)"><path
       style="opacity:1;fill:#ffccaa;stroke:#000000;stroke-width:0.314671;stroke-linecap:round;stroke-dasharray:none"
       d="m 70.719687,63.126441 c -0.763235,0.283703 -1.133143,0.338992 -1.126718,1.604391 -0.01934,0.779908 -0.448093,1.492977 0,2.272886 2.088402,-0.140469 3.657412,0.175929 4.604878,0.467947 0.465997,-0.539684 0.350922,-1.506171 0.440893,-2.473435 -0.223084,-0.503264 -0.371517,-1.182399 -0.832794,-1.60439 -0.900264,-0.451393 -2.175606,-0.605891 -3.086259,-0.267399 z"
       id="path3263"
       sodipodi:nodetypes="accccca"
       inkscape:transform-center-x="-0.10112827"
       inkscape:transform-center-y="0.76731619" /><path
       style="opacity:1;fill:#ffccaa;stroke:#000000;stroke-width:0.32294;stroke-linecap:round;stroke-dasharray:none"
       d="m 69.502136,69.518445 c -0.440519,1.30226 -0.395749,2.86019 -0.438193,4.17984 0.527159,1.55957 1.375807,3.30325 2.288307,4.49864 l 3.164674,-0.42507 c 0.113907,0.16574 -0.709417,-1.44825 -0.632936,-2.37329 0.135392,-1.63751 -0.115095,-2.19036 -0.389498,-3.40056 -0.143539,-0.63307 0.09316,-1.41791 0.24343,-2.05449 -1.496358,-0.63316 -2.866153,-0.52958 -4.235784,-0.42507 z"
       id="path3267"
       sodipodi:nodetypes="ccccsscc"
       inkscape:transform-center-x="0.11711411"
       inkscape:transform-center-y="9.3783528" /><path
       style="opacity:1;fill:#ffccaa;stroke:#000000;stroke-width:0.248273;stroke-linecap:round;stroke-dasharray:none"
       d="m 71.887806,79.542965 v 3.22343 l 1.606684,0.49592 -0.09737,-0.3188 0.194744,0.3188 1.363255,-0.14169 -0.535565,-0.49591 0.632927,0.42507 0.973758,-0.49592 -0.779004,-0.42506 0.973748,0.35422 0.340811,-0.0709 0.535555,-0.81472 -1.07111,-0.24795 1.168492,-0.0354 -0.04864,-1.09809 -2.385679,-1.13351 c -1.20635,-0.20859 -2.047951,0.11358 -2.872558,0.46048 z"
       id="path3271"
       sodipodi:nodetypes="cccccccccccccccccc"
       inkscape:transform-center-x="-2.6283024"
       inkscape:transform-center-y="16.699247" /><path
       style="opacity:0.901538;fill:#c6a186;fill-opacity:1;stroke:#000000;stroke-width:0;stroke-linecap:round;stroke-dasharray:none"
       d="m 69.892179,69.619075 c 1.151794,-0.003 2.255323,-0.16378 3.580424,0.40076 l -0.206559,1.50285 0.344268,1.40265 0.275418,1.85351 -0.137709,0.9017 0.344268,1.45275 0.206568,0.45085 h -0.481986 l -0.757395,-3.25616 -0.344267,-1.18975 c 0,0 -0.206875,-0.9073 -0.206569,-1.36508 3.45e-4,-0.49142 0.223783,-1.46527 0.223783,-1.46527 z"
       id="path35903"
       sodipodi:nodetypes="cccccccccccacc"
       inkscape:transform-center-x="-0.1825519"
       inkscape:transform-center-y="9.1497652" /><path
       style="opacity:1;fill:#c6a186;fill-opacity:1;stroke:#000000;stroke-width:0;stroke-linecap:round;stroke-dasharray:none"
       d="m 71.215652,63.454726 0.415674,1.276288 -0.138561,1.701707 0.06932,0.330888 2.771184,-0.330888 -0.138552,0.92176 -2.632632,-0.685405 -0.623516,-0.09458 0.138561,-1.465353 -0.207841,-0.992671 -0.415674,-0.330887 z"
       id="path35901"
       sodipodi:nodetypes="cccccccccccc"
       inkscape:transform-center-x="-0.4804759"
       inkscape:transform-center-y="0.9644609" /><path
       style="opacity:1;fill:#c6a186;fill-opacity:1;stroke:#000000;stroke-width:0;stroke-linecap:round;stroke-dasharray:none"
       d="m 74.59149,79.205965 c -0.09373,-0.0821 -0.384921,-0.10303 -0.912328,-0.0688 l -1.101662,0.25047 c -0.145982,0.0988 -0.629012,0.15691 -0.507799,0.30056 l -0.02585,2.41709 0.01714,0.60113 0.929169,0.29386 0.254709,0.0477 0.309024,-0.16232 c 0.05917,0.18577 0.138963,0.31172 0.262876,0.30917 l 0.86277,-0.14725 -0.392599,-0.36811 0.222548,-0.13284 0.522323,0.36838 0.774102,-0.34485 -0.652028,-0.32687 0.250352,-0.16218 0.822434,0.28285 c 0.287664,0.0848 0.418345,-0.36348 0.619695,-0.57179 l 0.0099,-0.0122 c 0,0 -1.207077,0.21409 -2.282697,0.27425 l 0.834603,0.41544 -0.412763,0.1738 -0.69654,-0.40049 -0.688545,0.35067 -0.757394,-0.30057 -0.189354,-0.57609 c 0,0 -0.51811,-0.98241 0.07746,-1.63434 0.40744,-0.446 1.85046,-0.87666 1.85046,-0.87666 z"
       id="path35911"
       sodipodi:nodetypes="cccccccccccccccccccccccccccscc"
       inkscape:transform-center-x="-2.5370924"
       inkscape:transform-center-y="16.717993" /><g
       id="g65447"
       transform="matrix(-0.33157248,-0.02740928,0.03904824,-0.34286382,89.220794,161.98555)"
       inkscape:transform-center-x="0.2815905"
       inkscape:transform-center-y="3.9176552"><path
         style="opacity:1;fill:#d1a943;fill-opacity:0.823529;stroke:#000000;stroke-width:0.665;stroke-linecap:round;stroke-dasharray:none"
         d="m 75.980402,262.86387 0.235965,5.89909 c 5.138771,2.51086 10.828123,1.95617 15.966894,0.0787 l 0.314621,-5.89909 c -5.292554,0.68366 -11.015231,0.91521 -16.51748,-0.0787 z"
         id="path65437"
         sodipodi:nodetypes="cccccc"
         inkscape:label="Parte gialla" /><path
         style="opacity:1;fill:#d6a210;fill-opacity:1;stroke:#000000;stroke-width:0;stroke-linecap:butt;stroke-dasharray:none;paint-order:normal"
         d="m 86.36759,263.86335 -0.03933,6.06314 c 1.377187,-0.15809 2.736399,-0.35213 3.967291,-0.80281 v -5.57495 z"
         id="path65439"
         sodipodi:nodetypes="ccccc" /><path
         style="opacity:1;fill:#d6a210;fill-opacity:1;stroke:#000000;stroke-width:0;stroke-linecap:round;stroke-dasharray:none"
         d="m 81.250265,263.80196 0.157308,6.14082 -2.08237,-0.38258 -0.305078,-5.85894 z"
         id="path65441"
         sodipodi:nodetypes="ccccc" /><path
         style="opacity:1;fill:#bd9631;fill-opacity:0.980392;stroke:#000000;stroke-width:0;stroke-linecap:round;stroke-dasharray:none"
         d="m 76.313287,263.30799 0.217693,5.21903 1.207628,0.51801 -0.05562,-5.60276 z"
         id="path65443"
         sodipodi:nodetypes="ccccc" /><path
         style="opacity:1;fill:#b8922d;fill-opacity:0.823529;stroke:#000000;stroke-width:0;stroke-linecap:round;stroke-miterlimit:1.4;stroke-dasharray:none"
         d="m 81.065145,263.77516 0.342428,6.21847 1.927039,0.10651 -0.353945,-6.21372 z"
         id="path65445"
         sodipodi:nodetypes="ccccc" /></g><g
       id="g65435"
       transform="matrix(-0.27194705,0.04871503,-0.1026285,-0.21682749,123.27677,132.17522)"
       inkscape:transform-center-x="-1.2139274"
       inkscape:transform-center-y="14.151135"><path
         style="opacity:1;fill:#d1a943;fill-opacity:0.823529;stroke:#000000;stroke-width:0.665;stroke-linecap:round;stroke-dasharray:none"
         d="m 75.980402,262.86387 0.235965,5.89909 c 5.138771,2.51086 10.828123,1.95617 15.966894,0.0787 l 0.314621,-5.89909 c -5.292554,0.68366 -11.015231,0.91521 -16.51748,-0.0787 z"
         id="path65425"
         sodipodi:nodetypes="cccccc"
         inkscape:label="Parte gialla" /><path
         style="opacity:1;fill:#d6a210;fill-opacity:1;stroke:#000000;stroke-width:0;stroke-linecap:butt;stroke-dasharray:none;paint-order:normal"
         d="m 86.36759,263.86335 -0.03933,6.06314 c 1.377187,-0.15809 2.736399,-0.35213 3.967291,-0.80281 v -5.57495 z"
         id="path65427"
         sodipodi:nodetypes="ccccc" /><path
         style="opacity:1;fill:#d6a210;fill-opacity:1;stroke:#000000;stroke-width:0;stroke-linecap:round;stroke-dasharray:none"
         d="m 81.250265,263.80196 0.157308,6.14082 -2.08237,-0.38258 -0.305078,-5.85894 z"
         id="path65429"
         sodipodi:nodetypes="ccccc" /><path
         style="opacity:1;fill:#bd9631;fill-opacity:0.980392;stroke:#000000;stroke-width:0;stroke-linecap:round;stroke-dasharray:none"
         d="m 76.313287,263.30799 0.217693,5.21903 1.207628,0.51801 -0.05562,-5.60276 z"
         id="path65431"
         sodipodi:nodetypes="ccccc" /><path
         style="opacity:1;fill:#b8922d;fill-opacity:0.823529;stroke:#000000;stroke-width:0;stroke-linecap:round;stroke-miterlimit:1.4;stroke-dasharray:none"
         d="m 81.065145,263.77516 0.342428,6.21847 1.927039,0.10651 -0.353945,-6.21372 z"
         id="path65433"
         sodipodi:nodetypes="ccccc" /></g><path
       style="opacity:1;fill:#d6a210;fill-opacity:1;stroke:#000000;stroke-width:0.149337;stroke-miterlimit:0.6;stroke-dasharray:none;stroke-opacity:1"
       d="m 75.782798,79.436705 4.381851,-4.49864 1.361302,-0.61209 -0.582298,1.03716 -4.333175,4.46322 z"
       id="path2270"
       sodipodi:nodetypes="cccccc"
       inkscape:transform-center-x="-6.7414084"
       inkscape:transform-center-y="12.636022" /><path
       style="opacity:1;fill:#d6a210;fill-opacity:1;stroke:#000000;stroke-width:0.114715;stroke-miterlimit:0.6;stroke-dasharray:none;stroke-opacity:1"
       d="m 72.923079,83.104225 -3.385364,3.42816 -0.616201,0.0782 0.01015,-0.39997 3.347718,-3.40113 z"
       id="path2964"
       sodipodi:nodetypes="cccccc" /></g><g
     inkscape:groupmode="layer"
     id="layer7"
     inkscape:label="Testa"
     transform="matrix(0.87453808,0,0,0.82574951,7.8435325,8.8944739)"><path
       style="opacity:0.683077;fill:#00ffff;stroke:#000000;stroke-width:0.217253;stroke-linecap:round;stroke-dasharray:none"
       d="M 25.102361,0.30868926 Z"
       id="path4877" /><path
       style="opacity:1;fill:#00bbff;fill-opacity:1;stroke:#000000;stroke-width:0.217253;stroke-linecap:round;stroke-dasharray:none"
       d="m 6.0698424,10.932973 c 10.0061396,2.04383 18.4846796,2.972675 27.3376166,1.37383 0,0 1.311965,-5.3277467 -0.461391,-7.3270917 -2.304374,-2.598026 -7.629594,-2.957654 -11.088066,-3.655928 -3.407959,-0.08262 -0.155711,-5.6e-4 -5.637483,-0.0076 -1.810609,-0.0059 -3.532129,-0.08246 -6.7134037,1.000013 -0.67824,0.23078 -3.3310236,1.349135 -4.1293652,2.297179 -1.8203189,3.481934 -2.0864104,7.1882467 -2.7972025,10.8303577 0,0 0.1664926,3.701458 0.5767415,5.518219 0.334631,1.481884 0.580058,3.046773 1.5283697,4.350456 1.3734516,1.888154 3.7342865,3.377637 5.7674302,4.671025 0,0 -0.196622,-1.991649 0.346046,-2.839247 0.209813,-0.327713 1.038138,-0.732718 1.038138,-0.732718 L 10.366577,23.343266 7.1079803,18.718042 5.6084478,15.604027 4.9163565,13.680666 l 1.7302298,4.304667 2.883715,4.304665 1.8455767,2.930838 0.80744,2.106539 0.173024,0.778506 -0.05768,1.694386 8.333936,-0.892986 C 20.705616,27.454274 19.188912,25.279971 18.29679,23.389064 13.930392,23.592325 11.40797,21.538356 8.8382083,19.542338 7.3082793,17.930143 6.3728369,15.93174 6.5312353,13.222724 V 12.581603 L 5.7237948,12.398427 Z"
       id="path4887"
       sodipodi:nodetypes="ccaccsccaacacccccccccccccccccc" /><path
       style="opacity:1;fill:#cece31;fill-opacity:1;stroke:#000000;stroke-width:0.217253;stroke-linecap:round;stroke-dasharray:none"
       d="M 5.9544935,11.116151 5.7237967,12.48998 C 22.500806,16.512452 34.344757,14.148687 33.753508,14.230165 L 33.522812,12.398392 C 26.576613,14.102126 16.143101,13.236624 5.9544935,11.116151 Z"
       id="path4889"
       sodipodi:nodetypes="ccccc" /><path
       style="opacity:1;fill:#00bbff;fill-opacity:1;stroke:#000000;stroke-width:0.217253;stroke-linecap:round;stroke-dasharray:none"
       d="m 18.873538,29.250704 7.959057,-0.183176 0.461391,-0.549532 -2.883713,-0.04578 -1.095814,-5.266345 5.825103,-1.236451 c 0.221811,4.675955 3.02507,4.565452 3.059068,6.321748 0.0067,0.355954 -4.884643,-0.08995 -4.904644,0.318425 l -0.461391,0.549533 z"
       id="path4891"
       sodipodi:nodetypes="ccccccsccc" /><path
       style="opacity:0.683077;fill:#00ffff;stroke:#000000;stroke-width:0.217253;stroke-linecap:round;stroke-dasharray:none"
       d="m 23.256784,25.037626 -4.267897,0.366356 z"
       id="path4893" /><path
       style="opacity:1;fill:#00cea0;fill-opacity:1;stroke:#000000;stroke-width:0.217253;stroke-linecap:round;stroke-dasharray:none"
       d="m 6.5312373,12.856335 -0.2306978,0.549532 c 0.1349908,2.257559 0.7278148,4.520139 2.3069728,6.319616 2.2734457,2.590628 6.3588847,4.206312 10.0929997,4.121489 0.910531,-0.02067 1.659102,0.174813 2.479993,0.09159 2.834953,-0.287423 8.189763,-2.014949 8.189763,-2.014949 1.66347,-0.583405 3.000089,-2.727245 3.345104,-4.8542 0.143195,-0.88279 0.346048,-2.656072 0.346048,-2.656072 -6.201088,0.307401 -15.479608,1.173378 -26.5301827,-1.557006 z"
       id="path4895"
       sodipodi:nodetypes="ccssacscc" /><path
       style="opacity:1;fill:#00cea0;fill-opacity:1;stroke:#000000;stroke-width:0.217253;stroke-linecap:round;stroke-dasharray:none"
       d="m 18.412142,23.846976 0.74977,1.740187 c 0.462048,0.399778 0.309754,0.945895 2.191624,1.00747 1.954195,-0.169022 1.944025,-0.899602 2.191623,-1.350932 v -0.11448 -1.557011 c -1.531736,0.660974 -3.295658,0.584494 -5.133017,0.274766 z"
       id="path4899"
       sodipodi:nodetypes="ccccccc" /><path
       style="opacity:1;fill:#ffffff;stroke:#000000;stroke-width:0.31526;stroke-linecap:round;stroke-dasharray:none"
       d="m 20.834461,20.549782 c -2.412226,0.05725 -5.507631,0.382308 -7.613006,-0.824299 -0.629782,-0.782184 -1.333492,-2.048235 -0.749765,-2.930834 0.728834,-1.102001 2.268374,-1.893322 4.325574,-1.465419 1.231359,0.256127 2.596084,0.56792 3.402782,1.648593 0.830279,1.650508 1.186606,2.653253 0.634415,3.571959 z"
       id="path4901"
       sodipodi:nodetypes="ccascc" /><path
       style="opacity:0.990769;fill:#00ffff;stroke:#000000;stroke-width:0.31526;stroke-linecap:round;stroke-dasharray:none"
       d="m 11.837273,15.512407 c 0,0 2.189987,-0.684965 3.345106,-0.73271 1.167816,-0.04827 3.460458,0.457943 3.460458,0.457943 l 2.537668,1.007478 0.922795,0.274763 1.845578,-1.190652 c -0.157936,-0.0836 -1.661674,1.492845 -2.076278,1.190652 -0.314954,-0.229558 -1.135089,-0.530994 -1.153479,-0.457942 0,0 -1.177645,-0.643112 -1.845583,-0.824299 -1.250388,-0.339182 -2.603842,-0.532395 -3.921853,-0.457943 -1.080019,0.06101 -3.114412,0.73271 -3.114412,0.73271 z"
       id="path4903"
       sodipodi:nodetypes="caccccscaac" /><path
       style="opacity:1;fill:#00ffff;stroke:#000000;stroke-width:0.217253;stroke-linecap:round;stroke-dasharray:none"
       d="m 26.025154,15.97035 0.576735,0.915887 1.499537,-1.190654 c 0.659037,-0.505582 1.094214,-0.300225 1.614881,-0.366354 l 2.191625,0.366354 -2.537664,-0.457943 c -0.376275,-0.0872 -0.854508,0.149491 -1.384194,0.549532 l -1.499528,1.190654 z"
       id="path4905"
       sodipodi:nodetypes="ccccccccc" /><path
       style="opacity:1;fill:#ffffff;stroke:#000000;stroke-width:0.217253;stroke-linecap:round;stroke-dasharray:none"
       d="m 27.06329,18.94698 0.288373,-2.106537 c 0.206836,-0.575836 0.393059,-0.880206 0.749754,-1.099066 0.282962,-0.435057 0.961617,-0.319997 1.557213,-0.274764 0.788407,0.160053 1.360431,0.684711 1.672557,1.236446 0.33881,0.598918 0.250486,1.33069 0.05764,1.969156 -0.132366,0.438339 -0.455321,0.837067 -0.80743,1.190652 -0.143588,0.144183 -0.519068,0.366357 -0.519068,0.366357 l -1.730233,-0.686916 z"
       id="path4907"
       sodipodi:nodetypes="ccccaaaccc" /><path
       style="opacity:1;fill:#33e6ff;fill-opacity:1;stroke:#000000;stroke-width:0.0705104;stroke-linecap:round;stroke-dasharray:none"
       id="path4915"
       sodipodi:type="arc"
       sodipodi:cx="16.364685"
       sodipodi:cy="18.008194"
       sodipodi:rx="3.0524485"
       sodipodi:ry="2.6068926"
       sodipodi:start="0.0051049019"
       sodipodi:end="6.2763647"
       sodipodi:open="true"
       sodipodi:arc-type="arc"
       d="m 19.417094,18.021502 a 3.0524485,2.6068926 0 0 1 -3.058891,2.593579 3.0524485,2.6068926 0 0 1 -3.045965,-2.604651 3.0524485,2.6068926 0 0 1 3.040728,-2.609109 3.0524485,2.6068926 0 0 1 3.064097,2.589093"
       inkscape:label="path4915" /><path
       style="opacity:1;fill:#000000;stroke:#000000;stroke-width:0.102905;stroke-linecap:round;stroke-dasharray:none"
       id="path4917"
       sodipodi:type="arc"
       sodipodi:cx="16.278191"
       sodipodi:cy="18.489044"
       sodipodi:rx="2.5834341"
       sodipodi:ry="1.9596968"
       sodipodi:start="0.0051049019"
       sodipodi:end="6.2763647"
       sodipodi:open="true"
       sodipodi:arc-type="arc"
       d="m 18.861591,18.499048 a 2.5834341,1.9596968 0 0 1 -2.588886,1.949689 2.5834341,1.9596968 0 0 1 -2.577948,-1.958012 2.5834341,1.9596968 0 0 1 2.573515,-1.961363 2.5834341,1.9596968 0 0 1 2.593293,1.946316" /><path
       style="opacity:1;fill:#33e6ff;fill-opacity:1;stroke:#000000;stroke-width:0.105365;stroke-linecap:round;stroke-dasharray:none"
       id="path4984"
       sodipodi:type="arc"
       sodipodi:cx="28.79352"
       sodipodi:cy="18.214283"
       sodipodi:rx="1.6015903"
       sodipodi:ry="2.0501893"
       sodipodi:start="0.0051049019"
       sodipodi:end="6.2763647"
       sodipodi:open="true"
       sodipodi:arc-type="arc"
       d="m 30.395089,18.224749 a 1.6015903,2.0501893 0 0 1 -1.60497,2.039719 1.6015903,2.0501893 0 0 1 -1.598189,-2.048426 1.6015903,2.0501893 0 0 1 1.595441,-2.051933 1.6015903,2.0501893 0 0 1 1.607702,2.036191" /><path
       style="opacity:1;fill:#1a1a1a;stroke:#000000;stroke-width:0.0989631;stroke-linecap:round;stroke-dasharray:none"
       id="path4988"
       sodipodi:type="arc"
       sodipodi:cx="28.649332"
       sodipodi:cy="18.557728"
       sodipodi:rx="1.4033222"
       sodipodi:ry="1.4348183"
       sodipodi:start="0.0051049019"
       sodipodi:end="6.2763647"
       sodipodi:open="true"
       sodipodi:arc-type="arc"
       d="m 30.052636,18.565052 a 1.4033222,1.4348183 0 0 1 -1.406284,1.427491 1.4033222,1.4348183 0 0 1 -1.400342,-1.433584 1.4033222,1.4348183 0 0 1 1.397934,-1.436039 1.4033222,1.4348183 0 0 1 1.408678,1.425022" /><path
       style="opacity:1;fill:#00ffff;stroke:#000000;stroke-width:0.0816739;stroke-linecap:round;stroke-dasharray:none"
       d="m 6.3005395,11.161945 0.2883718,-5.0831707 -0.5190689,-0.32056 -0.519069,0.274766 -0.1730233,1.144857 0.2306977,-1.099063 0.519069,-0.32056 0.5767425,0.412148 z"
       id="path4990" /><path
       style="opacity:1;fill:#1d65e2;fill-opacity:1;stroke:#000000;stroke-width:0.0816739;stroke-linecap:round;stroke-dasharray:none"
       d="m 31.965598,12.627364 0.346049,-4.6252277 -0.807431,-2.976632 -1.153488,-1.648595 -5.075347,-1.190653 1.326508,0.915887 1.384185,3.434574 0.403725,3.9383137 -0.17302,2.518687 z"
       id="path4996" /><path
       style="opacity:1;fill:#1d65e2;fill-opacity:1;stroke:#000000;stroke-width:0.0816739;stroke-linecap:round;stroke-dasharray:none"
       d="m 19.392607,12.993718 -0.28837,-5.6784967 -0.807445,-3.526163 -1.787898,-2.10654 -0.2307,-0.09159 4.613941,-0.04579 1.499535,1.557007 1.153489,2.747659 0.173025,2.014951 0.230694,1.969155 v 2.1981287 1.144858 z"
       id="path5002" /><path
       style="opacity:1;fill:#1d65e2;fill-opacity:1;stroke:#000000;stroke-width:0.0816739;stroke-linecap:round;stroke-dasharray:none"
       d="m 14.77866,12.48998 0.05768,-2.060745 -0.230695,-4.3046667 -0.692093,-2.289717 -2.306972,-2.014949 -4.2102237,1.648595 1.268834,0.503738 1.268836,1.923362 0.4037187,4.3046667 0.05768,1.740184 z"
       id="path5004" /><path
       style="opacity:1;fill:#1d65e2;fill-opacity:1;stroke:#000000;stroke-width:0.0816739;stroke-linecap:round;stroke-dasharray:none"
       d="m 16.739588,23.938562 1.38418,4.075699 -3.691152,0.366352 -2.42232,-6.136441 z"
       id="path5006"
       sodipodi:nodetypes="ccccc" /><path
       style="opacity:1;fill:#1d65e2;fill-opacity:1;stroke:#000000;stroke-width:0.0816739;stroke-linecap:round;stroke-dasharray:none"
       d="m 25.044685,23.251646 0.980469,3.938312 3.691153,-0.04578 -1.211165,-3.938312 -2.422321,-0.366357 z"
       id="path5008"
       sodipodi:nodetypes="cccccc" /><path
       style="opacity:1;fill:#1d65e2;fill-opacity:1;stroke:#000000;stroke-width:0.0816739;stroke-linecap:round;stroke-dasharray:none"
       d="M 7.5116983,28.15164 3.0131039,19.908662 2.4940359,15.558199 2.897756,13.680633 10.33774,27.922671 10.222391,29.983412 Z"
       id="path5014" /><path
       style="opacity:1;fill:#1d65e2;fill-opacity:1;stroke:#000000;stroke-width:0.0816739;stroke-linecap:round;stroke-dasharray:none"
       d="M 9.7033233,22.518939 9.1265803,20.229224 7.1656543,17.573153 6.3582148,14.504931 6.2428657,12.856335 5.6661223,12.627364 5.8391456,11.116151 H 6.3005395 L 4.6279853,6.2619513 3.532172,10.154469 l 1.3841845,3.846724 1.7302298,4.533638 z"
       id="path5018" /><path
       style="opacity:1;fill:#ceae45;fill-opacity:0.980392;stroke:#000000;stroke-width:0.0816739;stroke-linecap:round;stroke-dasharray:none"
       d="m 12.298667,29.891827 v -1.465421 l 8.0814,-0.638346 c 0.260432,0.561754 0.232037,0.930915 0.166024,1.233675 z"
       id="path5020"
       sodipodi:nodetypes="ccccc" /><path
       style="opacity:1;fill:#cbab42;fill-opacity:0.980392;stroke:#000000;stroke-width:0.0816739;stroke-linecap:round;stroke-dasharray:none"
       d="m 24.237243,27.510521 0.230705,1.099061 7.613013,-0.183176 -0.115363,-1.053272 -0.346039,-0.320554 -7.43999,0.274766 z"
       id="path5022" /><path
       style="opacity:1;fill:#ffffff;fill-opacity:1;stroke:#000000;stroke-width:0.0816739;stroke-linecap:round;stroke-dasharray:none"
       id="path102750"
       sodipodi:type="arc"
       sodipodi:cx="18.354465"
       sodipodi:cy="18.19138"
       sodipodi:rx="0.51906872"
       sodipodi:ry="0.43504617"
       sodipodi:start="0.0051049019"
       sodipodi:end="6.2763647"
       sodipodi:open="true"
       sodipodi:arc-type="arc"
       d="m 18.873527,18.1936 a 0.51906872,0.43504617 0 0 1 -0.520164,0.432825 0.51906872,0.43504617 0 0 1 -0.517966,-0.434672 0.51906872,0.43504617 0 0 1 0.517076,-0.435416 0.51906872,0.43504617 0 0 1 0.521049,0.432075"
       inkscape:transform-center-x="18.513454"
       inkscape:transform-center-y="-0.13738053" /><path
       style="opacity:1;fill:#ffffff;fill-opacity:1;stroke:#000000;stroke-width:0.0669328;stroke-linecap:round;stroke-dasharray:none"
       id="path102752"
       sodipodi:type="arc"
       sodipodi:cx="4.1973686"
       sodipodi:cy="30.468906"
       sodipodi:rx="0.39272168"
       sodipodi:ry="0.38679436"
       sodipodi:start="0.0051049019"
       sodipodi:end="6.2763647"
       sodipodi:open="true"
       sodipodi:arc-type="arc"
       d="M 4.5900852,30.470881 A 0.39272168,0.38679436 0 0 1 4.1965347,30.8557 0.39272168,0.38679436 0 0 1 3.8046471,30.469238 0.39272168,0.38679436 0 0 1 4.1958609,30.082115 0.39272168,0.38679436 0 0 1 4.5900812,30.466268"
       inkscape:transform-center-x="6.4545976"
       inkscape:transform-center-y="-7.684365"
       transform="matrix(0.74580455,-0.66616482,0.62294536,0.78226535,0,0)" /><path
       style="opacity:1;fill:#708f8f;fill-opacity:1;stroke:#000000;stroke-width:0.217253;stroke-linecap:round;stroke-dasharray:none"
       d="m 18.988887,22.152585 c 0,0 2.792365,-1.122886 3.748827,-2.060746 0.721246,-0.707222 1.326514,-2.518689 1.326514,-2.518689 4.229118,2.685621 16.055642,4.437442 16.49484,9.891574 -4.289276,-2.541946 -11.240722,-5.030251 -21.570181,-5.312139 z"
       id="path4897"
       sodipodi:nodetypes="caccc" /><path
       style="opacity:1;fill:#d6a210;fill-opacity:1;stroke:#000000;stroke-width:0;stroke-linecap:butt;stroke-miterlimit:1.4;stroke-dasharray:none;paint-order:normal"
       d="m 13.487379,28.423933 10e-7,1.29526 1.386584,-0.129529 -0.122346,-1.311453 c -0.590219,0.164574 -0.624624,0.09881 -1.264239,0.145722 z"
       id="path68451"
       sodipodi:nodetypes="ccccc"
       inkscape:transform-center-x="-6.6189766"
       inkscape:transform-center-y="0.88046626" /><path
       style="opacity:1;fill:#d6a210;fill-opacity:1;stroke:#000000;stroke-width:0;stroke-linecap:butt;stroke-miterlimit:1.4;stroke-dasharray:none;paint-order:normal"
       d="m 16.505237,28.132493 0.285479,1.262884 1.488535,-0.161907 -0.101954,-1.230497 z"
       id="path70370"
       sodipodi:nodetypes="ccccc" /><path
       style="opacity:1;fill:#bd9631;fill-opacity:0.980392;stroke:#000000;stroke-width:0;stroke-linecap:butt;stroke-miterlimit:1.4;stroke-dasharray:none;paint-order:normal"
       d="m 18.034559,27.986785 0.265084,1.279066 0.876811,-0.16191 -0.183518,-1.149542 z"
       id="path70372"
       sodipodi:nodetypes="ccccc" /><path
       style="opacity:1;fill:#bd9631;fill-opacity:0.980392;stroke:#000000;stroke-width:0;stroke-linecap:butt;stroke-miterlimit:1.4;stroke-dasharray:none;paint-order:normal"
       d="m 14.751618,28.278211 0.163127,1.311453 0.897204,-0.129525 -0.08156,-1.279072 z"
       id="path72084"
       sodipodi:nodetypes="ccccc"
       inkscape:transform-center-x="-7.581941"
       inkscape:transform-center-y="0.7868787" /><path
       style="opacity:1;fill:#5c7676;fill-opacity:1;stroke:#000000;stroke-width:0;stroke-linecap:butt;stroke-miterlimit:1.4;stroke-dasharray:none;paint-order:normal"
       d="m 21.847672,20.846665 -2.446917,1.295262 c 7.646288,0.329514 14.910837,1.503417 21.043458,5.181037 -4.53958,-2.56015 -4.120029,-4.179349 -18.596541,-6.476299 z"
       id="path72086"
       sodipodi:nodetypes="cccc" /><path
       style="opacity:1;fill:#00aa83;fill-opacity:1;stroke:#000000;stroke-width:0;stroke-linecap:butt;stroke-miterlimit:1.4;stroke-dasharray:none;paint-order:normal"
       d="m 18.625903,24.020049 0.693288,1.651462 c 0.448848,0.565445 1.007296,0.931993 1.835183,0.809533 1.922436,0.02254 2.05724,-0.878715 2.202225,-1.117166 -0.574111,0.305743 -1.039353,0.732989 -2.243007,0.663826 -0.531127,-0.06633 -1.168057,0.169773 -1.44776,-0.615252 -0.219398,-0.278331 -0.104346,-0.48902 -0.163122,-0.680013 0.286399,-0.607911 2.581644,-0.384766 3.935453,-0.453341 V 23.761 c -1.456401,0.367789 -3.084428,0.408523 -4.81226,0.259049 z"
       id="path74085"
       sodipodi:nodetypes="cccccccccc" /><path
       style="opacity:1;fill:#00aa83;fill-opacity:1;stroke:#000000;stroke-width:0;stroke-linecap:butt;stroke-miterlimit:1.4;stroke-dasharray:none;paint-order:normal"
       d="m 9.2868453,13.625594 -2.610041,-0.615248 -0.2854734,0.453341 c 0.3823414,6.07992 4.2593081,9.123274 10.3993851,10.200165 2.373552,0.291052 4.777367,0.341828 7.259176,-0.226669 C 19.269227,22.999181 10.629144,22.188617 9.3684093,16.118967 Z"
       id="path74417"
       sodipodi:nodetypes="ccccccc" /><path
       style="opacity:1;fill:#be9631;fill-opacity:1;stroke:#000000;stroke-width:0;stroke-linecap:butt;stroke-miterlimit:1.4;stroke-dasharray:none;paint-order:normal"
       d="m 11.178967,12.215214 -0.03378,1.282241 3.229763,0.549532 v -1.373829 z"
       id="path75562"
       sodipodi:nodetypes="ccccc" /><path
       style="opacity:1;fill:#d6a210;fill-opacity:1;stroke:#000000;stroke-width:0;stroke-linecap:butt;stroke-miterlimit:1.4;stroke-dasharray:none;paint-order:normal"
       d="m 17.720048,13.066338 -0.08155,1.325734 3.73893,0.26921 -0.03374,-1.341448 z"
       id="path75564"
       sodipodi:nodetypes="ccccc" /><path
       style="opacity:1;fill:#d6a210;fill-opacity:1;stroke:#000000;stroke-width:0;stroke-linecap:butt;stroke-miterlimit:1.4;stroke-dasharray:none;paint-order:normal"
       d="m 28.142213,13.265229 0.305262,1.325735 2.891908,-0.118415 -0.332051,-1.454306 z"
       id="path75566"
       sodipodi:nodetypes="ccccc" /><path
       style="opacity:1;fill:#d6a210;fill-opacity:1;stroke:#000000;stroke-width:0;stroke-linecap:butt;stroke-miterlimit:1.4;stroke-dasharray:none;paint-order:normal"
       d="m 6.5172433,11.385361 -0.06058,1.12589 2.035494,0.506037 0.244691,-1.286842 z"
       id="path75568"
       sodipodi:nodetypes="ccccc" /><path
       style="opacity:1;fill:#be9631;fill-opacity:1;stroke:#000000;stroke-width:0;stroke-linecap:butt;stroke-miterlimit:1.4;stroke-dasharray:none;paint-order:normal"
       d="m 24.254141,13.411423 0.163128,1.314622 2.422315,-0.09158 -0.264475,-1.314623 z"
       id="path75570"
       sodipodi:nodetypes="ccccc" /><path
       style="opacity:0.506667;fill:#103678;fill-opacity:1;stroke:#000000;stroke-width:0;stroke-linecap:butt;stroke-miterlimit:1.4;stroke-dasharray:none;paint-order:normal"
       d="M 27.409339,12.947924 C 20.969806,13.61811 13.705057,12.584674 6.1851903,11.024562 L 5.8391456,12.856336 H 6.4158883 C 5.4288009,18.985491 12.515097,23.215271 16.892819,28.082277 l -4.594152,0.252544 -1.268835,-4.396259 0.821434,2.305427 C 10.403824,24.875963 8.0909023,24.065883 5.4661058,19.598327 2.7843776,14.586661 3.5729686,17.863418 3.416825,10.017087 4.0698747,8.2783123 3.7470633,8.2812213 5.0514957,4.9908223 l 1.9411356,-1.568118 c 1.769275,2.70776 -0.320111,5.383795 6.7452017,7.0791517 z"
       id="path75572"
       sodipodi:nodetypes="cccccccccccccc" /></g></svg>
